<?xml version="1.0" encoding="UTF-8" standalone="no"?><!DOCTYPE svg PUBLIC "-//W3C//DTD SVG 1.1//EN" "http://www.w3.org/Graphics/SVG/1.1/DTD/svg11.dtd"><svg width="100%" height="100%" viewBox="0 0 342 237" version="1.1" xmlns="http://www.w3.org/2000/svg" xmlns:xlink="http://www.w3.org/1999/xlink" xml:space="preserve" xmlns:serif="http://www.serif.com/" style="fill-rule:evenodd;clip-rule:evenodd;stroke-miterlimit:10;"><g><path d="M312.663,225.6c0,2.9 -66.824,5.252 -149.255,5.252c-82.431,0 -149.254,-2.352 -149.254,-5.252c0,-2.9 66.823,-5.25 149.254,-5.25c82.431,0 149.255,2.35 149.255,5.25" style="fill:#e5ddd8;fill-rule:nonzero;"/><rect x="229.419" y="190.073" width="36.858" height="22.345"/><rect x="62.117" y="190.073" width="36.858" height="22.345"/><path d="M206.635,116.128l-126.188,0c-8.078,0 -14.627,6.549 -14.627,14.627l155.443,0c0,-8.078 -6.55,-14.627 -14.628,-14.627Z" style="fill:#e5ddd8;fill-rule:nonzero;stroke:#222c27;stroke-width:2px;"/><path d="M78.022,130.755l0,-8.103" style="fill:none;fill-rule:nonzero;stroke:#222c27;stroke-width:2px;stroke-linecap:round;stroke-linejoin:round;"/><path d="M80.47,130.755l0,-8.103" style="fill:none;fill-rule:nonzero;stroke:#222c27;stroke-width:2px;stroke-linecap:round;stroke-linejoin:round;"/><path d="M82.916,130.755l0,-8.103" style="fill:none;fill-rule:nonzero;stroke:#222c27;stroke-width:2px;stroke-linecap:round;stroke-linejoin:round;"/><path d="M85.363,130.755l0,-8.103" style="fill:none;fill-rule:nonzero;stroke:#222c27;stroke-width:2px;stroke-linecap:round;stroke-linejoin:round;"/><path d="M201.719,130.755l0,-8.103" style="fill:none;fill-rule:nonzero;stroke:#222c27;stroke-width:2px;stroke-linecap:round;stroke-linejoin:round;"/><path d="M204.165,130.755l0,-8.103" style="fill:none;fill-rule:nonzero;stroke:#222c27;stroke-width:2px;stroke-linecap:round;stroke-linejoin:round;"/><path d="M206.612,130.755l0,-8.103" style="fill:none;fill-rule:nonzero;stroke:#222c27;stroke-width:2px;stroke-linecap:round;stroke-linejoin:round;"/><path d="M209.06,130.755l0,-8.103" style="fill:none;fill-rule:nonzero;stroke:#222c27;stroke-width:2px;stroke-linecap:round;stroke-linejoin:round;"/><path d="M93.786,130.755l0,-14.627" style="fill:none;fill-rule:nonzero;stroke:#222c27;stroke-width:1px;"/><path d="M143.541,130.755l0,-14.627" style="fill:none;fill-rule:nonzero;stroke:#222c27;stroke-width:1px;"/><path d="M193.296,130.755l0,-14.627" style="fill:none;fill-rule:nonzero;stroke:#222c27;stroke-width:1px;"/><path d="M94.683,212.418c0,-7.807 -6.33,-14.136 -14.137,-14.136c-7.808,0 -14.137,6.329 -14.137,14.136c0,7.808 6.329,14.137 14.137,14.137c7.807,0 14.137,-6.329 14.137,-14.137" style="fill:#222c27;fill-rule:nonzero;"/><path d="M94.683,212.418c0,-7.802 -6.335,-14.136 -14.137,-14.136c-7.802,0 -14.137,6.334 -14.137,14.136c0,7.803 6.335,14.137 14.137,14.137c7.802,0 14.137,-6.334 14.137,-14.137Z" style="fill:none;stroke:#222c27;stroke-width:2px;"/><path d="M88.476,212.418c0,-4.379 -3.551,-7.93 -7.93,-7.93c-4.38,0 -7.931,3.551 -7.931,7.93c0,4.381 3.551,7.931 7.931,7.931c4.379,0 7.93,-3.55 7.93,-7.931" style="fill:#222c27;fill-rule:nonzero;"/><path d="M88.476,212.418c0,-4.377 -3.553,-7.93 -7.93,-7.93c-4.377,0 -7.931,3.553 -7.931,7.93c0,4.378 3.554,7.931 7.931,7.931c4.377,0 7.93,-3.553 7.93,-7.931Z" style="fill:none;stroke:#fa931b;stroke-width:2px;"/><path d="M90.131,212.418c0,-5.289 -4.295,-9.584 -9.585,-9.584c-5.29,0 -9.585,4.295 -9.585,9.584c0,5.29 4.295,9.585 9.585,9.585c5.29,0 9.585,-4.295 9.585,-9.585Z" style="fill:none;stroke:#e5ddd8;stroke-width:0.25px;"/><path d="M81.965,212.418c0,-0.783 -0.635,-1.419 -1.419,-1.419c-0.784,0 -1.419,0.636 -1.419,1.419c0,0.784 0.635,1.42 1.419,1.42c0.784,0 1.419,-0.636 1.419,-1.42" style="fill:#4e5652;fill-rule:nonzero;"/><path d="M81.211,208.494c0,-0.367 -0.298,-0.665 -0.665,-0.665c-0.367,0 -0.665,0.298 -0.665,0.665c0,0.367 0.298,0.664 0.665,0.664c0.367,0 0.665,-0.297 0.665,-0.664" style="fill:#4e5652;fill-rule:nonzero;"/><path d="M81.211,216.343c0,-0.367 -0.298,-0.664 -0.665,-0.664c-0.367,0 -0.665,0.297 -0.665,0.664c0,0.367 0.298,0.665 0.665,0.665c0.367,0 0.665,-0.298 0.665,-0.665" style="fill:#4e5652;fill-rule:nonzero;"/><path d="M76.621,211.754c-0.367,0 -0.665,0.298 -0.665,0.665c0,0.367 0.298,0.664 0.665,0.664c0.367,0 0.665,-0.297 0.665,-0.664c0,-0.367 -0.298,-0.665 -0.665,-0.665" style="fill:#4e5652;fill-rule:nonzero;"/><path d="M84.471,211.754c-0.367,0 -0.665,0.298 -0.665,0.665c0,0.367 0.298,0.664 0.665,0.664c0.367,0 0.665,-0.297 0.665,-0.664c0,-0.367 -0.298,-0.665 -0.665,-0.665" style="fill:#4e5652;fill-rule:nonzero;"/><path d="M78.241,209.173c-0.26,-0.259 -0.681,-0.259 -0.941,0c-0.259,0.26 -0.259,0.68 0,0.94c0.26,0.26 0.681,0.26 0.941,0c0.259,-0.26 0.259,-0.68 0,-0.94" style="fill:#4e5652;fill-rule:nonzero;"/><path d="M83.791,214.724c-0.259,-0.259 -0.68,-0.259 -0.939,0c-0.261,0.259 -0.261,0.68 0,0.94c0.259,0.26 0.68,0.26 0.939,0c0.26,-0.26 0.26,-0.681 0,-0.94" style="fill:#4e5652;fill-rule:nonzero;"/><path d="M77.3,214.724c-0.259,0.259 -0.259,0.68 0,0.94c0.26,0.26 0.681,0.26 0.941,0c0.259,-0.26 0.259,-0.681 0,-0.94c-0.26,-0.259 -0.681,-0.259 -0.941,0" style="fill:#4e5652;fill-rule:nonzero;"/><path d="M82.851,209.173c-0.259,0.26 -0.259,0.68 0,0.94c0.26,0.26 0.681,0.26 0.94,0c0.26,-0.26 0.26,-0.68 0,-0.94c-0.259,-0.259 -0.68,-0.259 -0.94,0" style="fill:#4e5652;fill-rule:nonzero;"/><path d="M261.605,212.418c0,-7.807 -6.329,-14.136 -14.137,-14.136c-7.807,0 -14.136,6.329 -14.136,14.136c0,7.808 6.329,14.137 14.136,14.137c7.808,0 14.137,-6.329 14.137,-14.137" style="fill:#222c27;fill-rule:nonzero;"/><path d="M261.605,212.418c0,-7.802 -6.335,-14.136 -14.137,-14.136c-7.802,0 -14.136,6.334 -14.136,14.136c0,7.803 6.334,14.137 14.136,14.137c7.802,0 14.137,-6.334 14.137,-14.137Z" style="fill:none;stroke:#222c27;stroke-width:2px;"/><path d="M255.399,212.418c0,-4.379 -3.551,-7.93 -7.931,-7.93c-4.38,0 -7.93,3.551 -7.93,7.93c0,4.381 3.55,7.931 7.93,7.931c4.38,0 7.931,-3.55 7.931,-7.931" style="fill:#222c27;fill-rule:nonzero;"/><path d="M255.399,212.418c0,-4.377 -3.554,-7.93 -7.931,-7.93c-4.377,0 -7.93,3.553 -7.93,7.93c0,4.378 3.553,7.931 7.93,7.931c4.377,0 7.931,-3.553 7.931,-7.931Z" style="fill:none;stroke:#fa931b;stroke-width:2px;"/><path d="M257.054,212.418c0,-5.289 -4.296,-9.584 -9.586,-9.584c-5.29,0 -9.585,4.295 -9.585,9.584c0,5.29 4.295,9.585 9.585,9.585c5.29,0 9.586,-4.295 9.586,-9.585Z" style="fill:none;stroke:#e5ddd8;stroke-width:0.25px;"/><path d="M248.887,212.418c0,-0.783 -0.635,-1.419 -1.419,-1.419c-0.783,0 -1.419,0.636 -1.419,1.419c0,0.784 0.636,1.42 1.419,1.42c0.784,0 1.419,-0.636 1.419,-1.42" style="fill:#4e5652;fill-rule:nonzero;"/><path d="M248.133,208.494c0,-0.367 -0.297,-0.665 -0.664,-0.665c-0.368,0 -0.666,0.298 -0.666,0.665c0,0.367 0.298,0.664 0.666,0.664c0.367,0 0.664,-0.297 0.664,-0.664" style="fill:#4e5652;fill-rule:nonzero;"/><path d="M248.133,216.343c0,-0.367 -0.297,-0.664 -0.664,-0.664c-0.368,0 -0.666,0.297 -0.666,0.664c0,0.367 0.298,0.665 0.666,0.665c0.367,0 0.664,-0.298 0.664,-0.665" style="fill:#4e5652;fill-rule:nonzero;"/><path d="M243.543,211.754c-0.367,0 -0.665,0.298 -0.665,0.665c0,0.367 0.298,0.664 0.665,0.664c0.367,0 0.665,-0.297 0.665,-0.664c0,-0.367 -0.298,-0.665 -0.665,-0.665" style="fill:#4e5652;fill-rule:nonzero;"/><path d="M251.393,211.754c-0.367,0 -0.665,0.298 -0.665,0.665c0,0.367 0.298,0.664 0.665,0.664c0.367,0 0.665,-0.297 0.665,-0.664c0,-0.367 -0.298,-0.665 -0.665,-0.665" style="fill:#4e5652;fill-rule:nonzero;"/><path d="M245.163,209.173c-0.259,-0.259 -0.681,-0.259 -0.94,0c-0.26,0.26 -0.26,0.68 0,0.94c0.259,0.26 0.681,0.26 0.94,0c0.26,-0.26 0.26,-0.68 0,-0.94" style="fill:#4e5652;fill-rule:nonzero;"/><path d="M250.714,214.724c-0.26,-0.259 -0.681,-0.259 -0.941,0c-0.259,0.259 -0.259,0.68 0,0.94c0.26,0.26 0.681,0.26 0.941,0c0.259,-0.26 0.259,-0.681 0,-0.94" style="fill:#4e5652;fill-rule:nonzero;"/><path d="M244.223,214.724c-0.26,0.259 -0.26,0.68 0,0.94c0.259,0.26 0.681,0.26 0.94,0c0.26,-0.26 0.26,-0.681 0,-0.94c-0.259,-0.259 -0.681,-0.259 -0.94,0" style="fill:#4e5652;fill-rule:nonzero;"/><path d="M249.773,209.173c-0.258,0.26 -0.258,0.68 0,0.94c0.259,0.26 0.681,0.26 0.94,0c0.261,-0.26 0.261,-0.68 0,-0.94c-0.259,-0.259 -0.681,-0.259 -0.94,0" style="fill:#4e5652;fill-rule:nonzero;"/><path d="M10.281,137.333c-0.146,0.624 -0.231,1.271 -0.231,1.94l0,66.932l44.892,6.214l7.615,0c0,-9.91 8.033,-17.943 17.942,-17.943c9.91,0 17.943,8.033 17.943,17.943l130.976,0c0,-9.91 8.034,-17.943 17.943,-17.943c9.91,0 17.943,8.033 17.943,17.943l49.867,0c1.486,0 2.691,-1.206 2.691,-2.692l0,-70.454c0,-0.669 -0.085,-1.316 -0.23,-1.94l-307.351,0Z" style="fill:#1b85fa;fill-rule:nonzero;stroke:#222c27;stroke-width:2px;"/><path d="M309.344,130.755l-290.777,0c-4.035,0 -7.407,2.81 -8.286,6.578l307.35,0c-0.879,-3.768 -4.251,-6.578 -8.287,-6.578Z" style="fill:#f1f7ed;fill-rule:nonzero;stroke:#222c27;stroke-width:2px;"/><rect x="10.806" y="178.927" width="265.326" height="8.564" style="fill:#f1f7ed;"/><path d="M52.095,175.665l-34.203,0c-2.079,0 -3.764,-1.685 -3.764,-3.764l0,-22.648c0,-2.079 1.685,-3.764 3.764,-3.764l34.203,0c2.078,0 3.764,1.685 3.764,3.764l0,22.648c0,2.079 -1.686,3.764 -3.764,3.764Z" style="fill:#1f3d4b;fill-rule:nonzero;stroke:#222c27;stroke-width:2px;"/><path d="M14.969,158.792l12.452,-12.452l4.498,0l-16.969,16.97l0.019,-4.518Z" style="fill:#51787f;fill-rule:nonzero;"/><path d="M18.206,174.875l33.616,0c1.788,0 3.238,-1.449 3.238,-3.237l0,-22.094c0,-1.787 -1.45,-3.237 -3.238,-3.237l-7.994,0l-27.819,27.819c0,0 0.621,0.749 2.197,0.749" style="fill:#51787f;fill-rule:nonzero;"/><path d="M14.969,154.052l40.09,0" style="fill:none;fill-rule:nonzero;stroke:#e5ddd8;stroke-width:1px;"/><path d="M34.993,154.052l0,20.823" style="fill:none;fill-rule:nonzero;stroke:#e5ddd8;stroke-width:1px;"/><path d="M97.903,175.665l-34.203,0c-2.078,0 -3.763,-1.685 -3.763,-3.764l0,-22.648c0,-2.079 1.685,-3.764 3.763,-3.764l34.203,0c2.079,0 3.764,1.685 3.764,3.764l0,22.648c0,2.079 -1.685,3.764 -3.764,3.764Z" style="fill:#1f3d4b;fill-rule:nonzero;stroke:#222c27;stroke-width:2px;"/><path d="M60.766,158.792l12.452,-12.452l4.498,0l-16.968,16.97l0.018,-4.518Z" style="fill:#51787f;fill-rule:nonzero;"/><path d="M64.004,174.875l33.615,0c1.789,0 3.238,-1.449 3.238,-3.237l0,-22.094c0,-1.787 -1.449,-3.237 -3.238,-3.237l-7.993,0l-27.82,27.819c0,0 0.621,0.749 2.198,0.749" style="fill:#51787f;fill-rule:nonzero;"/><path d="M60.82,154.052l40.014,0" style="fill:none;fill-rule:nonzero;stroke:#e5ddd8;stroke-width:1px;"/><path d="M80.802,154.052l0,20.823" style="fill:none;fill-rule:nonzero;stroke:#e5ddd8;stroke-width:1px;"/><path d="M177.49,175.665l-34.203,0c-2.079,0 -3.764,-1.685 -3.764,-3.764l0,-22.648c0,-2.079 1.685,-3.764 3.764,-3.764l34.203,0c2.078,0 3.763,1.685 3.763,3.764l0,22.648c0,2.079 -1.685,3.764 -3.763,3.764Z" style="fill:#1f3d4b;fill-rule:nonzero;stroke:#222c27;stroke-width:2px;"/><path d="M140.352,158.792l12.452,-12.452l4.498,0l-16.969,16.97l0.019,-4.518Z" style="fill:#51787f;fill-rule:nonzero;"/><path d="M143.59,174.875l33.616,0c1.787,0 3.237,-1.449 3.237,-3.237l0,-22.094c0,-1.787 -1.45,-3.237 -3.237,-3.237l-7.994,0l-27.819,27.819c0,0 0.62,0.749 2.197,0.749" style="fill:#51787f;fill-rule:nonzero;"/><path d="M140.304,154.052l40.099,0" style="fill:none;fill-rule:nonzero;stroke:#e5ddd8;stroke-width:1px;"/><path d="M160.388,154.052l0,20.823" style="fill:none;fill-rule:nonzero;stroke:#e5ddd8;stroke-width:1px;"/><path d="M223.298,175.665l-34.203,0c-2.078,0 -3.764,-1.685 -3.764,-3.764l0,-22.648c0,-2.079 1.686,-3.764 3.764,-3.764l34.203,0c2.079,0 3.764,1.685 3.764,3.764l0,22.648c0,2.079 -1.685,3.764 -3.764,3.764Z" style="fill:#1f3d4b;fill-rule:nonzero;stroke:#222c27;stroke-width:2px;"/><path d="M186.161,158.792l12.452,-12.452l4.498,0l-16.969,16.97l0.019,-4.518Z" style="fill:#51787f;fill-rule:nonzero;"/><path d="M189.398,174.875l33.617,0c1.787,0 3.237,-1.449 3.237,-3.237l0,-22.094c0,-1.787 -1.45,-3.237 -3.237,-3.237l-7.995,0l-27.818,27.819c0,0 0.62,0.749 2.196,0.749" style="fill:#51787f;fill-rule:nonzero;"/><path d="M186.112,154.052l40.167,0" style="fill:none;fill-rule:nonzero;stroke:#e5ddd8;stroke-width:1px;"/><path d="M206.196,154.052l0,20.823" style="fill:none;fill-rule:nonzero;stroke:#e5ddd8;stroke-width:1px;"/><path d="M269.106,175.665l-34.202,0c-2.078,0 -3.764,-1.685 -3.764,-3.764l0,-22.648c0,-2.079 1.686,-3.764 3.764,-3.764l34.202,0c2.079,0 3.764,1.685 3.764,3.764l0,22.648c0,2.079 -1.685,3.764 -3.764,3.764Z" style="fill:#1f3d4b;fill-rule:nonzero;stroke:#222c27;stroke-width:2px;"/><path d="M231.97,158.792l12.452,-12.452l4.498,0l-16.969,16.97l0.019,-4.518Z" style="fill:#51787f;fill-rule:nonzero;"/><path d="M235.207,174.875l33.616,0c1.788,0 3.238,-1.449 3.238,-3.237l0,-22.094c0,-1.787 -1.45,-3.237 -3.238,-3.237l-7.994,0l-27.819,27.819c0,0 0.62,0.749 2.197,0.749" style="fill:#51787f;fill-rule:nonzero;"/><path d="M231.937,154.052l40.065,0" style="fill:none;fill-rule:nonzero;stroke:#e5ddd8;stroke-width:1px;"/><path d="M252.006,154.052l0,20.823" style="fill:none;fill-rule:nonzero;stroke:#e5ddd8;stroke-width:1px;"/><path d="M308.721,208.341l-39.717,0c-1.919,-10.201 -10.894,-17.943 -21.642,-17.943c-10.749,0 -19.724,7.742 -21.643,17.943l-123.577,0c-1.919,-10.201 -10.894,-17.943 -21.643,-17.943c-8.843,0 -16.485,5.24 -19.986,12.778l-50.232,0" style="fill:none;fill-rule:nonzero;stroke:#222c27;stroke-width:1px;"/><path d="M10.05,141.411l307.812,0" style="fill:none;fill-rule:nonzero;stroke:#222c27;stroke-width:1px;"/><path d="M308.721,141.411l0,71.007" style="fill:none;fill-rule:nonzero;stroke:#222c27;stroke-width:1px;"/><path d="M308.721,179.811l8.911,0" style="fill:none;fill-rule:nonzero;stroke:#222c27;stroke-width:1px;"/><path d="M222.4,195.34l2.785,0c0.602,0 1.094,-0.492 1.094,-1.095c0,-0.602 -0.492,-1.094 -1.094,-1.094l-2.785,0c-0.602,0 -1.096,0.492 -1.096,1.094c0,0.603 0.494,1.095 1.096,1.095Z" style="fill:#e5ddd8;fill-rule:nonzero;stroke:#222c27;stroke-width:1px;"/><path d="M56.648,195.34l2.785,0c0.602,0 1.094,-0.492 1.094,-1.095c0,-0.602 -0.492,-1.094 -1.094,-1.094l-2.785,0c-0.602,0 -1.095,0.492 -1.095,1.094c0,0.603 0.493,1.095 1.095,1.095Z" style="fill:#e5ddd8;fill-rule:nonzero;stroke:#222c27;stroke-width:1px;"/><path d="M314.735,197.005l3.127,0l0,-10.602l-3.127,0c-0.694,0 -1.256,0.563 -1.256,1.257l0,8.089c0,0.694 0.562,1.256 1.256,1.256Z" style="fill:#e5ddd8;fill-rule:nonzero;stroke:#222c27;stroke-width:2px;"/><path d="M13.408,186.403l-3.127,0l0,4.926l3.127,0c0.694,0 1.256,-0.562 1.256,-1.256l0,-2.414c0,-0.694 -0.562,-1.256 -1.256,-1.256Z" style="fill:#e5ddd8;fill-rule:nonzero;stroke:#222c27;stroke-width:2px;"/><path d="M318.556,200.234l-3.919,0c-0.64,0 -1.159,0.519 -1.159,1.159l0,9.867c0,0.64 0.519,1.159 1.159,1.159l5.078,0l0,-11.026c0,-0.64 -0.519,-1.159 -1.159,-1.159Z" style="fill:#fa931b;fill-rule:nonzero;stroke:#222c27;stroke-width:2px;"/><path d="M11.209,194.245l3.919,0c0.639,0 1.159,0.519 1.159,1.159l0,9.867c0,0.64 -0.52,1.159 -1.159,1.159l-5.078,0l0,-11.026c0,-0.64 0.519,-1.159 1.159,-1.159Z" style="fill:#fa931b;fill-rule:nonzero;stroke:#222c27;stroke-width:2px;"/><path d="M305.832,207.778l-29.699,0l0,-59.564c0,-1.505 1.22,-2.725 2.725,-2.725l24.249,0c1.506,0 2.725,1.22 2.725,2.725l0,59.564Z" style="fill:#1bc7fa;fill-rule:nonzero;stroke:#222c27;stroke-width:2px;"/><path d="M290.983,145.489l0,62.289" style="fill:none;fill-rule:nonzero;stroke:#222c27;stroke-width:2px;"/><path d="M276.133,204.923l29.699,0" style="fill:none;fill-rule:nonzero;stroke:#222c27;stroke-width:1px;"/><path d="M279.395,190.53l0,-40.33c0,-0.801 0.649,-1.449 1.449,-1.449l5.429,0c0.799,0 1.447,0.648 1.447,1.449l0,40.33c0,0.8 -0.648,1.448 -1.447,1.448l-5.429,0c-0.8,0 -1.449,-0.648 -1.449,-1.448Z" style="fill:#1f3d4b;fill-rule:nonzero;stroke:#222c27;stroke-width:2px;"/><path d="M294.279,190.53l0,-40.33c0,-0.801 0.65,-1.449 1.449,-1.449l5.429,0c0.799,0 1.448,0.648 1.448,1.449l0,40.33c0,0.8 -0.649,1.448 -1.448,1.448l-5.429,0c-0.799,0 -1.449,-0.648 -1.449,-1.448Z" style="fill:#1f3d4b;fill-rule:nonzero;stroke:#222c27;stroke-width:2px;"/><path d="M280.209,171.804l6.601,-6.601l0,4.154l-6.614,6.614l0.013,-4.167Z" style="fill:#51787f;fill-rule:nonzero;"/><path d="M286.897,173.343l-6.688,6.688l-0.012,10.367l6.709,-6.708l-0.009,-10.347Z" style="fill:#51787f;fill-rule:nonzero;"/><path d="M295.101,156.838l6.601,-6.601l0,4.154l-6.615,6.614l0.014,-4.167Z" style="fill:#51787f;fill-rule:nonzero;"/><path d="M301.788,158.377l-6.687,6.688l-0.013,10.367l6.709,-6.709l-0.009,-10.346Z" style="fill:#51787f;fill-rule:nonzero;"/><path d="M135.445,207.829l-29.7,0l0,-59.611c0,-1.507 1.222,-2.729 2.73,-2.729l24.241,0c1.507,0 2.729,1.222 2.729,2.729l0,59.611Z" style="fill:#1bd4fa;fill-rule:nonzero;stroke:#222c27;stroke-width:2px;"/><path d="M120.595,145.489l0,62.34" style="fill:none;fill-rule:nonzero;stroke:#222c27;stroke-width:2px;"/><path d="M105.745,204.923l29.7,0" style="fill:none;fill-rule:nonzero;stroke:#222c27;stroke-width:1px;"/><path d="M109.008,190.53l0,-40.33c0,-0.801 0.648,-1.449 1.448,-1.449l5.429,0c0.799,0 1.448,0.648 1.448,1.449l0,40.33c0,0.8 -0.649,1.448 -1.448,1.448l-5.429,0c-0.8,0 -1.448,-0.648 -1.448,-1.448Z" style="fill:#1f3d4b;fill-rule:nonzero;stroke:#222c27;stroke-width:2px;"/><path d="M123.892,190.53l0,-40.33c0,-0.801 0.649,-1.449 1.448,-1.449l5.429,0c0.799,0 1.449,0.648 1.449,1.449l0,40.264c0,0.8 -0.65,1.448 -1.449,1.448l-5.429,0.066c-0.799,0 -1.448,-0.648 -1.448,-1.448Z" style="fill:#1f3d4b;fill-rule:nonzero;stroke:#222c27;stroke-width:2px;"/><path d="M109.808,171.804l6.601,-6.601l0,4.154l-6.614,6.614l0.013,-4.167Z" style="fill:#51787f;fill-rule:nonzero;"/><path d="M116.495,173.343l-6.687,6.688l-0.013,10.367l6.709,-6.708l-0.009,-10.347Z" style="fill:#51787f;fill-rule:nonzero;"/><path d="M124.699,156.838l6.601,-6.601l0,4.154l-6.614,6.614l0.013,-4.167Z" style="fill:#51787f;fill-rule:nonzero;"/><path d="M131.386,158.377l-6.687,6.688l-0.012,10.367l6.708,-6.709l-0.009,-10.346Z" style="fill:#51787f;fill-rule:nonzero;"/><path d="M317.862,175.665l-4.094,0c-1.004,0 -1.819,-0.815 -1.819,-1.82l0,-26.537c0,-1.004 0.815,-1.819 1.819,-1.819l4.094,0l0,30.176Z" style="fill:#1f3d4b;fill-rule:nonzero;stroke:#222c27;stroke-width:2px;"/><path d="M312.78,152.83l4.264,-4.265l0,4.256l-4.264,4.266l0,-4.257Z" style="fill:#51787f;fill-rule:nonzero;"/><path d="M317.041,160.95l-4.26,4.261l0,8.622c0,0.576 0.467,1.042 1.043,1.042l3.217,0l0,-13.925Z" style="fill:#51787f;fill-rule:nonzero;"/><path d="M330.445,148.735l-2.447,0l0,-4.188c0,-1.514 -1.231,-2.745 -2.744,-2.745l-7.392,0l0,-2.446l7.392,0c2.863,0 5.191,2.328 5.191,5.191l0,4.188Z" style="fill:#fa931b;fill-rule:nonzero;stroke:#222c27;stroke-width:2px;"/><path d="M327.52,163.5l-1.055,0l0,-15.912l1.055,0c1.955,0 3.539,1.584 3.539,3.539l0,8.834c0,1.954 -1.584,3.539 -3.539,3.539Z" style="fill:#222c27;fill-rule:nonzero;stroke:#222c27;stroke-width:2px;"/></g><path d="M257.054,70.582c0,38.981 -70.582,141.836 -70.582,141.836c0,0 -70.582,-102.855 -70.582,-141.836c0,-38.982 31.601,-70.582 70.582,-70.582c38.981,0 70.582,31.6 70.582,70.582Z" style="fill:#bd242b;fill-rule:nonzero;"/><path d="M169.827,185.423c9.617,16.114 16.645,26.995 16.645,26.995c0,0 70.582,-102.855 70.582,-141.836c0,-2.047 -0.107,-4.068 -0.278,-6.071c-2.785,10.83 -6.723,21.374 -11.557,31.437c-13.36,27.81 -33.117,45.629 -54.161,68.19c-6.783,7.273 -13.844,14.466 -21.231,21.285Z" style="fill:#ac262b;fill-rule:nonzero;"/><path d="M219.649,67.471c0,18.324 -14.854,33.177 -33.177,33.177c-18.323,0 -33.178,-14.853 -33.178,-33.177c0,-18.323 14.855,-33.178 33.178,-33.178c18.323,0 33.177,14.855 33.177,33.178Z" style="fill:#fff;fill-rule:nonzero;"/><path d="M127.987,76.781c0,-33.863 27.451,-61.314 61.314,-61.314c19.793,0 37.392,9.381 48.603,23.937c-10.588,-18.38 -30.432,-30.754 -53.167,-30.754c-33.863,0 -61.314,27.451 -61.314,61.314c0,14.069 4.742,27.029 12.711,37.376c-5.182,-8.996 -8.147,-19.431 -8.147,-30.559Z" style="fill:#cd4a45;fill-rule:nonzero;"/></svg>