<?xml version="1.0" encoding="UTF-8" standalone="no"?><!DOCTYPE svg PUBLIC "-//W3C//DTD SVG 1.1//EN" "http://www.w3.org/Graphics/SVG/1.1/DTD/svg11.dtd"><svg width="100%" height="100%" viewBox="0 0 195 99" version="1.1" xmlns="http://www.w3.org/2000/svg" xmlns:xlink="http://www.w3.org/1999/xlink" xml:space="preserve" xmlns:serif="http://www.serif.com/" style="fill-rule:evenodd;clip-rule:evenodd;stroke-miterlimit:10;"><rect id="Prancheta3" x="0" y="0" width="194.183" height="98.465" style="fill:none;"/><clipPath id="_clip1"><rect x="0" y="0" width="194.183" height="98.465"/></clipPath><g clip-path="url(#_clip1)"><g><path d="M124.146,19.85l39.505,0.164c0,0 -3.742,-8.559 -11.735,-8.563c-6.096,-0.004 -6.367,3.793 -10.025,4.877c-3.657,1.083 -11.378,-5.554 -17.745,3.522" style="fill:#ececec;fill-rule:nonzero;"/><path d="M61.67,6.093l28.658,0.119c0,0 -2.715,-6.209 -8.514,-6.212c-4.421,-0.002 -4.618,2.751 -7.271,3.538c-2.653,0.786 -8.255,-4.029 -12.873,2.555" style="fill:#ececec;fill-rule:nonzero;"/><path d="M157.567,77.845c-2.281,-4.242 -7.39,-7.213 -12.003,-5.826c0.502,-4.529 -2.006,-9.244 -6.042,-11.357c-2.454,-1.285 -5.376,-1.556 -8.062,-0.9l0,38.452l25.16,0l2.289,-6.266c0.9,-4.731 0.939,-9.861 -1.342,-14.103" style="fill:#ececec;fill-rule:nonzero;"/><path d="M164.726,87.434c-1.295,-0.141 -2.61,-0.023 -3.858,0.401c0.218,-4.189 -1.989,-8.419 -5.55,-10.636c-3.562,-2.217 -8.331,-2.33 -11.994,-0.286c-0.431,-2.826 -2.369,-5.377 -4.976,-6.55c-2.155,-0.97 -4.71,-0.97 -6.888,-0.065l0,27.641l41.907,0l0,-0.676c0,-4.983 -3.688,-9.289 -8.641,-9.829" style="fill:#e1e1e1;fill-rule:nonzero;"/><path d="M14.312,98.162c-1.124,-3.431 -0.719,-7.333 1.087,-10.46c1.806,-3.126 4.982,-5.428 8.516,-6.17c0.046,-5.469 3.335,-10.788 8.208,-13.273c4.872,-2.484 11.109,-2.022 15.563,1.153l0.963,28.832l-34.337,-0.082Z" style="fill:#e1e1e1;fill-rule:nonzero;"/><path d="M178.341,98.297c0,0.036 -36.625,0.065 -81.793,0.065c-45.184,0 -81.8,-0.029 -81.8,-0.065c0,-0.036 36.616,-0.065 81.8,-0.065c45.168,0 81.793,0.029 81.793,0.065" style="fill:#1a2e35;fill-rule:nonzero;"/><path d="M131.253,86.235l-96.69,0l0,-50.224l96.116,0c0,0 0.574,50.791 0.574,50.224" style="fill:#f5f5f5;fill-rule:nonzero;"/><path d="M95.611,38.99l0,22.488l16.735,0l0,-22.492c0,0 -16.735,0.186 -16.735,0.004" style="fill:#e1e1e1;fill-rule:nonzero;"/><path d="M95.611,39.037l0,3.499l16.741,0.102l0,-3.648l-16.741,0.047Z" style="fill:#375a64;fill-rule:nonzero;"/><path d="M101.665,40.6l0,0.684l5.36,0l0,-0.593c0,0 -5.223,-0.091 -5.36,-0.091" style="fill:#fff;fill-rule:nonzero;"/><rect x="96.544" y="44.146" width="5.241" height="5.619" style="fill:#fff;"/><path d="M101.052,55.65c0,0 0.08,-0.004 0.232,-0.006c0.165,-0.001 0.386,-0.003 0.664,-0.005c0.59,-0.002 1.42,-0.005 2.436,-0.009l-0.02,0.02c-0.001,-1.675 -0.004,-3.884 -0.006,-6.301c0,-0.48 0,-0.952 0,-1.41l0,-0.025l0.026,0c1.831,0.002 3.489,0.004 4.818,0.006l-0.02,0.019c0.017,-1.038 0.031,-1.886 0.042,-2.489c0.006,-0.285 0.01,-0.512 0.014,-0.68c0.004,-0.156 0.009,-0.238 0.009,-0.238c0,0 0.003,0.082 0.003,0.238c-0.001,0.168 -0.003,0.395 -0.004,0.68c-0.006,0.604 -0.014,1.452 -0.025,2.49l0,0.019l-0.019,0c-1.329,0.002 -2.987,0.004 -4.818,0.006l0.026,-0.026c0,0.458 0,0.93 0,1.41c-0.002,2.417 -0.005,4.626 -0.007,6.301l0,0.02l-0.019,0c-1.016,-0.004 -1.846,-0.007 -2.436,-0.009c-0.278,-0.002 -0.499,-0.004 -0.664,-0.005c-0.152,-0.002 -0.232,-0.006 -0.232,-0.006" style="fill:#ff4f5b;fill-rule:nonzero;"/><path d="M110.917,57.315c0,0 -0.139,0.005 -0.397,0.007c-0.271,0.001 -0.648,0.003 -1.122,0.006c-0.978,0.002 -2.355,0.005 -4.003,0.009l-0.022,0l0,-0.022c-0.001,-1.616 -0.002,-3.52 -0.004,-5.552c0.001,-0.894 0.001,-1.763 0.001,-2.593l0,-0.026l0.025,0c1.192,0.002 2.305,0.003 3.305,0.004l-0.022,0.022c0.004,-1.55 0.007,-2.841 0.009,-3.757c0.003,-0.443 0.005,-0.795 0.006,-1.049c0.002,-0.242 0.007,-0.37 0.007,-0.37c0,0 0.005,0.128 0.007,0.37c0.001,0.254 0.003,0.606 0.006,1.049c0.002,0.916 0.005,2.207 0.009,3.757l0,0.022l-0.022,0c-1,0.001 -2.113,0.002 -3.305,0.003l0.026,-0.025c0,0.83 0,1.699 0.001,2.593c-0.002,2.032 -0.003,3.936 -0.004,5.552l-0.023,-0.023c1.648,0.004 3.025,0.007 4.003,0.01c0.474,0.002 0.851,0.004 1.122,0.006c0.258,0.002 0.397,0.007 0.397,0.007" style="fill:#1a2e35;fill-rule:nonzero;"/><path d="M96.577,51.023l0,0.528l4.24,0l0,-0.633l-4.24,0.105Z" style="fill:#fff;fill-rule:nonzero;"/><path d="M96.544,51.912l0,0.528l4.24,0l0,-0.633l-4.24,0.105Z" style="fill:#fff;fill-rule:nonzero;"/><path d="M28.362,12.688l0,16.425l108.241,0l0,-16.227c0,0 -108.637,-0.593 -108.241,-0.198" style="fill:#1a2e35;fill-rule:nonzero;"/><path d="M116.656,27.713l0.014,70.584l1.702,0l0.014,-70.186c0,0 -2.014,-0.398 -1.73,-0.398" style="fill:#1a2e35;fill-rule:nonzero;"/><path d="M128.602,28.242l0.283,69.918l3.405,0l0,-10.073l0,-59.845c0,0 -3.972,-0.296 -3.688,0" style="fill:#1a2e35;fill-rule:nonzero;"/><path d="M28.362,20.25l0,3.896l108.241,0l0,-4.132c0,0 -107.956,0.236 -108.241,0.236" style="fill:#ff4f5b;fill-rule:nonzero;"/><path d="M31.571,27.291l0.283,71.025l3.406,0l0,-10.232l0,-60.793c0,0 -3.973,-0.301 -3.689,0" style="fill:#1a2e35;fill-rule:nonzero;"/><path d="M47.165,28.959l0,69.396l1.702,0l0,-69.719c0,0 -1.986,0.323 -1.702,0.323" style="fill:#1a2e35;fill-rule:nonzero;"/><path d="M36.519,38.385l0.098,45.32l9.276,0l-0.185,-45.32l-9.189,0Z" style="fill:#ff4f5b;fill-rule:nonzero;"/><rect x="74.521" y="79.643" width="1.746" height="18.543" style="fill:#1a2e35;"/><path d="M96.135,79.767l-42.386,0c-0.804,0 -1.455,-0.651 -1.455,-1.455c0,-0.804 0.651,-1.455 1.455,-1.455l42.386,0c0.804,0 1.455,0.651 1.455,1.455c0,0.804 -0.651,1.455 -1.455,1.455" style="fill:#375a64;fill-rule:nonzero;"/><rect x="168.83" y="38.34" width="2.24" height="59.957" style="fill:#1a2e35;"/><rect x="160.861" y="21.666" width="19.636" height="16.675" style="fill:#ff4f5b;"/><rect x="162.325" y="22.742" width="16.934" height="14.381" style="fill:none;stroke:#fff;stroke-width:0.75px;"/><path d="M164.842,27.383l-0.042,5.076l12.54,0l0,-1.927c0,-0.582 -0.472,-1.054 -1.054,-1.054c-0.582,0 -1.054,-0.471 -1.054,-1.053l0,-1.074c0,-0.584 -0.469,-1.056 -1.053,-1.054c-1.997,0.01 -6.314,0.032 -8.296,0.041c-0.577,0.003 -1.036,0.469 -1.041,1.045" style="fill:#fff;fill-rule:nonzero;"/><path d="M176.517,32.46c0,0.654 -0.529,1.184 -1.183,1.184c-0.654,0 -1.183,-0.53 -1.183,-1.184c0,-0.653 0.529,-1.183 1.183,-1.183c0.654,0 1.183,0.53 1.183,1.183" style="fill:#ff4f5b;fill-rule:nonzero;"/><path d="M176.145,32.471c0,0.456 -0.37,0.826 -0.827,0.826c-0.456,0 -0.826,-0.37 -0.826,-0.826c0,-0.457 0.37,-0.827 0.826,-0.827c0.457,0 0.827,0.37 0.827,0.827" style="fill:#fff;fill-rule:nonzero;"/><path d="M168.169,32.283c0,0.653 -0.53,1.183 -1.184,1.183c-0.653,0 -1.183,-0.53 -1.183,-1.183c0,-0.654 0.53,-1.183 1.183,-1.183c0.654,0 1.184,0.529 1.184,1.183" style="fill:#ff4f5b;fill-rule:nonzero;"/><path d="M167.796,32.293c0,0.457 -0.37,0.827 -0.827,0.827c-0.456,0 -0.826,-0.37 -0.826,-0.827c0,-0.456 0.37,-0.826 0.826,-0.826c0.457,0 0.827,0.37 0.827,0.826" style="fill:#fff;fill-rule:nonzero;"/><path d="M165.35,27.735l0,1.713l1.166,0l0,-1.713c0,0 -1.166,-0.049 -1.166,0" style="fill:#ff4f5b;fill-rule:nonzero;"/><path d="M167.038,27.735l0,1.713l1.166,0l0,-1.713c0,0 -1.166,-0.049 -1.166,0" style="fill:#ff4f5b;fill-rule:nonzero;"/><path d="M168.725,27.735l0,1.713l1.167,0l0,-1.713c0,0 -1.167,-0.049 -1.167,0" style="fill:#ff4f5b;fill-rule:nonzero;"/><path d="M170.513,27.735l0,1.713l1.166,0l0,-1.713c0,0 -1.166,-0.049 -1.166,0" style="fill:#ff4f5b;fill-rule:nonzero;"/><path d="M172.176,27.735l0,1.713l1.166,0l0,-1.713c0,0 -1.166,-0.049 -1.166,0" style="fill:#ff4f5b;fill-rule:nonzero;"/><path d="M173.963,27.735l0,1.713l1.166,0l0,-1.713c0,0 -1.166,-0.049 -1.166,0" style="fill:#ff4f5b;fill-rule:nonzero;"/><path d="M172.451,52.566c-0.282,-0.159 -1.431,1.052 -1.371,0.68c0.059,-0.372 1.618,-1.354 1.314,-1.511c-0.396,-0.204 -1.569,1.082 -1.679,1.185c-0.106,0.1 -0.298,-0.017 -0.193,-0.106c0.151,-0.128 1.693,-1.502 1.306,-1.705c-0.215,-0.113 -0.439,0.215 -0.439,0.215c0,0 -1.325,1.369 -1.504,1.268c-0.181,-0.103 0.563,-0.927 0.839,-1.191c0.272,-0.261 0.229,-0.468 -0.015,-0.466c-0.166,0.001 -1.033,0.794 -1.298,1.06c-0.265,0.266 -0.975,1.005 -0.993,0.418c-0.019,-0.587 -0.311,-1.029 -0.496,-1.104c-0.184,-0.075 -0.386,0.104 -0.285,0.267c0.082,0.131 0.132,0.384 0.16,0.576c0.02,0.139 0.013,0.279 -0.018,0.417c-0.663,0.547 -5.413,4.445 -5.965,4.28c-0.593,-0.179 -2.87,-7.601 -2.87,-7.601l-2.329,6.762c0,0 1.633,4.883 4.656,4.934c3.628,0.062 8.783,-6.469 8.784,-6.469c0.684,-0.416 1.416,-0.88 1.785,-1.172c0.784,-0.622 0.717,-0.678 0.611,-0.737" style="fill:#c88976;fill-rule:nonzero;"/><path d="M157.895,56.314l3.235,-2.104c0,0 -1.6,-6.588 -4.258,-6.8l-0.257,2.413l1.28,6.491Z" style="fill:#ff4f5b;fill-rule:nonzero;"/><path d="M150.563,65.167c0.207,0.29 1.841,12.404 1.841,12.404l-10.983,10.756l2.573,2.724c0,0 12.922,-10.89 13.185,-12.137c0.315,-1.49 -0.564,-12.866 -0.564,-12.866l-6.052,-0.881Z" style="fill:#b66955;fill-rule:nonzero;"/><path d="M150.761,71.81l2.386,0l-3.095,-4.904l0.709,4.904Z" style="fill:#1a2e35;fill-rule:nonzero;"/><path d="M149.907,41.574c-0.063,1.317 -1.022,2.386 -2.216,2.677c-0.628,0.154 -1.35,0.081 -1.848,0.503c-0.853,0.724 -0.354,2.223 -0.929,3.193c-0.354,0.597 -1.056,0.89 -1.455,1.456c-0.661,0.942 -0.217,2.365 0.685,3.066c0.903,0.701 2.105,0.835 3.236,0.806c2.488,-0.065 5.036,-0.855 6.834,-2.619c0.844,-0.828 3.583,-3.977 2.34,-8.517" style="fill:#1a2e35;fill-rule:nonzero;"/><path d="M155.574,47.426c-0.065,-0.347 -0.111,-2.22 -0.111,-2.22c0,0 1.3,-0.164 1.356,-1.491c0.056,-1.328 -0.076,-4.384 -0.076,-4.384l-2.393,-1.15l-2.576,2.075l0.447,6.744l3.353,0.426Z" style="fill:#c88976;fill-rule:nonzero;"/><path d="M156.523,41.564c0.001,0.094 -0.071,0.171 -0.163,0.173c-0.091,0.001 -0.166,-0.073 -0.168,-0.167c-0.002,-0.094 0.071,-0.171 0.162,-0.173c0.092,-0.001 0.167,0.073 0.169,0.167" style="fill:#1a2e35;fill-rule:nonzero;"/><path d="M156.68,41.376c-0.021,0.023 -0.145,-0.082 -0.324,-0.088c-0.178,-0.01 -0.31,0.083 -0.329,0.059c-0.009,-0.011 0.012,-0.052 0.07,-0.094c0.057,-0.042 0.153,-0.081 0.264,-0.076c0.111,0.005 0.204,0.053 0.257,0.1c0.054,0.047 0.072,0.089 0.062,0.099" style="fill:#1a2e35;fill-rule:nonzero;"/><path d="M154.606,41.597c0.002,0.094 -0.071,0.171 -0.162,0.173c-0.091,0.001 -0.167,-0.073 -0.168,-0.167c-0.002,-0.094 0.071,-0.171 0.162,-0.173c0.091,-0.001 0.167,0.074 0.168,0.167" style="fill:#1a2e35;fill-rule:nonzero;"/><path d="M154.706,41.411c-0.021,0.022 -0.145,-0.083 -0.323,-0.089c-0.178,-0.01 -0.31,0.083 -0.329,0.059c-0.01,-0.011 0.011,-0.051 0.069,-0.094c0.057,-0.042 0.153,-0.081 0.264,-0.076c0.111,0.005 0.204,0.053 0.257,0.1c0.054,0.047 0.072,0.09 0.062,0.1" style="fill:#1a2e35;fill-rule:nonzero;"/><path d="M155.375,42.943c-0.001,-0.011 0.11,-0.027 0.29,-0.044c0.046,-0.004 0.089,-0.012 0.097,-0.045c0.012,-0.034 -0.007,-0.088 -0.028,-0.145c-0.041,-0.12 -0.083,-0.245 -0.129,-0.377c-0.178,-0.536 -0.307,-0.975 -0.287,-0.982c0.021,-0.008 0.181,0.421 0.36,0.957c0.043,0.132 0.084,0.258 0.123,0.378c0.017,0.056 0.045,0.121 0.021,0.193c-0.013,0.036 -0.047,0.061 -0.076,0.068c-0.029,0.008 -0.055,0.008 -0.078,0.008c-0.181,0.003 -0.292,0 -0.293,-0.011" style="fill:#1a2e35;fill-rule:nonzero;"/><path d="M154.79,43.126c0.149,0.065 0.503,0.295 0.866,0.289c0,0 -0.218,0.335 -0.587,0.182c-0.383,-0.158 -0.279,-0.471 -0.279,-0.471" style="fill:#fff;fill-rule:nonzero;"/><path d="M155.463,45.206c0,0 -0.87,0.025 -1.723,-0.564c0,0 0.437,0.973 1.732,0.896l-0.009,-0.332Z" style="fill:#b66955;fill-rule:nonzero;"/><path d="M156.811,41.192c0,0 0.676,-1.482 -0.629,-2.826c-1.304,-1.344 -2.178,-1.045 -2.681,-1.037c-0.468,0.009 -2.828,0.565 -3.485,3.343c-0.027,0.117 -0.05,0.333 -0.07,0.539l0,0.001c-0.015,0.147 -0.028,0.289 -0.039,0.384l0.03,-0.005c-0.005,1.149 0.161,4.546 2.255,4.967l-0.201,-5.283c0,0 2.127,-0.243 2.469,-2.234c0,0 1.543,2.225 2.351,2.151" style="fill:#1a2e35;fill-rule:nonzero;"/><path d="M157.789,78.557c0.726,3.512 3.389,18.239 3.389,18.239l3.689,-0.657l-1.726,-18.594c-0.041,-0.49 -0.141,-0.974 -0.297,-1.44l-4.254,-12.756l-8.325,-5.398c-0.078,0.004 -0.978,3.595 -0.803,5.874c0.078,1.019 0.444,1.996 1.022,2.839c0.509,0.743 1.217,1.779 1.375,2.018c0.254,0.383 5.93,9.875 5.93,9.875" style="fill:#c88976;fill-rule:nonzero;"/><path d="M141.869,43.467c-0.377,-2.977 0.501,-6.207 0.854,-7.342c0.123,-0.118 0.272,-0.253 0.455,-0.404c0.156,-0.13 0.335,-0.231 0.526,-0.3c0.232,-0.085 0.545,-0.185 0.733,-0.186c0.232,-0.002 0.342,-0.286 0.17,-0.409c-0.171,-0.124 -0.813,-0.134 -1.491,0.185c-0.678,0.319 -0.167,-0.744 0.012,-1.135c0.18,-0.39 0.678,-1.625 0.601,-1.775c-0.112,-0.22 -0.369,-0.141 -0.539,0.253c-0.171,0.4 -0.763,1.541 -0.964,1.436c-0.199,-0.103 0.741,-2.079 0.741,-2.079c0,0 0.269,-0.39 0.04,-0.518c-0.413,-0.232 -1.257,1.942 -1.333,2.151c-0.052,0.145 -0.275,0.039 -0.211,-0.114c0.067,-0.157 0.983,-1.949 0.565,-2.189c-0.321,-0.185 -0.711,1.782 -1.108,2.048c-0.397,0.266 0.448,-1.461 0.134,-1.625c-0.117,-0.061 -0.213,-0.09 -0.554,0.972c-0.166,0.515 -0.359,1.483 -0.515,2.358l-0.011,-0.003c0,0 -4.316,10.639 0.278,12.739c4.876,2.229 9.208,3.793 9.208,3.793l1.271,-4.53c0,0 -8.794,-2.788 -8.862,-3.326" style="fill:#c88976;fill-rule:nonzero;"/><path d="M149.49,51.333l0.732,6.926l-0.314,1.42l7.757,0.038l1.453,-7.371l0.147,-0.819c0.382,-2.125 -1.14,-4.129 -3.292,-4.309c-0.032,-0.002 -0.064,-0.005 -0.097,-0.007l-6.882,-0.982l0.496,5.104Z" style="fill:#c88976;fill-rule:nonzero;"/><path d="M157.609,61.505l0.056,-1.787l-7.443,-1.216l7.387,3.003Z" style="fill:#c88976;fill-rule:nonzero;"/><path d="M141.421,88.327l-1.162,1.036l0.148,0.18c0.665,0.799 3.435,4.015 4.062,4.379c0.698,0.407 -0.951,-2.422 -0.951,-2.422l0.476,-0.449" style="fill:#ff4f5b;fill-rule:nonzero;"/><g opacity="0.5"><path d="M141.209,90.34c0.194,-0.253 0.288,-0.58 0.26,-0.897c-0.028,-0.317 -0.163,-0.614 -0.398,-0.829l-0.77,0.715l0.908,1.011Z" style="fill:#fff;fill-rule:nonzero;"/></g><g opacity="0.5"><path d="M144.283,92.92c0,0 0.526,1.04 0.296,1.063c-0.23,0.023 -3.152,-3.121 -4.32,-4.62l0.066,-0.053l3.377,3.696c0,0 0.425,-0.24 0.581,-0.086" style="fill:#fff;fill-rule:nonzero;"/></g><path d="M140.286,89.265c-0.001,0.001 0.012,0.019 0.039,0.052c0.036,0.043 0.074,0.09 0.118,0.143c0.121,0.142 0.269,0.316 0.444,0.521c0.378,0.437 0.907,1.034 1.507,1.68c0.6,0.646 1.155,1.219 1.563,1.628c0.191,0.19 0.354,0.35 0.486,0.481c0.05,0.048 0.094,0.09 0.134,0.129c0.031,0.029 0.048,0.043 0.049,0.042c0.001,-0.001 -0.013,-0.018 -0.042,-0.049c-0.039,-0.04 -0.081,-0.085 -0.129,-0.134c-0.129,-0.134 -0.288,-0.298 -0.475,-0.492c-0.402,-0.415 -0.953,-0.991 -1.553,-1.636c-0.599,-0.646 -1.132,-1.239 -1.516,-1.67c-0.179,-0.201 -0.331,-0.372 -0.454,-0.511c-0.047,-0.051 -0.088,-0.097 -0.125,-0.138c-0.029,-0.031 -0.045,-0.047 -0.046,-0.046" style="fill:#1a2e35;fill-rule:nonzero;"/><path d="M143.659,93.045c0.008,0.012 0.135,-0.092 0.326,-0.129c0.19,-0.039 0.347,0.007 0.35,-0.007c0.006,-0.01 -0.155,-0.079 -0.359,-0.037c-0.205,0.04 -0.327,0.167 -0.317,0.173" style="fill:#1a2e35;fill-rule:nonzero;"/><path d="M143.316,91.85c0.002,0.012 0.086,0.007 0.186,-0.012c0.101,-0.018 0.181,-0.044 0.178,-0.056c-0.002,-0.012 -0.086,-0.007 -0.186,0.011c-0.101,0.019 -0.181,0.044 -0.178,0.057" style="fill:#1a2e35;fill-rule:nonzero;"/><path d="M143.226,91.517c-0.001,0.013 0.069,0.029 0.155,0.037c0.087,0.008 0.158,0.004 0.16,-0.009c0.001,-0.012 -0.069,-0.029 -0.155,-0.037c-0.087,-0.007 -0.158,-0.004 -0.16,0.009" style="fill:#1a2e35;fill-rule:nonzero;"/><path d="M143.355,91.134c-0.009,0.009 0.043,0.081 0.115,0.161c0.073,0.08 0.14,0.139 0.15,0.13c0.009,-0.008 -0.043,-0.08 -0.116,-0.16c-0.073,-0.081 -0.139,-0.139 -0.149,-0.131" style="fill:#1a2e35;fill-rule:nonzero;"/><path d="M143.494,90.916c-0.011,0.004 0.022,0.104 0.102,0.203c0.08,0.1 0.169,0.155 0.176,0.145c0.008,-0.01 -0.065,-0.078 -0.14,-0.173c-0.076,-0.095 -0.126,-0.181 -0.138,-0.175" style="fill:#1a2e35;fill-rule:nonzero;"/><path d="M143.643,91.72c-0.004,0.003 0.051,0.078 0.165,0.176c0.058,0.048 0.131,0.1 0.217,0.149c0.044,0.024 0.087,0.051 0.145,0.067c0.028,0.007 0.062,0.011 0.095,-0.007c0.034,-0.018 0.05,-0.059 0.046,-0.093c-0.069,-0.251 -0.322,-0.332 -0.468,-0.313c-0.077,0.007 -0.135,0.031 -0.171,0.052c-0.037,0.021 -0.054,0.038 -0.052,0.04c0.003,0.008 0.08,-0.053 0.225,-0.06c0.072,-0.003 0.158,0.012 0.239,0.06c0.077,0.045 0.164,0.13 0.182,0.224c0.005,0.048 -0.038,0.067 -0.086,0.054c-0.046,-0.012 -0.092,-0.039 -0.135,-0.06c-0.085,-0.046 -0.158,-0.094 -0.217,-0.139c-0.117,-0.088 -0.18,-0.156 -0.185,-0.15" style="fill:#1a2e35;fill-rule:nonzero;"/><path d="M143.677,91.774c0,0.004 0.069,-0.012 0.141,-0.094c0.036,-0.041 0.069,-0.098 0.085,-0.169c0.01,-0.067 0.027,-0.158 -0.047,-0.231c-0.043,-0.036 -0.109,-0.012 -0.132,0.022c-0.028,0.032 -0.042,0.071 -0.052,0.103c-0.019,0.067 -0.027,0.131 -0.029,0.183c-0.003,0.106 0.018,0.169 0.023,0.168c0.007,-0.001 -0.001,-0.065 0.009,-0.165c0.006,-0.051 0.017,-0.11 0.038,-0.173c0.014,-0.059 0.066,-0.138 0.115,-0.101c0.046,0.04 0.044,0.126 0.034,0.186c-0.013,0.063 -0.04,0.117 -0.069,0.157c-0.059,0.08 -0.121,0.107 -0.116,0.114" style="fill:#1a2e35;fill-rule:nonzero;"/><path d="M141.092,88.621c-0.006,0.006 0.081,0.072 0.182,0.21c0.101,0.136 0.209,0.354 0.229,0.614c0.02,0.259 -0.055,0.492 -0.134,0.641c-0.079,0.152 -0.154,0.23 -0.148,0.236c0.002,0.001 0.023,-0.016 0.056,-0.052c0.033,-0.036 0.077,-0.092 0.121,-0.168c0.088,-0.15 0.171,-0.39 0.151,-0.661c-0.021,-0.27 -0.139,-0.495 -0.249,-0.63c-0.056,-0.068 -0.107,-0.117 -0.145,-0.148c-0.038,-0.03 -0.061,-0.045 -0.063,-0.042" style="fill:#1a2e35;fill-rule:nonzero;"/><path d="M141.8,90.437c-0.01,0.007 0.128,0.214 0.334,0.44c0.205,0.225 0.399,0.381 0.406,0.372c0.009,-0.01 -0.169,-0.179 -0.373,-0.403c-0.204,-0.224 -0.356,-0.417 -0.367,-0.409" style="fill:#1a2e35;fill-rule:nonzero;"/><path d="M141.299,89.897c-0.013,-0.001 -0.024,0.05 -0.048,0.107c-0.024,0.057 -0.052,0.1 -0.042,0.109c0.008,0.009 0.056,-0.026 0.084,-0.092c0.027,-0.065 0.018,-0.124 0.006,-0.124" style="fill:#1a2e35;fill-rule:nonzero;"/><path d="M141.363,89.458c-0.013,-0.001 -0.025,0.044 -0.027,0.099c-0.002,0.056 0.006,0.101 0.018,0.102c0.013,0 0.025,-0.044 0.027,-0.1c0.003,-0.055 -0.005,-0.1 -0.018,-0.101" style="fill:#1a2e35;fill-rule:nonzero;"/><path d="M141.208,89.06c-0.007,0.01 0.027,0.046 0.05,0.1c0.025,0.053 0.029,0.103 0.042,0.104c0.012,0.003 0.03,-0.056 0,-0.123c-0.03,-0.066 -0.086,-0.092 -0.092,-0.081" style="fill:#1a2e35;fill-rule:nonzero;"/><path d="M141.07,88.802c-0.011,0.004 -0.011,0.033 0.002,0.064c0.012,0.031 0.032,0.053 0.043,0.048c0.012,-0.004 0.011,-0.034 -0.001,-0.065c-0.012,-0.031 -0.032,-0.052 -0.044,-0.047" style="fill:#1a2e35;fill-rule:nonzero;"/><path d="M150.222,58.259c0,0 -1.724,4.798 -0.783,7.305c0.942,2.507 3.696,6.805 3.696,6.805l8.649,-3.893l-4.119,-7.36l0,-1.399l-7.443,-1.458Z" style="fill:#375a64;fill-rule:nonzero;"/><path d="M152.192,46.558l-6.528,-1.469l-1.08,5.924l4.574,1.018l1.064,6.228l7.443,1.458c0,0 1.371,-6.356 1.623,-7.517c0.494,-2.272 -0.415,-3.357 -0.415,-3.357c-0.449,-0.759 -1.136,-1.211 -2.001,-1.433l-4.68,-0.852Z" style="fill:#ff4f5b;fill-rule:nonzero;"/><path d="M157.956,50.374c0.025,0.003 -0.12,0.338 0.011,0.87c0.061,0.264 0.19,0.562 0.365,0.879c0.17,0.319 0.387,0.663 0.529,1.069c0.291,0.817 0.201,1.63 0.025,2.154c-0.087,0.266 -0.189,0.469 -0.269,0.602c-0.082,0.132 -0.135,0.199 -0.142,0.195c-0.023,-0.013 0.174,-0.298 0.323,-0.824c0.149,-0.517 0.22,-1.3 -0.059,-2.083c-0.136,-0.389 -0.347,-0.731 -0.513,-1.057c-0.171,-0.324 -0.297,-0.638 -0.349,-0.915c-0.054,-0.277 -0.041,-0.51 -0.006,-0.663c0.035,-0.153 0.079,-0.229 0.085,-0.227" style="fill:#1a2e35;fill-rule:nonzero;"/><path d="M160.866,66.824c0.016,0.032 -1.862,1.007 -4.195,2.178c-2.334,1.171 -4.238,2.094 -4.254,2.062c-0.016,-0.032 1.862,-1.007 4.195,-2.178c2.333,-1.172 4.238,-2.095 4.254,-2.062" style="fill:#1a2e35;fill-rule:nonzero;"/><path d="M156.301,59.514c0.013,-0.003 0.059,0.206 0.009,0.543c-0.048,0.332 -0.218,0.795 -0.583,1.173c-0.367,0.377 -0.824,0.561 -1.154,0.62c-0.335,0.061 -0.545,0.021 -0.543,0.008c-0.001,-0.023 0.207,-0.017 0.523,-0.098c0.312,-0.079 0.736,-0.266 1.08,-0.621c0.344,-0.355 0.518,-0.784 0.587,-1.1c0.071,-0.317 0.058,-0.525 0.081,-0.525" style="fill:#1a2e35;fill-rule:nonzero;"/><path d="M147.88,63.52c0,0 -1.446,-0.27 -2.578,1.794c-0.781,1.425 -1.432,3.151 -1.896,4.654c-0.313,1.012 0.239,2.087 1.245,2.418l1.072,0.351c1.009,0.331 2.097,-0.211 2.437,-1.217c0.91,-2.692 2.167,-7.506 -0.28,-8" style="fill:#1a2e35;fill-rule:nonzero;"/><path d="M148.909,63.941c0.017,0.007 -0.103,0.311 -0.311,0.795c-0.11,0.253 -0.235,0.539 -0.371,0.849c-0.067,0.156 -0.172,0.355 -0.38,0.435c-0.2,0.076 -0.41,0.065 -0.618,0.022c-0.103,-0.026 -0.212,-0.07 -0.291,-0.16c-0.08,-0.09 -0.103,-0.218 -0.086,-0.322c0.034,-0.212 0.146,-0.367 0.225,-0.519c0.166,-0.296 0.319,-0.567 0.454,-0.808c0.261,-0.457 0.431,-0.736 0.447,-0.728c0.016,0.009 -0.126,0.303 -0.366,0.772c-0.128,0.245 -0.272,0.52 -0.429,0.821c-0.079,0.155 -0.182,0.312 -0.205,0.479c-0.011,0.082 0.006,0.161 0.058,0.22c0.051,0.059 0.134,0.097 0.224,0.118c0.182,0.04 0.383,0.047 0.539,-0.013c0.16,-0.059 0.248,-0.212 0.32,-0.367c0.144,-0.306 0.278,-0.587 0.395,-0.837c0.229,-0.475 0.379,-0.765 0.395,-0.757" style="fill:#375a64;fill-rule:nonzero;"/><path d="M147.406,65.986c0.009,0.003 -0.012,0.105 -0.059,0.288c-0.047,0.183 -0.121,0.446 -0.221,0.768c-0.198,0.645 -0.507,1.525 -0.856,2.491c-0.157,0.441 -0.307,0.863 -0.445,1.25l-0.013,0.036l-0.037,0.005c-0.696,0.083 -1.292,0.15 -1.714,0.193c-0.421,0.042 -0.669,0.061 -0.671,0.047c-0.002,-0.014 0.243,-0.057 0.662,-0.121c0.419,-0.064 1.012,-0.147 1.708,-0.24l-0.05,0.041c0.13,-0.389 0.279,-0.813 0.438,-1.254c0.349,-0.968 0.67,-1.84 0.89,-2.477c0.103,-0.298 0.19,-0.55 0.261,-0.753c0.061,-0.179 0.099,-0.276 0.107,-0.274" style="fill:#375a64;fill-rule:nonzero;"/><path d="M145.768,70.763c0.026,-0.024 0.414,0.346 0.867,0.826c0.452,0.481 0.797,0.89 0.772,0.915c-0.027,0.024 -0.415,-0.345 -0.867,-0.826c-0.453,-0.48 -0.798,-0.89 -0.772,-0.915" style="fill:#375a64;fill-rule:nonzero;"/><path d="M145.81,64.487c0.001,-0.003 0.028,-0.003 0.078,0.011c0.05,0.014 0.121,0.047 0.197,0.112c0.147,0.128 0.304,0.413 0.251,0.773c-0.042,0.359 -0.278,0.718 -0.471,1.114c-0.094,0.2 -0.173,0.422 -0.166,0.653c0.006,0.232 0.105,0.463 0.215,0.698c0.109,0.232 0.227,0.48 0.238,0.743c0.017,0.253 -0.049,0.535 -0.259,0.692c-0.207,0.159 -0.481,0.131 -0.667,0.042c-0.193,-0.086 -0.344,-0.211 -0.467,-0.335c-0.236,-0.25 -0.425,-0.447 -0.591,-0.537c-0.162,-0.094 -0.272,-0.1 -0.269,-0.112c0,-0.005 0.027,-0.006 0.078,0c0.051,0.007 0.126,0.025 0.215,0.067c0.181,0.08 0.391,0.278 0.631,0.516c0.121,0.115 0.269,0.229 0.445,0.302c0.173,0.075 0.392,0.089 0.553,-0.038c0.161,-0.122 0.222,-0.359 0.204,-0.589c-0.011,-0.235 -0.118,-0.459 -0.229,-0.696c-0.11,-0.235 -0.219,-0.484 -0.225,-0.749c-0.005,-0.265 0.086,-0.503 0.185,-0.709c0.208,-0.409 0.44,-0.745 0.489,-1.076c0.06,-0.326 -0.07,-0.593 -0.195,-0.722c-0.131,-0.133 -0.245,-0.146 -0.24,-0.16" style="fill:#e1e1e1;fill-rule:nonzero;"/><path d="M148.626,70.02c0.002,0.008 -0.067,0.037 -0.197,0.076c-0.13,0.037 -0.322,0.088 -0.571,0.093c-0.243,0.005 -0.564,-0.059 -0.811,-0.299c-0.121,-0.117 -0.221,-0.283 -0.24,-0.475c-0.02,-0.191 0.044,-0.387 0.154,-0.547c0.223,-0.33 0.583,-0.483 0.88,-0.585c0.304,-0.104 0.575,-0.184 0.78,-0.301c0.426,-0.223 0.524,-0.534 0.541,-0.521c0.007,0.002 -0.004,0.08 -0.074,0.2c-0.069,0.12 -0.209,0.273 -0.421,0.401c-0.21,0.133 -0.49,0.225 -0.785,0.333c-0.293,0.108 -0.617,0.254 -0.813,0.546c-0.097,0.142 -0.15,0.306 -0.135,0.462c0.014,0.156 0.094,0.296 0.198,0.401c0.212,0.216 0.497,0.286 0.728,0.293c0.234,0.007 0.426,-0.029 0.558,-0.051c0.132,-0.023 0.206,-0.035 0.208,-0.026" style="fill:#e1e1e1;fill-rule:nonzero;"/><path d="M148.219,71.838c-0.017,0.016 -0.153,-0.152 -0.445,-0.313c-0.286,-0.161 -0.755,-0.295 -1.245,-0.174c-0.49,0.125 -0.841,0.464 -1.017,0.74c-0.182,0.28 -0.222,0.492 -0.245,0.486c-0.012,0 -0.005,-0.225 0.167,-0.534c0.164,-0.303 0.53,-0.682 1.063,-0.818c0.534,-0.131 1.036,0.031 1.324,0.221c0.296,0.191 0.408,0.386 0.398,0.392" style="fill:#e1e1e1;fill-rule:nonzero;"/><g opacity="0.7"><path d="M152.312,52.403c0.062,0.11 0,1.529 0,1.529l5.168,0.278l0,-1.485l-5.168,-0.322Z" style="fill:#fff;fill-rule:nonzero;"/></g><path d="M155.876,47.211l-8.124,16.571l0.937,0.634l8.183,-17.006c-0.287,-0.192 -0.617,-0.266 -0.996,-0.199" style="fill:#1a2e35;fill-rule:nonzero;"/><path d="M151.29,38.458c0.299,-0.312 0.368,-0.812 0.191,-1.207c-0.176,-0.395 -0.575,-0.672 -1.004,-0.731c-0.428,-0.059 -0.874,0.089 -1.203,0.369c-0.236,0.2 -0.425,0.508 -0.35,0.809c0.045,0.183 0.181,0.331 0.323,0.456c0.325,0.287 0.726,0.508 1.159,0.538c0.433,0.029 0.895,-0.164 1.109,-0.542" style="fill:#1a2e35;fill-rule:nonzero;"/><path d="M164.905,95.941l0.137,0.655c0,0 3.345,0.069 2.618,0.462c-0.651,0.351 -4.931,1.053 -5.981,1.207l-0.237,0.032l-0.283,-1.565l3.746,-0.791Z" style="fill:#ff4f5b;fill-rule:nonzero;"/><g opacity="0.5"><path d="M162.801,97.99c-0.117,-0.304 -0.352,-0.56 -0.643,-0.705c-0.292,-0.144 -0.623,-0.185 -0.936,-0.094l0.214,1.052l1.365,-0.253Z" style="fill:#fff;fill-rule:nonzero;"/></g><g opacity="0.5"><path d="M166.688,96.686c0,0 1.186,0.095 1.084,0.308c-0.102,0.213 -4.4,1.085 -6.329,1.303l-0.011,-0.085l5.022,-0.974c0,0 0.017,-0.499 0.234,-0.552" style="fill:#fff;fill-rule:nonzero;"/></g><path d="M161.372,98.222c0,0.001 0.023,-0.001 0.066,-0.006c0.057,-0.009 0.119,-0.017 0.188,-0.027c0.188,-0.03 0.418,-0.066 0.69,-0.109c0.582,-0.097 1.385,-0.241 2.268,-0.419c0.882,-0.178 1.677,-0.357 2.251,-0.494c0.268,-0.066 0.494,-0.122 0.679,-0.168c0.068,-0.018 0.128,-0.034 0.184,-0.048c0.041,-0.012 0.063,-0.019 0.062,-0.02c0,-0.002 -0.022,0.002 -0.065,0.011c-0.056,0.012 -0.117,0.025 -0.185,0.04c-0.186,0.041 -0.414,0.092 -0.682,0.152c-0.576,0.13 -1.372,0.303 -2.254,0.481c-0.882,0.179 -1.683,0.328 -2.263,0.432c-0.271,0.049 -0.501,0.09 -0.688,0.124c-0.069,0.013 -0.13,0.025 -0.186,0.035c-0.043,0.009 -0.065,0.014 -0.065,0.016" style="fill:#1a2e35;fill-rule:nonzero;"/><path d="M166.464,97.296c0.015,-0.001 -0.008,-0.166 0.062,-0.352c0.066,-0.187 0.19,-0.299 0.18,-0.309c-0.005,-0.011 -0.152,0.093 -0.224,0.293c-0.074,0.2 -0.029,0.374 -0.018,0.368" style="fill:#1a2e35;fill-rule:nonzero;"/><path d="M165.239,96.958c0.012,0.005 0.052,-0.071 0.089,-0.168c0.038,-0.098 0.059,-0.181 0.046,-0.185c-0.012,-0.005 -0.052,0.071 -0.089,0.168c-0.037,0.098 -0.058,0.181 -0.046,0.185" style="fill:#1a2e35;fill-rule:nonzero;"/><path d="M164.902,96.859c0.01,0.008 0.061,-0.044 0.114,-0.116c0.054,-0.071 0.088,-0.135 0.078,-0.143c-0.01,-0.007 -0.062,0.044 -0.115,0.116c-0.053,0.071 -0.088,0.135 -0.077,0.143" style="fill:#1a2e35;fill-rule:nonzero;"/><path d="M164.637,96.543c0.003,0.013 0.093,0.006 0.202,-0.015c0.108,-0.021 0.195,-0.048 0.192,-0.061c-0.002,-0.012 -0.092,-0.006 -0.201,0.015c-0.109,0.021 -0.195,0.048 -0.193,0.061" style="fill:#1a2e35;fill-rule:nonzero;"/><path d="M164.52,96.306c-0.002,0.012 0.103,0.036 0.232,0.019c0.13,-0.016 0.225,-0.065 0.22,-0.076c-0.004,-0.013 -0.103,0.015 -0.226,0.03c-0.123,0.016 -0.225,0.013 -0.226,0.027" style="fill:#1a2e35;fill-rule:nonzero;"/><path d="M165.3,96.604c0.001,0.005 0.096,-0.002 0.242,-0.051c0.073,-0.024 0.157,-0.059 0.246,-0.109c0.044,-0.026 0.09,-0.049 0.135,-0.09c0.021,-0.021 0.043,-0.049 0.045,-0.088c0.002,-0.038 -0.025,-0.075 -0.057,-0.089c-0.255,-0.073 -0.46,0.104 -0.522,0.241c-0.035,0.071 -0.044,0.135 -0.046,0.178c-0.001,0.043 0.004,0.066 0.007,0.066c0.009,0.002 -0.003,-0.098 0.068,-0.229c0.035,-0.063 0.095,-0.131 0.18,-0.176c0.08,-0.042 0.2,-0.074 0.292,-0.039c0.044,0.021 0.038,0.069 0.001,0.103c-0.035,0.034 -0.083,0.06 -0.124,0.086c-0.086,0.05 -0.167,0.088 -0.236,0.116c-0.14,0.055 -0.232,0.074 -0.231,0.081" style="fill:#1a2e35;fill-rule:nonzero;"/><path d="M165.365,96.603c0.004,0.002 0.027,-0.067 -0.006,-0.173c-0.017,-0.052 -0.049,-0.112 -0.102,-0.164c-0.053,-0.045 -0.123,-0.108 -0.226,-0.082c-0.055,0.018 -0.069,0.088 -0.052,0.127c0.013,0.041 0.04,0.074 0.063,0.1c0.048,0.052 0.099,0.093 0.144,0.123c0.091,0.058 0.156,0.075 0.158,0.069c0.003,-0.006 -0.057,-0.033 -0.139,-0.096c-0.041,-0.032 -0.087,-0.073 -0.13,-0.125c-0.044,-0.044 -0.085,-0.131 -0.027,-0.155c0.059,-0.018 0.133,0.03 0.18,0.071c0.049,0.044 0.081,0.096 0.1,0.143c0.039,0.095 0.029,0.162 0.037,0.162" style="fill:#1a2e35;fill-rule:nonzero;"/><path d="M161.24,97.176c0.003,0.008 0.106,-0.032 0.28,-0.047c0.172,-0.015 0.421,0.007 0.657,0.127c0.237,0.122 0.4,0.311 0.488,0.459c0.09,0.15 0.118,0.258 0.126,0.255c0.003,-0.001 -0.001,-0.028 -0.015,-0.076c-0.014,-0.048 -0.04,-0.116 -0.082,-0.195c-0.084,-0.157 -0.249,-0.357 -0.496,-0.484c-0.246,-0.126 -0.505,-0.143 -0.682,-0.118c-0.088,0.011 -0.158,0.03 -0.205,0.047c-0.047,0.017 -0.072,0.029 -0.071,0.032" style="fill:#1a2e35;fill-rule:nonzero;"/><path d="M163.201,97.527c0,0.012 0.254,0.003 0.56,-0.057c0.307,-0.059 0.545,-0.144 0.542,-0.156c-0.004,-0.013 -0.247,0.052 -0.551,0.11c-0.303,0.059 -0.553,0.089 -0.551,0.103" style="fill:#1a2e35;fill-rule:nonzero;"/><path d="M162.463,97.676c-0.008,0.011 0.03,0.048 0.067,0.099c0.037,0.051 0.06,0.098 0.073,0.095c0.012,-0.003 0.007,-0.064 -0.035,-0.122c-0.043,-0.059 -0.099,-0.083 -0.105,-0.072" style="fill:#1a2e35;fill-rule:nonzero;"/><path d="M162.114,97.386c-0.007,0.011 0.026,0.045 0.073,0.077c0.046,0.031 0.09,0.048 0.097,0.037c0.007,-0.01 -0.025,-0.045 -0.072,-0.076c-0.046,-0.032 -0.09,-0.049 -0.098,-0.038" style="fill:#1a2e35;fill-rule:nonzero;"/><path d="M161.684,97.308c0.006,0.013 0.056,0.002 0.115,0.01c0.059,0.007 0.105,0.03 0.113,0.019c0.009,-0.009 -0.034,-0.056 -0.107,-0.065c-0.074,-0.01 -0.127,0.026 -0.121,0.036" style="fill:#1a2e35;fill-rule:nonzero;"/><path d="M161.386,97.291c-0.002,0.013 0.023,0.028 0.057,0.034c0.034,0.006 0.063,0 0.065,-0.013c0.002,-0.012 -0.023,-0.027 -0.057,-0.033c-0.034,-0.006 -0.063,0 -0.065,0.012" style="fill:#1a2e35;fill-rule:nonzero;"/><path d="M92.034,96.857l0.269,-1.989l-3.723,-0.526l-0.423,2.906l0.228,0.048c1.02,0.202 5.197,0.956 5.913,0.845c0.799,-0.124 -2.264,-1.284 -2.264,-1.284" style="fill:#ff4f5b;fill-rule:nonzero;"/><g opacity="0.3"><path d="M89.511,97.41c-0.01,-0.319 -0.142,-0.632 -0.363,-0.861c-0.222,-0.229 -0.514,-0.374 -0.832,-0.394l-0.148,1.041l1.343,0.214Z" style="fill:#fff;fill-rule:nonzero;"/></g><g opacity="0.3"><path d="M93.523,97.479c0,0 1.063,0.476 0.899,0.639c-0.164,0.163 -4.414,-0.44 -6.265,-0.87l0.017,-0.082l4.952,0.745c0,0 0.179,-0.454 0.397,-0.432" style="fill:#fff;fill-rule:nonzero;"/></g><path d="M88.116,97.155c0,0.002 0.022,0.007 0.063,0.016c0.055,0.011 0.115,0.024 0.183,0.037c0.182,0.035 0.407,0.076 0.672,0.126c0.568,0.101 1.356,0.231 2.228,0.356c0.873,0.124 1.665,0.22 2.239,0.281c0.269,0.027 0.496,0.049 0.681,0.068c0.069,0.006 0.13,0.01 0.185,0.015c0.043,0.003 0.065,0.004 0.065,0.002c0,-0.001 -0.021,-0.005 -0.064,-0.011c-0.055,-0.007 -0.116,-0.015 -0.184,-0.024c-0.185,-0.022 -0.411,-0.05 -0.679,-0.082c-0.573,-0.07 -1.364,-0.17 -2.236,-0.294c-0.872,-0.125 -1.66,-0.25 -2.23,-0.343c-0.266,-0.044 -0.491,-0.081 -0.674,-0.111c-0.068,-0.011 -0.129,-0.02 -0.184,-0.029c-0.042,-0.006 -0.064,-0.008 -0.065,-0.007" style="fill:#1a2e35;fill-rule:nonzero;"/><path d="M93.117,97.969c0.013,0.004 0.047,-0.156 0.172,-0.305c0.123,-0.15 0.273,-0.213 0.267,-0.226c-0.001,-0.012 -0.17,0.036 -0.302,0.197c-0.134,0.16 -0.149,0.335 -0.137,0.334" style="fill:#1a2e35;fill-rule:nonzero;"/><path d="M92.097,97.256c0.01,0.008 0.072,-0.048 0.138,-0.126c0.066,-0.078 0.113,-0.148 0.103,-0.156c-0.009,-0.008 -0.071,0.049 -0.138,0.127c-0.066,0.077 -0.112,0.147 -0.103,0.155" style="fill:#1a2e35;fill-rule:nonzero;"/><path d="M91.819,97.054c0.007,0.01 0.071,-0.02 0.143,-0.069c0.073,-0.049 0.126,-0.096 0.119,-0.107c-0.007,-0.01 -0.072,0.021 -0.144,0.069c-0.072,0.049 -0.125,0.097 -0.118,0.107" style="fill:#1a2e35;fill-rule:nonzero;"/><path d="M91.678,96.676c-0.002,0.012 0.083,0.036 0.191,0.052c0.107,0.016 0.195,0.02 0.197,0.007c0.002,-0.012 -0.083,-0.035 -0.19,-0.052c-0.108,-0.016 -0.196,-0.02 -0.198,-0.007" style="fill:#1a2e35;fill-rule:nonzero;"/><path d="M91.648,96.419c-0.006,0.01 0.083,0.066 0.207,0.093c0.125,0.028 0.229,0.014 0.229,0.002c-0.001,-0.013 -0.1,-0.019 -0.219,-0.046c-0.118,-0.026 -0.212,-0.061 -0.217,-0.049" style="fill:#1a2e35;fill-rule:nonzero;"/><path d="M92.27,96.949c-0.001,0.005 0.089,0.03 0.239,0.033c0.075,0.001 0.165,-0.004 0.263,-0.02c0.049,-0.01 0.099,-0.016 0.154,-0.04c0.026,-0.012 0.055,-0.03 0.07,-0.066c0.015,-0.034 0.001,-0.077 -0.023,-0.1c-0.212,-0.151 -0.459,-0.055 -0.561,0.051c-0.055,0.054 -0.085,0.109 -0.1,0.148c-0.016,0.04 -0.018,0.063 -0.016,0.064c0.008,0.005 0.03,-0.092 0.138,-0.188c0.054,-0.048 0.131,-0.09 0.224,-0.104c0.087,-0.013 0.209,-0.003 0.282,0.06c0.034,0.033 0.013,0.076 -0.033,0.095c-0.043,0.02 -0.096,0.028 -0.143,0.038c-0.095,0.019 -0.182,0.027 -0.255,0.03c-0.147,0.005 -0.238,-0.008 -0.239,-0.001" style="fill:#1a2e35;fill-rule:nonzero;"/><path d="M92.33,96.97c0.003,0.003 0.047,-0.053 0.051,-0.162c0.002,-0.054 -0.009,-0.119 -0.041,-0.184c-0.034,-0.059 -0.078,-0.14 -0.181,-0.15c-0.057,-0.001 -0.093,0.058 -0.089,0.1c-0.002,0.042 0.012,0.081 0.025,0.112c0.027,0.065 0.06,0.119 0.092,0.161c0.065,0.084 0.12,0.12 0.123,0.116c0.005,-0.005 -0.041,-0.05 -0.096,-0.134c-0.028,-0.043 -0.056,-0.096 -0.08,-0.158c-0.026,-0.055 -0.035,-0.149 0.026,-0.152c0.061,0.003 0.113,0.071 0.143,0.124c0.031,0.057 0.043,0.116 0.046,0.165c0.004,0.1 -0.027,0.159 -0.019,0.162" style="fill:#1a2e35;fill-rule:nonzero;"/><path d="M88.337,96.148c0,0.008 0.108,0.005 0.273,0.048c0.164,0.042 0.386,0.144 0.565,0.333c0.179,0.189 0.267,0.416 0.3,0.583c0.034,0.167 0.024,0.275 0.033,0.276c0.003,0 0.008,-0.027 0.011,-0.076c0.003,-0.048 0.001,-0.119 -0.012,-0.206c-0.026,-0.172 -0.112,-0.411 -0.299,-0.609c-0.186,-0.197 -0.42,-0.297 -0.59,-0.332c-0.086,-0.018 -0.157,-0.024 -0.206,-0.024c-0.048,0 -0.075,0.004 -0.075,0.007" style="fill:#1a2e35;fill-rule:nonzero;"/><path d="M88.942,94.653c-0.012,-0.002 -0.075,0.339 -0.14,0.76c-0.066,0.422 -0.109,0.766 -0.096,0.767c0.012,0.002 0.075,-0.338 0.141,-0.76c0.065,-0.421 0.108,-0.765 0.095,-0.767" style="fill:#1a2e35;fill-rule:nonzero;"/><path d="M90.031,97.113c-0.004,0.012 0.233,0.086 0.535,0.131c0.302,0.046 0.551,0.046 0.551,0.034c0,-0.014 -0.245,-0.033 -0.544,-0.079c-0.299,-0.045 -0.539,-0.099 -0.542,-0.086" style="fill:#1a2e35;fill-rule:nonzero;"/><path d="M89.301,97.008c-0.01,0.008 0.013,0.055 0.03,0.114c0.017,0.059 0.023,0.111 0.036,0.112c0.012,0.001 0.028,-0.056 0.007,-0.125c-0.019,-0.068 -0.064,-0.108 -0.073,-0.101" style="fill:#1a2e35;fill-rule:nonzero;"/><path d="M89.075,96.628c-0.01,0.007 0.008,0.049 0.041,0.093c0.033,0.045 0.068,0.075 0.078,0.068c0.01,-0.008 -0.008,-0.05 -0.041,-0.095c-0.033,-0.044 -0.068,-0.074 -0.078,-0.066" style="fill:#1a2e35;fill-rule:nonzero;"/><path d="M88.704,96.415c0,0.013 0.05,0.02 0.102,0.047c0.052,0.026 0.087,0.062 0.098,0.054c0.011,-0.005 -0.013,-0.062 -0.078,-0.095c-0.064,-0.033 -0.125,-0.018 -0.122,-0.006" style="fill:#1a2e35;fill-rule:nonzero;"/><path d="M88.434,96.302c-0.006,0.011 0.012,0.033 0.042,0.049c0.029,0.017 0.057,0.021 0.064,0.01c0.006,-0.011 -0.013,-0.033 -0.042,-0.05c-0.029,-0.016 -0.058,-0.02 -0.064,-0.009" style="fill:#1a2e35;fill-rule:nonzero;"/><path d="M102.027,86.726l-1.002,-1.739l-3.27,1.857l1.439,2.559l0.211,-0.102c0.93,-0.462 4.699,-2.415 5.198,-2.94c0.557,-0.586 -2.576,0.365 -2.576,0.365" style="fill:#ff4f5b;fill-rule:nonzero;"/><g opacity="0.3"><path d="M100.365,88.705c-0.202,-0.247 -0.497,-0.415 -0.813,-0.461c-0.315,-0.046 -0.635,0.018 -0.899,0.196l0.518,0.915l1.194,-0.65Z" style="fill:#fff;fill-rule:nonzero;"/></g><g opacity="0.3"><path d="M103.585,86.31c0,0 1.133,-0.272 1.103,-0.043c-0.031,0.23 -3.765,2.347 -5.494,3.136l-0.036,-0.076l4.377,-2.432c0,0 -0.135,-0.469 0.05,-0.585" style="fill:#fff;fill-rule:nonzero;"/></g><path d="M99.106,89.354c0,0.002 0.021,-0.007 0.059,-0.025c0.05,-0.025 0.105,-0.052 0.167,-0.082c0.166,-0.085 0.369,-0.189 0.609,-0.312c0.512,-0.266 1.216,-0.644 1.983,-1.078c0.767,-0.434 1.452,-0.842 1.945,-1.144c0.229,-0.143 0.422,-0.264 0.58,-0.362c0.058,-0.037 0.109,-0.071 0.156,-0.101c0.036,-0.024 0.054,-0.036 0.053,-0.038c-0.001,-0.001 -0.021,0.009 -0.057,0.03c-0.049,0.028 -0.101,0.059 -0.161,0.094c-0.16,0.095 -0.356,0.212 -0.588,0.349c-0.496,0.295 -1.184,0.698 -1.951,1.133c-0.766,0.433 -1.467,0.815 -1.975,1.089c-0.237,0.128 -0.438,0.236 -0.602,0.324c-0.06,0.033 -0.114,0.063 -0.163,0.089c-0.037,0.021 -0.056,0.033 -0.055,0.034" style="fill:#1a2e35;fill-rule:nonzero;"/><path d="M103.563,86.946c0.013,-0.005 -0.058,-0.152 -0.05,-0.347c0.005,-0.194 0.086,-0.335 0.074,-0.342c-0.008,-0.008 -0.113,0.133 -0.12,0.341c-0.008,0.208 0.087,0.356 0.096,0.348" style="fill:#1a2e35;fill-rule:nonzero;"/><path d="M102.32,87.004c0.013,0 0.027,-0.082 0.032,-0.184c0.005,-0.102 -0.001,-0.186 -0.013,-0.186c-0.013,-0.001 -0.027,0.082 -0.032,0.184c-0.005,0.102 0.001,0.185 0.013,0.186" style="fill:#1a2e35;fill-rule:nonzero;"/><path d="M101.976,87.014c0.012,0.004 0.044,-0.06 0.072,-0.142c0.027,-0.083 0.04,-0.153 0.028,-0.157c-0.012,-0.004 -0.044,0.06 -0.072,0.142c-0.027,0.083 -0.04,0.153 -0.028,0.157" style="fill:#1a2e35;fill-rule:nonzero;"/><path d="M101.634,86.8c0.006,0.011 0.088,-0.023 0.182,-0.075c0.095,-0.052 0.167,-0.104 0.161,-0.115c-0.005,-0.011 -0.088,0.023 -0.182,0.075c-0.095,0.053 -0.167,0.104 -0.161,0.115" style="fill:#1a2e35;fill-rule:nonzero;"/><path d="M101.453,86.615c0.002,0.012 0.106,0.002 0.222,-0.053c0.116,-0.054 0.189,-0.128 0.181,-0.137c-0.008,-0.011 -0.091,0.045 -0.201,0.096c-0.109,0.052 -0.205,0.081 -0.202,0.094" style="fill:#1a2e35;fill-rule:nonzero;"/><path d="M102.27,86.656c0.002,0.004 0.088,-0.032 0.209,-0.121c0.06,-0.044 0.128,-0.103 0.196,-0.176c0.032,-0.038 0.069,-0.073 0.098,-0.125c0.013,-0.026 0.025,-0.059 0.015,-0.095c-0.009,-0.037 -0.046,-0.062 -0.08,-0.066c-0.26,0.01 -0.397,0.237 -0.412,0.383c-0.011,0.076 -0.001,0.138 0.011,0.179c0.012,0.041 0.024,0.061 0.026,0.06c0.009,-0.002 -0.032,-0.091 -0.006,-0.234c0.014,-0.07 0.049,-0.15 0.114,-0.218c0.062,-0.064 0.164,-0.13 0.26,-0.125c0.047,0.006 0.057,0.052 0.032,0.095c-0.022,0.042 -0.059,0.081 -0.09,0.118c-0.064,0.072 -0.128,0.132 -0.184,0.179c-0.113,0.093 -0.193,0.139 -0.189,0.146" style="fill:#1a2e35;fill-rule:nonzero;"/><path d="M102.33,86.635c0.004,0.001 0.005,-0.071 -0.059,-0.16c-0.031,-0.043 -0.079,-0.088 -0.144,-0.12c-0.064,-0.026 -0.148,-0.063 -0.236,-0.008c-0.045,0.033 -0.037,0.102 -0.01,0.133c0.025,0.035 0.059,0.057 0.089,0.074c0.061,0.035 0.121,0.057 0.172,0.071c0.102,0.027 0.168,0.022 0.168,0.017c0.001,-0.008 -0.063,-0.014 -0.159,-0.048c-0.047,-0.017 -0.103,-0.041 -0.159,-0.076c-0.054,-0.028 -0.119,-0.097 -0.072,-0.136c0.05,-0.035 0.133,-0.013 0.189,0.011c0.059,0.026 0.105,0.065 0.137,0.102c0.065,0.077 0.076,0.143 0.084,0.14" style="fill:#1a2e35;fill-rule:nonzero;"/><path d="M98.665,88.421c0.005,0.007 0.089,-0.062 0.246,-0.128c0.156,-0.066 0.394,-0.122 0.651,-0.081c0.257,0.041 0.466,0.167 0.593,0.278c0.129,0.112 0.188,0.204 0.195,0.199c0.002,-0.002 -0.01,-0.026 -0.038,-0.066c-0.027,-0.041 -0.072,-0.096 -0.135,-0.157c-0.125,-0.121 -0.34,-0.257 -0.608,-0.299c-0.268,-0.043 -0.514,0.021 -0.671,0.097c-0.079,0.038 -0.139,0.076 -0.177,0.106c-0.039,0.03 -0.058,0.049 -0.056,0.051" style="fill:#1a2e35;fill-rule:nonzero;"/><path d="M98.232,86.868c-0.011,0.006 0.147,0.314 0.353,0.688c0.206,0.374 0.381,0.672 0.392,0.666c0.011,-0.006 -0.146,-0.314 -0.352,-0.688c-0.206,-0.374 -0.382,-0.671 -0.393,-0.666" style="fill:#1a2e35;fill-rule:nonzero;"/><path d="M100.596,88.152c0.005,0.012 0.237,-0.074 0.504,-0.223c0.268,-0.148 0.464,-0.3 0.457,-0.309c-0.008,-0.011 -0.214,0.123 -0.479,0.269c-0.264,0.147 -0.487,0.251 -0.482,0.263" style="fill:#1a2e35;fill-rule:nonzero;"/><path d="M99.954,88.515c-0.003,0.012 0.044,0.035 0.093,0.072c0.05,0.036 0.086,0.073 0.097,0.066c0.011,-0.006 -0.012,-0.061 -0.07,-0.103c-0.057,-0.042 -0.117,-0.047 -0.12,-0.035" style="fill:#1a2e35;fill-rule:nonzero;"/><path d="M99.542,88.351c-0.003,0.012 0.037,0.034 0.091,0.049c0.053,0.016 0.099,0.018 0.102,0.006c0.004,-0.012 -0.037,-0.034 -0.09,-0.05c-0.053,-0.015 -0.099,-0.017 -0.103,-0.005" style="fill:#1a2e35;fill-rule:nonzero;"/><path d="M99.119,88.41c0.008,0.009 0.052,-0.016 0.109,-0.026c0.058,-0.011 0.107,-0.004 0.112,-0.016c0.005,-0.011 -0.049,-0.042 -0.12,-0.028c-0.071,0.013 -0.11,0.062 -0.101,0.07" style="fill:#1a2e35;fill-rule:nonzero;"/><path d="M98.836,88.484c0.002,0.013 0.03,0.019 0.063,0.014c0.034,-0.005 0.059,-0.019 0.057,-0.031c-0.002,-0.013 -0.03,-0.019 -0.063,-0.014c-0.033,0.005 -0.059,0.019 -0.057,0.031" style="fill:#1a2e35;fill-rule:nonzero;"/><path d="M89.465,58.926c0,0 1.444,5.807 1.897,5.559c2.459,-1.346 4.898,-3.829 5.808,-4.806c0.035,-0.132 0.07,-0.279 0.104,-0.447c0.04,-0.195 0.046,-0.395 0.02,-0.592c-0.031,-0.238 -0.086,-0.554 -0.167,-0.718c-0.102,-0.202 0.089,-0.424 0.268,-0.331c0.18,0.093 0.473,0.644 0.505,1.375c0.032,0.731 0.7,-0.19 0.95,-0.521c0.249,-0.331 1.069,-1.317 1.229,-1.318c0.235,-0.002 0.282,0.256 0.025,0.58c-0.26,0.329 -0.96,1.354 -0.782,1.482c0.175,0.126 1.423,-1.577 1.423,-1.577c0,0 0.209,-0.409 0.419,-0.268c0.378,0.254 -1.079,1.963 -1.222,2.122c-0.099,0.11 0.089,0.256 0.189,0.131c0.103,-0.128 1.206,-1.727 1.594,-1.473c0.298,0.195 -1.186,1.417 -1.234,1.88c-0.048,0.463 1.032,-1.044 1.309,-0.846c0.103,0.074 0.17,0.144 -0.573,0.917c-0.399,0.416 -1.251,1.108 -1.97,1.673c-1.97,2.199 -9.247,9.276 -10.734,5.482c-1.77,-4.515 -1.499,-7.431 -1.499,-7.431l2.441,-0.873Z" style="fill:#ffbf9d;fill-rule:nonzero;"/><path d="M79.105,61.01l0.445,4.589l-0.525,3.212l-0.743,1.77l9.821,-1.056l-0.814,-4.12l0.077,-1.397c0.21,0.907 0.485,1.995 0.744,2.718c0.518,1.447 1.477,1.744 1.477,1.744c3.253,0.716 9.49,-6.278 9.49,-6.278l-2.224,-2.685l-5.275,4.531c0,0 0.134,-0.161 0,-0.323c-0.135,-0.161 -0.377,0.323 -0.377,0.323l-1.236,-4.436c0,0 -0.358,-3.983 -4.264,-4.174l-3.252,0c-3.052,0.631 -5.408,3.097 -5.841,6.183c-0.06,0.429 -0.096,0.886 -0.105,1.374c-0.094,5.5 2.602,6.722 2.602,6.722l1.5,-4.513l-1.5,-4.184Z" style="fill:#375a64;fill-rule:nonzero;"/><path d="M87.002,64.16c0.009,0.009 0.179,-0.135 0.376,-0.433c0.197,-0.295 0.407,-0.757 0.469,-1.303c0.063,-0.546 -0.039,-1.043 -0.164,-1.375c-0.125,-0.335 -0.258,-0.514 -0.268,-0.507c-0.018,0.01 0.087,0.201 0.189,0.534c0.102,0.33 0.186,0.81 0.126,1.335c-0.06,0.524 -0.249,0.973 -0.423,1.272c-0.174,0.301 -0.32,0.464 -0.305,0.477" style="fill:#1a2e35;fill-rule:nonzero;"/><path d="M87.943,68.56c-0.006,0.009 -0.161,-0.081 -0.447,-0.234c-0.286,-0.155 -0.705,-0.367 -1.241,-0.587c-0.537,-0.215 -1.191,-0.443 -1.938,-0.609c-0.373,-0.084 -0.768,-0.156 -1.182,-0.205c-0.206,-0.025 -0.417,-0.048 -0.631,-0.06c-0.213,-0.019 -0.432,-0.017 -0.661,-0.053c-0.226,-0.032 -0.459,-0.136 -0.609,-0.318c-0.151,-0.178 -0.227,-0.394 -0.277,-0.601c-0.091,-0.419 -0.127,-0.817 -0.171,-1.202c-0.078,-0.767 -0.104,-1.462 -0.102,-2.045c0.001,-0.583 0.03,-1.053 0.056,-1.378c0.014,-0.162 0.027,-0.288 0.038,-0.373c0.011,-0.085 0.019,-0.129 0.023,-0.129c0.011,0.001 0.001,0.18 -0.01,0.505c-0.011,0.325 -0.026,0.795 -0.015,1.375c0.01,0.58 0.045,1.27 0.129,2.032c0.047,0.379 0.088,0.786 0.176,1.185c0.048,0.197 0.121,0.394 0.251,0.547c0.13,0.155 0.321,0.242 0.533,0.274c0.21,0.034 0.431,0.032 0.648,0.051c0.217,0.014 0.43,0.037 0.638,0.063c0.418,0.052 0.817,0.127 1.193,0.216c0.753,0.173 1.41,0.412 1.946,0.64c0.536,0.233 0.952,0.459 1.231,0.628c0.141,0.081 0.245,0.153 0.317,0.2c0.071,0.048 0.107,0.074 0.105,0.078" style="fill:#1a2e35;fill-rule:nonzero;"/><path d="M80.518,67.512c-0.033,-0.006 0.058,-0.349 0.378,-0.62c0.316,-0.275 0.668,-0.313 0.669,-0.28c0.01,0.038 -0.298,0.128 -0.585,0.379c-0.291,0.246 -0.426,0.536 -0.462,0.521" style="fill:#1a2e35;fill-rule:nonzero;"/><path d="M84.065,46.743c0.624,-0.197 1.313,-0.25 1.929,-0.028c0.616,0.221 1.141,0.751 1.245,1.397c0.052,0.321 0.006,0.668 0.159,0.954c0.164,0.305 0.508,0.458 0.768,0.686c0.406,0.357 0.605,0.934 0.506,1.466c-0.054,0.29 -0.191,0.572 -0.167,0.867c0.024,0.3 0.212,0.561 0.415,0.784c0.202,0.223 0.43,0.431 0.566,0.699c0.137,0.268 0.161,0.623 -0.036,0.85c-0.22,0.253 -0.605,0.253 -0.941,0.244c-1.169,-0.031 -2.338,0.083 -3.502,0.196" style="fill:#ff4f5b;fill-rule:nonzero;"/><path d="M85.706,55.39c-0.012,-0.574 -0.016,-1.064 -0.016,-1.064c0,0 1.398,-0.177 1.458,-1.603c0.06,-1.427 -0.082,-4.712 -0.082,-4.712l-2.572,-1.235l-2.245,2.559l0.078,6.109c0.012,0.92 0.758,1.661 1.678,1.667c0.95,0.007 1.719,-0.772 1.701,-1.721" style="fill:#ffbf9d;fill-rule:nonzero;"/><path d="M86.706,50.412c0.001,0.1 -0.077,0.183 -0.175,0.185c-0.098,0.002 -0.179,-0.078 -0.181,-0.179c-0.001,-0.101 0.077,-0.184 0.175,-0.186c0.098,-0.002 0.179,0.079 0.181,0.18" style="fill:#1a2e35;fill-rule:nonzero;"/><path d="M86.998,50.21c-0.023,0.024 -0.156,-0.089 -0.348,-0.096c-0.191,-0.01 -0.333,0.09 -0.353,0.064c-0.01,-0.011 0.013,-0.055 0.075,-0.101c0.06,-0.045 0.164,-0.087 0.283,-0.081c0.12,0.005 0.219,0.056 0.276,0.107c0.059,0.05 0.078,0.096 0.067,0.107" style="fill:#1a2e35;fill-rule:nonzero;"/><path d="M84.623,50.412c0.002,0.1 -0.076,0.183 -0.175,0.185c-0.098,0.002 -0.179,-0.078 -0.18,-0.179c-0.002,-0.101 0.076,-0.184 0.174,-0.186c0.098,-0.002 0.179,0.079 0.181,0.18" style="fill:#1a2e35;fill-rule:nonzero;"/><path d="M84.877,50.247c-0.023,0.024 -0.156,-0.089 -0.348,-0.096c-0.191,-0.01 -0.333,0.09 -0.354,0.064c-0.01,-0.012 0.013,-0.056 0.076,-0.101c0.06,-0.045 0.164,-0.087 0.283,-0.082c0.12,0.006 0.219,0.057 0.276,0.107c0.058,0.051 0.078,0.097 0.067,0.108" style="fill:#1a2e35;fill-rule:nonzero;"/><path d="M85.596,51.893c-0.001,-0.011 0.118,-0.029 0.312,-0.047c0.049,-0.004 0.095,-0.012 0.104,-0.048c0.012,-0.037 -0.007,-0.094 -0.03,-0.156c-0.044,-0.129 -0.09,-0.264 -0.139,-0.405c-0.192,-0.576 -0.33,-1.049 -0.308,-1.056c0.021,-0.008 0.195,0.453 0.387,1.029c0.046,0.142 0.09,0.277 0.132,0.407c0.018,0.06 0.048,0.129 0.022,0.206c-0.014,0.039 -0.05,0.066 -0.082,0.074c-0.031,0.009 -0.059,0.008 -0.083,0.009c-0.194,0.003 -0.315,-0.001 -0.315,-0.013" style="fill:#1a2e35;fill-rule:nonzero;"/><path d="M85.69,54.326c0,0 -0.935,0.027 -1.851,-0.606c0,0 0.435,1.039 1.827,0.956l0.024,-0.35Z" style="fill:#ff9a6c;fill-rule:nonzero;"/><path d="M78.93,53.732c0.14,-0.133 0.305,-0.251 0.386,-0.426c0.133,-0.285 0.003,-0.62 -0.143,-0.898c-0.147,-0.278 -0.318,-0.577 -0.264,-0.887c0.094,-0.544 0.8,-0.769 1.005,-1.282c0.182,-0.459 -0.089,-1.027 0.155,-1.458c0.198,-0.349 0.656,-0.46 0.916,-0.766c0.201,-0.236 0.262,-0.558 0.395,-0.838c0.237,-0.502 0.733,-0.872 1.281,-0.958c0.527,-0.082 1.087,0.103 1.467,0.478c0.768,-0.22 1.627,-0.056 2.318,0.358c0.302,0.181 0.588,0.419 0.733,0.74c0.129,0.288 0.135,0.614 0.138,0.929c0.003,0.226 0.005,0.452 0.008,0.677c0,0.058 0,0.119 -0.032,0.167c-0.051,0.077 -0.157,0.088 -0.249,0.092c-0.348,0.013 -0.697,0.026 -1.045,0.039c-0.071,0.003 -0.147,0.004 -0.209,-0.032c-0.107,-0.064 -0.174,-0.206 -0.164,-0.331c0.008,-0.1 0.003,-0.3 0.005,-0.357c-0.047,0.223 -0.09,0.265 -0.123,0.405c-0.035,0.143 -0.097,0.292 -0.226,0.363c-0.09,0.049 -0.198,0.051 -0.301,0.05c-0.15,-0.001 -0.301,-0.004 -0.451,-0.011c-0.075,-0.003 -0.155,-0.008 -0.214,-0.054c-0.095,-0.074 -0.096,-0.216 -0.079,-0.335c0.018,-0.12 0.068,-0.244 0.071,-0.467c-0.135,0.265 -0.199,0.596 -0.366,0.641c-0.181,0.048 -0.453,-0.021 -0.504,-0.037c-0.168,-0.053 -0.287,-0.095 -0.409,-0.134c0.011,0.069 0.027,0.138 0.051,0.205c0.127,0.343 0.412,0.672 0.314,1.024c-0.089,0.32 -0.451,0.475 -0.635,0.751c-0.2,0.301 -0.159,0.703 -0.04,1.045c0.119,0.341 0.307,0.659 0.387,1.011c0.08,0.353 0.023,0.772 -0.265,0.99c-0.222,0.168 -0.521,0.177 -0.798,0.18c-0.846,0.007 -1.691,0.015 -2.537,0.023c-0.163,0.001 -0.331,0.002 -0.485,-0.053c-0.154,-0.055 -0.295,-0.178 -0.323,-0.339c-0.033,-0.191 0.093,-0.371 0.232,-0.505" style="fill:#ff4f5b;fill-rule:nonzero;"/><path d="M88.358,52.96c-0.003,0.002 -0.024,-0.026 -0.051,-0.087c-0.027,-0.06 -0.057,-0.156 -0.06,-0.282c-0.017,-0.255 0.103,-0.617 0.328,-0.996c0.105,-0.193 0.226,-0.403 0.29,-0.644c0.067,-0.24 0.044,-0.516 -0.083,-0.764c-0.064,-0.122 -0.151,-0.238 -0.262,-0.33c-0.107,-0.096 -0.242,-0.156 -0.388,-0.217c-0.145,-0.063 -0.305,-0.121 -0.44,-0.245c-0.14,-0.121 -0.205,-0.316 -0.209,-0.491c-0.01,-0.176 0.015,-0.342 0.004,-0.498c-0.007,-0.157 -0.037,-0.311 -0.087,-0.455c-0.104,-0.288 -0.273,-0.541 -0.477,-0.738c-0.407,-0.403 -0.923,-0.569 -1.35,-0.616c-0.433,-0.049 -0.788,0.007 -1.027,0.053c-0.24,0.049 -0.371,0.091 -0.374,0.081c-0.001,-0.004 0.03,-0.019 0.09,-0.043c0.061,-0.024 0.152,-0.055 0.272,-0.087c0.239,-0.062 0.599,-0.134 1.048,-0.095c0.441,0.035 0.989,0.199 1.424,0.621c0.218,0.205 0.401,0.472 0.514,0.781c0.055,0.155 0.089,0.321 0.097,0.492c0.01,0.171 -0.014,0.338 -0.004,0.497c0.006,0.16 0.056,0.305 0.167,0.403c0.108,0.101 0.256,0.16 0.401,0.223c0.145,0.06 0.3,0.13 0.42,0.24c0.124,0.104 0.218,0.234 0.288,0.37c0.138,0.273 0.158,0.588 0.08,0.846c-0.074,0.26 -0.204,0.471 -0.314,0.661c-0.234,0.372 -0.357,0.707 -0.358,0.95c-0.006,0.243 0.076,0.365 0.061,0.37" style="fill:#ff4f5b;fill-rule:nonzero;"/><path d="M78.48,51.128c0.007,-0.012 0.087,0.067 0.269,0.106c0.172,0.039 0.476,0.019 0.705,-0.214c0.229,-0.229 0.333,-0.656 0.174,-1.066c-0.064,-0.204 -0.179,-0.457 -0.08,-0.727c0.101,-0.264 0.35,-0.417 0.585,-0.528c0.237,-0.111 0.473,-0.202 0.624,-0.373c0.153,-0.169 0.205,-0.399 0.248,-0.616c0.043,-0.219 0.077,-0.438 0.169,-0.629c0.088,-0.192 0.226,-0.338 0.365,-0.445c0.284,-0.216 0.581,-0.265 0.772,-0.262c0.098,0.002 0.173,0.015 0.222,0.028c0.049,0.014 0.074,0.024 0.072,0.028c-0.002,0.012 -0.106,-0.015 -0.292,-0.005c-0.183,0.012 -0.46,0.073 -0.717,0.284c-0.126,0.104 -0.248,0.242 -0.324,0.417c-0.079,0.174 -0.109,0.383 -0.149,0.606c-0.041,0.22 -0.091,0.475 -0.271,0.679c-0.179,0.202 -0.435,0.297 -0.664,0.405c-0.226,0.106 -0.443,0.249 -0.521,0.456c-0.08,0.206 0.008,0.432 0.075,0.646c0.165,0.441 0.043,0.923 -0.223,1.167c-0.27,0.254 -0.601,0.254 -0.783,0.198c-0.094,-0.027 -0.161,-0.068 -0.201,-0.099c-0.04,-0.033 -0.057,-0.053 -0.055,-0.056" style="fill:#ff4f5b;fill-rule:nonzero;"/><path d="M85.527,52.396c-0.022,-0.12 -0.109,-0.227 -0.222,-0.274c-0.079,-0.032 -0.172,-0.035 -0.247,0.005c-0.075,0.04 -0.127,0.126 -0.114,0.21c0.015,0.095 0.104,0.164 0.198,0.184c0.094,0.02 0.191,0.001 0.284,-0.019c0.026,-0.006 0.053,-0.012 0.074,-0.028c0.022,-0.015 0.037,-0.042 0.031,-0.068" style="fill:#ff9a6c;fill-rule:nonzero;"/><path d="M85.052,51.886c0.036,0 0.037,0.219 0.209,0.381c0.172,0.163 0.391,0.151 0.393,0.187c0.003,0.016 -0.049,0.045 -0.144,0.046c-0.093,0.001 -0.229,-0.036 -0.338,-0.138c-0.108,-0.103 -0.153,-0.237 -0.157,-0.33c-0.005,-0.094 0.021,-0.148 0.037,-0.146" style="fill:#1a2e35;fill-rule:nonzero;"/><path d="M78.435,70.451c0,0 14.538,-3.046 15.946,-2.379c1.408,0.667 7.782,17.727 7.782,17.727l-4.573,2.744l-6.161,-15.144c0,0 -10.179,3.718 -11.957,3.348c-1.778,-0.369 -1.037,-6.296 -1.037,-6.296" style="fill:#1a2e35;fill-rule:nonzero;"/><path d="M84.933,71.306c0.222,0.074 8.632,3.532 9.225,4.643c0.593,1.111 -0.919,20.309 -0.919,20.309c-0.222,-0.02 -5.267,-0.44 -5.267,-0.44l0.835,-16.705l-9.335,-2.366l5.461,-5.441Z" style="fill:#1a2e35;fill-rule:nonzero;"/><path d="M79.423,76.785c0.001,0.004 0.045,-0.001 0.127,-0.014c0.095,-0.016 0.214,-0.036 0.36,-0.06c0.326,-0.06 0.773,-0.143 1.319,-0.243c1.112,-0.212 2.649,-0.508 4.327,-0.928c0.838,-0.214 1.63,-0.444 2.344,-0.675c0.712,-0.235 1.346,-0.469 1.869,-0.687c0.523,-0.217 0.942,-0.406 1.224,-0.55c0.133,-0.067 0.24,-0.121 0.326,-0.165c0.074,-0.038 0.112,-0.061 0.11,-0.064c-0.002,-0.004 -0.043,0.012 -0.12,0.044c-0.088,0.038 -0.198,0.086 -0.334,0.145c-0.288,0.131 -0.71,0.308 -1.236,0.515c-0.526,0.209 -1.16,0.434 -1.871,0.663c-0.713,0.224 -1.504,0.451 -2.34,0.663c-1.674,0.42 -3.207,0.728 -4.315,0.96c-0.543,0.115 -0.987,0.209 -1.312,0.278c-0.144,0.033 -0.262,0.061 -0.355,0.082c-0.081,0.02 -0.123,0.032 -0.123,0.036" style="fill:#375a64;fill-rule:nonzero;"/><path d="M94.156,80.188c0.008,0.001 0.023,-0.098 0.045,-0.276c0.021,-0.202 0.048,-0.455 0.08,-0.757c0.031,-0.328 0.067,-0.707 0.105,-1.123c0.035,-0.421 0.095,-0.896 0.003,-1.392c-0.089,-0.501 -0.381,-0.916 -0.699,-1.204c-0.32,-0.293 -0.666,-0.479 -0.958,-0.615c-0.294,-0.135 -0.54,-0.221 -0.71,-0.279c-0.171,-0.058 -0.266,-0.085 -0.269,-0.078c-0.008,0.02 0.369,0.152 0.945,0.429c0.284,0.143 0.616,0.333 0.92,0.62c0.304,0.283 0.575,0.675 0.659,1.148c0.088,0.472 0.034,0.94 0.005,1.362c-0.03,0.417 -0.057,0.797 -0.081,1.126c-0.017,0.303 -0.032,0.557 -0.044,0.759c-0.008,0.18 -0.009,0.279 -0.001,0.28" style="fill:#375a64;fill-rule:nonzero;"/><path d="M89.96,78.603c-0.013,-0.029 -0.277,0.059 -0.589,0.197c-0.313,0.138 -0.556,0.272 -0.544,0.301c0.013,0.029 0.277,-0.06 0.59,-0.197c0.312,-0.138 0.556,-0.273 0.543,-0.301" style="fill:#375a64;fill-rule:nonzero;"/><path d="M89.538,78.098c-0.03,-0.013 -0.164,0.252 -0.382,0.539c-0.217,0.289 -0.435,0.489 -0.414,0.515c0.017,0.024 0.277,-0.144 0.504,-0.446c0.229,-0.301 0.32,-0.598 0.292,-0.608" style="fill:#375a64;fill-rule:nonzero;"/><path d="M63.768,97.296l-0.142,-2.002l3.748,-0.291l0.24,2.927l-0.232,0.033c-1.029,0.138 -5.246,0.627 -5.953,0.472c-0.79,-0.175 2.339,-1.139 2.339,-1.139" style="fill:#ff4f5b;fill-rule:nonzero;"/><g opacity="0.3"><path d="M66.252,98.006c0.029,-0.317 0.181,-0.622 0.417,-0.837c0.235,-0.214 0.536,-0.341 0.855,-0.34l0.082,1.048l-1.354,0.129Z" style="fill:#fff;fill-rule:nonzero;"/></g><g opacity="0.3"><path d="M62.244,97.823c0,0 -1.092,0.408 -0.938,0.581c0.153,0.173 4.433,-0.161 6.308,-0.474l-0.013,-0.083l-4.988,0.433c0,0 -0.15,-0.465 -0.369,-0.457" style="fill:#fff;fill-rule:nonzero;"/></g><path d="M67.66,97.84c0,0.002 -0.022,0.005 -0.064,0.012c-0.055,0.008 -0.116,0.016 -0.184,0.025c-0.185,0.023 -0.411,0.05 -0.679,0.083c-0.574,0.066 -1.368,0.146 -2.246,0.215c-0.879,0.07 -1.676,0.115 -2.253,0.14c-0.269,0.01 -0.498,0.018 -0.683,0.025c-0.069,0.002 -0.13,0.003 -0.186,0.004c-0.043,0 -0.065,0 -0.065,-0.002c0,-0.002 0.022,-0.004 0.064,-0.008c0.056,-0.003 0.117,-0.007 0.186,-0.011c0.185,-0.011 0.414,-0.024 0.682,-0.04c0.577,-0.033 1.373,-0.084 2.251,-0.153c0.878,-0.069 1.672,-0.145 2.246,-0.202c0.269,-0.027 0.496,-0.05 0.681,-0.068c0.068,-0.006 0.129,-0.012 0.185,-0.017c0.042,-0.004 0.065,-0.005 0.065,-0.003" style="fill:#1a2e35;fill-rule:nonzero;"/><path d="M62.618,98.338c-0.013,0.003 -0.037,-0.159 -0.152,-0.315c-0.113,-0.159 -0.26,-0.231 -0.253,-0.243c0.002,-0.012 0.168,0.046 0.29,0.216c0.123,0.168 0.127,0.344 0.115,0.342" style="fill:#1a2e35;fill-rule:nonzero;"/><path d="M63.68,97.69c-0.01,0.008 -0.068,-0.053 -0.129,-0.134c-0.062,-0.082 -0.103,-0.155 -0.093,-0.163c0.01,-0.007 0.068,0.053 0.129,0.135c0.062,0.082 0.104,0.155 0.093,0.162" style="fill:#1a2e35;fill-rule:nonzero;"/><path d="M63.971,97.506c-0.007,0.01 -0.07,-0.025 -0.139,-0.078c-0.069,-0.053 -0.119,-0.104 -0.111,-0.114c0.008,-0.01 0.07,0.025 0.139,0.078c0.069,0.053 0.119,0.104 0.111,0.114" style="fill:#1a2e35;fill-rule:nonzero;"/><path d="M64.136,97.137c0.001,0.013 -0.086,0.031 -0.194,0.04c-0.108,0.01 -0.197,0.008 -0.198,-0.005c-0.001,-0.012 0.086,-0.03 0.194,-0.04c0.108,-0.01 0.197,-0.007 0.198,0.005" style="fill:#1a2e35;fill-rule:nonzero;"/><path d="M64.182,96.883c0.005,0.01 -0.087,0.061 -0.213,0.08c-0.126,0.02 -0.23,0 -0.228,-0.012c0.001,-0.013 0.101,-0.014 0.221,-0.033c0.12,-0.018 0.215,-0.048 0.22,-0.035" style="fill:#1a2e35;fill-rule:nonzero;"/><path d="M63.528,97.373c0,0.005 -0.091,0.024 -0.241,0.017c-0.075,-0.003 -0.164,-0.013 -0.261,-0.036c-0.048,-0.013 -0.098,-0.022 -0.152,-0.049c-0.025,-0.014 -0.053,-0.034 -0.065,-0.07c-0.013,-0.036 0.003,-0.078 0.029,-0.099c0.221,-0.138 0.461,-0.026 0.556,0.086c0.052,0.057 0.078,0.115 0.091,0.155c0.013,0.04 0.014,0.064 0.012,0.064c-0.009,0.004 -0.024,-0.093 -0.126,-0.197c-0.05,-0.05 -0.124,-0.098 -0.216,-0.117c-0.087,-0.019 -0.209,-0.016 -0.286,0.042c-0.036,0.031 -0.018,0.075 0.027,0.097c0.042,0.022 0.094,0.034 0.14,0.047c0.094,0.024 0.18,0.038 0.253,0.045c0.146,0.015 0.238,0.008 0.239,0.015" style="fill:#1a2e35;fill-rule:nonzero;"/><path d="M63.466,97.39c-0.003,0.003 -0.043,-0.056 -0.041,-0.165c0.002,-0.054 0.017,-0.118 0.052,-0.181c0.039,-0.057 0.088,-0.135 0.191,-0.139c0.057,0.003 0.089,0.064 0.083,0.106c-0.001,0.042 -0.017,0.08 -0.032,0.111c-0.031,0.063 -0.068,0.114 -0.103,0.154c-0.069,0.08 -0.127,0.113 -0.13,0.108c-0.005,-0.005 0.045,-0.047 0.105,-0.128c0.03,-0.041 0.062,-0.092 0.09,-0.152c0.029,-0.054 0.044,-0.147 -0.017,-0.153c-0.061,-0.001 -0.118,0.063 -0.151,0.114c-0.033,0.055 -0.05,0.113 -0.056,0.162c-0.01,0.1 0.017,0.16 0.009,0.163" style="fill:#1a2e35;fill-rule:nonzero;"/><path d="M67.503,96.82c0,0.009 -0.108,-0.002 -0.276,0.032c-0.166,0.031 -0.394,0.119 -0.585,0.296c-0.19,0.177 -0.292,0.399 -0.335,0.563c-0.045,0.165 -0.042,0.273 -0.051,0.273c-0.002,0 -0.006,-0.027 -0.006,-0.076c0,-0.048 0.007,-0.119 0.025,-0.205c0.036,-0.17 0.138,-0.403 0.336,-0.589c0.199,-0.184 0.438,-0.27 0.611,-0.294c0.086,-0.013 0.157,-0.014 0.206,-0.011c0.049,0.003 0.075,0.008 0.075,0.011" style="fill:#1a2e35;fill-rule:nonzero;"/><path d="M66.993,95.291c0.012,-0.001 0.054,0.342 0.092,0.767c0.039,0.425 0.06,0.77 0.048,0.772c-0.013,0.001 -0.054,-0.343 -0.093,-0.768c-0.039,-0.425 -0.06,-0.77 -0.047,-0.771" style="fill:#1a2e35;fill-rule:nonzero;"/><path d="M65.752,97.677c0.003,0.012 -0.239,0.071 -0.543,0.098c-0.304,0.027 -0.552,0.01 -0.551,-0.002c0,-0.013 0.246,-0.017 0.547,-0.044c0.302,-0.026 0.545,-0.065 0.547,-0.052" style="fill:#1a2e35;fill-rule:nonzero;"/><path d="M66.487,97.619c0.009,0.008 -0.016,0.053 -0.037,0.111c-0.021,0.058 -0.03,0.11 -0.043,0.11c-0.013,0.001 -0.024,-0.058 0,-0.125c0.024,-0.067 0.071,-0.105 0.08,-0.096" style="fill:#1a2e35;fill-rule:nonzero;"/><path d="M66.737,97.253c0.009,0.008 -0.012,0.049 -0.048,0.091c-0.035,0.042 -0.072,0.07 -0.082,0.062c-0.009,-0.008 0.012,-0.049 0.047,-0.091c0.036,-0.043 0.073,-0.07 0.083,-0.062" style="fill:#1a2e35;fill-rule:nonzero;"/><path d="M67.12,97.064c-0.001,0.013 -0.051,0.017 -0.105,0.04c-0.054,0.023 -0.091,0.057 -0.101,0.049c-0.011,-0.006 0.017,-0.062 0.083,-0.091c0.067,-0.028 0.126,-0.01 0.123,0.002" style="fill:#1a2e35;fill-rule:nonzero;"/><path d="M67.397,96.968c0.005,0.011 -0.015,0.032 -0.045,0.047c-0.03,0.014 -0.059,0.017 -0.065,0.005c-0.005,-0.011 0.015,-0.032 0.045,-0.047c0.03,-0.014 0.059,-0.016 0.065,-0.005" style="fill:#1a2e35;fill-rule:nonzero;"/><path d="M55.442,97.297l0.051,-2.006l3.759,0.07l-0.043,2.936l-0.233,0.011c-1.039,0.038 -5.283,0.12 -5.972,-0.103c-0.769,-0.249 2.438,-0.908 2.438,-0.908" style="fill:#ff4f5b;fill-rule:nonzero;"/><g opacity="0.3"><path d="M57.847,98.242c0.059,-0.313 0.239,-0.601 0.494,-0.792c0.256,-0.191 0.567,-0.288 0.884,-0.257l-0.019,1.051l-1.359,-0.002Z" style="fill:#fff;fill-rule:nonzero;"/></g><g opacity="0.3"><path d="M53.874,97.675c0,0 -1.125,0.301 -0.989,0.488c0.136,0.187 4.428,0.266 6.324,0.134l-0.004,-0.084l-5.007,-0.048c0,0 -0.105,-0.477 -0.324,-0.49" style="fill:#fff;fill-rule:nonzero;"/></g><path d="M59.264,98.212c0,0.002 -0.023,0.004 -0.065,0.006c-0.056,0.002 -0.117,0.005 -0.186,0.008c-0.186,0.004 -0.414,0.01 -0.684,0.017c-0.577,0.01 -1.375,0.014 -2.256,-0.002c-0.882,-0.015 -1.679,-0.047 -2.256,-0.077c-0.269,-0.016 -0.497,-0.03 -0.682,-0.041c-0.069,-0.005 -0.13,-0.01 -0.186,-0.014c-0.042,-0.004 -0.064,-0.007 -0.064,-0.008c0,-0.002 0.022,-0.002 0.065,-0.002c0.055,0.002 0.117,0.004 0.185,0.006c0.186,0.007 0.414,0.016 0.684,0.027c0.576,0.022 1.374,0.048 2.255,0.064c0.88,0.015 1.678,0.016 2.255,0.014c0.27,-0.001 0.498,-0.001 0.684,-0.002c0.069,0 0.13,0 0.186,0.001c0.042,0 0.065,0.001 0.065,0.003" style="fill:#1a2e35;fill-rule:nonzero;"/><path d="M54.198,98.223c-0.014,0.002 -0.022,-0.162 -0.122,-0.328c-0.097,-0.169 -0.236,-0.255 -0.228,-0.266c0.003,-0.011 0.162,0.062 0.267,0.243c0.107,0.179 0.094,0.354 0.083,0.351" style="fill:#1a2e35;fill-rule:nonzero;"/><path d="M55.317,97.681c-0.011,0.006 -0.063,-0.059 -0.116,-0.147c-0.053,-0.087 -0.088,-0.163 -0.077,-0.17c0.011,-0.006 0.063,0.059 0.116,0.146c0.053,0.088 0.088,0.164 0.077,0.171" style="fill:#1a2e35;fill-rule:nonzero;"/><path d="M55.624,97.525c-0.008,0.009 -0.067,-0.031 -0.131,-0.091c-0.063,-0.059 -0.108,-0.115 -0.1,-0.124c0.009,-0.009 0.068,0.032 0.131,0.091c0.064,0.059 0.109,0.115 0.1,0.124" style="fill:#1a2e35;fill-rule:nonzero;"/><path d="M55.823,97.174c0,0.013 -0.088,0.022 -0.197,0.021c-0.108,0 -0.196,-0.011 -0.196,-0.024c0,-0.013 0.088,-0.022 0.197,-0.021c0.108,0 0.196,0.011 0.196,0.024" style="fill:#1a2e35;fill-rule:nonzero;"/><path d="M55.894,96.925c0.004,0.011 -0.093,0.053 -0.22,0.06c-0.128,0.007 -0.228,-0.023 -0.226,-0.034c0.003,-0.013 0.102,-0.004 0.223,-0.012c0.121,-0.006 0.219,-0.027 0.223,-0.014" style="fill:#1a2e35;fill-rule:nonzero;"/><path d="M55.195,97.35c0.001,0.006 -0.092,0.015 -0.241,-0.005c-0.074,-0.011 -0.162,-0.03 -0.256,-0.062c-0.047,-0.018 -0.096,-0.031 -0.146,-0.063c-0.024,-0.017 -0.05,-0.04 -0.059,-0.076c-0.009,-0.037 0.011,-0.077 0.039,-0.096c0.233,-0.116 0.461,0.019 0.545,0.139c0.046,0.062 0.067,0.122 0.076,0.163c0.009,0.041 0.008,0.065 0.005,0.065c-0.009,0.003 -0.015,-0.095 -0.106,-0.208c-0.046,-0.055 -0.115,-0.109 -0.204,-0.137c-0.085,-0.027 -0.206,-0.036 -0.288,0.014c-0.039,0.028 -0.025,0.073 0.017,0.099c0.039,0.026 0.09,0.043 0.135,0.06c0.09,0.034 0.175,0.056 0.247,0.07c0.144,0.028 0.237,0.03 0.236,0.037" style="fill:#1a2e35;fill-rule:nonzero;"/><path d="M55.133,97.361c-0.004,0.003 -0.038,-0.059 -0.025,-0.168c0.007,-0.053 0.027,-0.116 0.069,-0.175c0.044,-0.053 0.1,-0.126 0.203,-0.12c0.056,0.009 0.082,0.073 0.073,0.113c-0.005,0.043 -0.025,0.078 -0.043,0.107c-0.037,0.06 -0.079,0.108 -0.117,0.144c-0.077,0.073 -0.137,0.1 -0.14,0.096c-0.004,-0.006 0.049,-0.043 0.117,-0.118c0.034,-0.038 0.071,-0.086 0.104,-0.143c0.034,-0.05 0.058,-0.142 -0.002,-0.154c-0.061,-0.007 -0.123,0.052 -0.161,0.1c-0.039,0.051 -0.061,0.107 -0.071,0.156c-0.021,0.097 0.001,0.161 -0.007,0.162" style="fill:#1a2e35;fill-rule:nonzero;"/><path d="M59.206,97.182c-0.001,0.009 -0.108,-0.012 -0.278,0.005c-0.169,0.016 -0.404,0.08 -0.611,0.239c-0.206,0.158 -0.329,0.369 -0.388,0.528c-0.06,0.16 -0.068,0.268 -0.076,0.267c-0.003,-0.001 -0.004,-0.027 0.001,-0.076c0.005,-0.049 0.018,-0.119 0.045,-0.202c0.052,-0.166 0.175,-0.388 0.391,-0.554c0.215,-0.165 0.462,-0.226 0.635,-0.234c0.088,-0.005 0.159,0.001 0.207,0.009c0.048,0.008 0.074,0.016 0.074,0.018" style="fill:#1a2e35;fill-rule:nonzero;"/><path d="M58.845,95.611c0.012,0 0.02,0.346 0.018,0.772c-0.002,0.427 -0.014,0.773 -0.027,0.773c-0.012,0 -0.021,-0.346 -0.018,-0.773c0.002,-0.426 0.014,-0.772 0.027,-0.772" style="fill:#1a2e35;fill-rule:nonzero;"/><path d="M57.38,97.867c0.002,0.012 -0.244,0.048 -0.55,0.045c-0.305,-0.003 -0.55,-0.043 -0.548,-0.054c0.001,-0.014 0.246,0.006 0.549,0.008c0.303,0.003 0.548,-0.012 0.549,0.001" style="fill:#1a2e35;fill-rule:nonzero;"/><path d="M58.117,97.88c0.009,0.009 -0.021,0.051 -0.047,0.107c-0.027,0.056 -0.041,0.106 -0.054,0.104c-0.012,0 -0.018,-0.059 0.013,-0.123c0.03,-0.065 0.08,-0.098 0.088,-0.088" style="fill:#1a2e35;fill-rule:nonzero;"/><path d="M58.401,97.539c0.009,0.009 -0.016,0.048 -0.056,0.087c-0.04,0.038 -0.079,0.062 -0.087,0.053c-0.009,-0.009 0.016,-0.047 0.055,-0.086c0.04,-0.039 0.079,-0.063 0.088,-0.054" style="fill:#1a2e35;fill-rule:nonzero;"/><path d="M58.801,97.388c-0.003,0.013 -0.053,0.012 -0.108,0.03c-0.056,0.017 -0.096,0.047 -0.106,0.038c-0.01,-0.007 0.023,-0.06 0.092,-0.081c0.069,-0.022 0.126,0.002 0.122,0.013" style="fill:#1a2e35;fill-rule:nonzero;"/><path d="M59.085,97.319c0.005,0.012 -0.017,0.031 -0.049,0.042c-0.031,0.012 -0.06,0.012 -0.064,0c-0.005,-0.012 0.017,-0.031 0.049,-0.043c0.031,-0.011 0.06,-0.011 0.064,0.001" style="fill:#1a2e35;fill-rule:nonzero;"/><path d="M58.559,72.174c5.562,-0.546 9.959,-0.125 9.959,-0.125l-4.21,6.043l-3.797,0.015l-0.796,18.57l-5.037,0l0.48,-20.713c0.045,-1.929 1.488,-3.537 3.401,-3.79" style="fill:#1a2e35;fill-rule:nonzero;"/><path d="M59.882,95.246c0,0.036 -1.169,0.065 -2.61,0.065c-1.442,0 -2.611,-0.029 -2.611,-0.065c0,-0.036 1.169,-0.065 2.611,-0.065c1.441,0 2.61,0.029 2.61,0.065" style="fill:#375a64;fill-rule:nonzero;"/><path d="M61.878,74.362c-0.001,0.005 -0.086,-0.003 -0.246,-0.015c-0.161,-0.014 -0.398,-0.031 -0.704,-0.043c-0.305,-0.01 -0.681,-0.017 -1.112,0.021c-0.216,0.018 -0.446,0.05 -0.681,0.113c-0.229,0.063 -0.488,0.152 -0.652,0.353c-0.079,0.097 -0.129,0.227 -0.171,0.363c-0.043,0.134 -0.079,0.275 -0.113,0.42c-0.065,0.29 -0.122,0.594 -0.144,0.913c-0.058,0.642 -0.112,1.328 -0.163,2.051c-0.099,1.445 -0.172,3.036 -0.231,4.708c-0.112,3.345 -0.242,6.373 -0.333,8.564c-0.049,1.087 -0.089,1.97 -0.118,2.594c-0.016,0.298 -0.029,0.533 -0.038,0.705c-0.006,0.074 -0.01,0.134 -0.014,0.183c-0.003,0.041 -0.007,0.062 -0.009,0.062c-0.002,0 -0.003,-0.021 -0.004,-0.063c0,-0.049 0,-0.109 0,-0.183c0.004,-0.172 0.009,-0.408 0.015,-0.706c0.018,-0.624 0.044,-1.508 0.076,-2.596c0.076,-2.201 0.18,-5.224 0.295,-8.565c0.059,-1.672 0.136,-3.265 0.242,-4.712c0.054,-0.723 0.112,-1.41 0.174,-2.052c0.026,-0.324 0.086,-0.633 0.155,-0.926c0.035,-0.147 0.073,-0.289 0.119,-0.427c0.045,-0.138 0.096,-0.274 0.191,-0.392c0.193,-0.227 0.465,-0.311 0.702,-0.375c0.243,-0.061 0.477,-0.09 0.696,-0.105c0.437,-0.03 0.814,-0.017 1.12,0.001c0.307,0.02 0.544,0.046 0.704,0.068c0.081,0.01 0.141,0.02 0.182,0.027c0.041,0.007 0.062,0.012 0.062,0.014" style="fill:#375a64;fill-rule:nonzero;"/><path d="M67.806,78.568l0.364,17.833l-5.828,0.285c0,0 -0.927,-17.47 -0.464,-22.428c0.316,-3.394 13.264,-1.935 13.264,-1.935c0.188,6.756 -7.336,6.245 -7.336,6.245" style="fill:#1a2e35;fill-rule:nonzero;"/><path d="M68.17,94.994c0.001,0.018 -0.316,0.051 -0.83,0.088c-0.514,0.038 -1.225,0.081 -2.011,0.121c-0.786,0.04 -1.498,0.068 -2.014,0.083c-0.516,0.014 -0.835,0.014 -0.836,-0.004c-0.001,-0.018 0.317,-0.051 0.831,-0.088c0.514,-0.038 1.225,-0.081 2.011,-0.121c0.785,-0.04 1.497,-0.068 2.013,-0.082c0.515,-0.014 0.835,-0.014 0.836,0.003" style="fill:#375a64;fill-rule:nonzero;"/><path d="M73.886,72.194c0.002,0 0.004,0.026 -0.002,0.077c-0.006,0.051 -0.009,0.127 -0.026,0.226c-0.035,0.196 -0.111,0.487 -0.304,0.818c-0.193,0.326 -0.516,0.69 -0.999,0.946c-0.242,0.125 -0.521,0.221 -0.828,0.264c-0.309,0.042 -0.63,0.024 -0.968,0.029c-0.676,0.001 -1.416,0.002 -2.21,0.003c-0.397,0 -0.808,0.001 -1.231,0.001c-0.211,0.002 -0.429,-0.004 -0.641,0.004c-0.21,0.008 -0.421,0.057 -0.617,0.146c-0.393,0.177 -0.722,0.521 -0.875,0.946c-0.079,0.213 -0.105,0.437 -0.101,0.674c0,0.239 0.001,0.48 0.001,0.723c0,0.972 0.001,1.979 0.001,3.009c-0.007,4.121 -0.014,7.851 -0.019,10.561c-0.008,1.344 -0.016,2.435 -0.021,3.2c-0.005,0.371 -0.009,0.662 -0.012,0.87c-0.002,0.094 -0.004,0.168 -0.006,0.226c-0.002,0.051 -0.005,0.077 -0.007,0.077c-0.002,0 -0.004,-0.026 -0.007,-0.077c-0.001,-0.058 -0.003,-0.132 -0.006,-0.226c-0.003,-0.208 -0.007,-0.499 -0.012,-0.87c-0.005,-0.765 -0.012,-1.856 -0.021,-3.2c-0.005,-2.71 -0.012,-6.44 -0.019,-10.561c0.001,-1.03 0.001,-2.037 0.001,-3.009c0.001,-0.243 0.001,-0.484 0.001,-0.723c-0.004,-0.238 0.025,-0.491 0.111,-0.717c0.165,-0.456 0.519,-0.824 0.941,-1.012c0.211,-0.095 0.437,-0.147 0.662,-0.155c0.222,-0.006 0.434,0 0.646,-0.001c0.423,0.003 0.834,0.005 1.231,0.006c0.794,0.005 1.534,0.009 2.211,0.013c0.337,-0.002 0.661,0.018 0.956,-0.019c0.297,-0.038 0.569,-0.128 0.805,-0.247c0.473,-0.242 0.794,-0.592 0.99,-0.908c0.195,-0.32 0.279,-0.604 0.321,-0.796c0.021,-0.097 0.029,-0.172 0.039,-0.222c0.01,-0.05 0.013,-0.076 0.015,-0.076" style="fill:#375a64;fill-rule:nonzero;"/><path d="M67.88,77.071c0.036,0.002 0.043,0.391 0.016,0.867c-0.027,0.477 -0.078,0.861 -0.114,0.859c-0.036,-0.002 -0.043,-0.39 -0.016,-0.866c0.027,-0.477 0.078,-0.862 0.114,-0.86" style="fill:#375a64;fill-rule:nonzero;"/><path d="M68.106,72.047c0,0.009 -0.151,0.026 -0.424,0.047c-0.295,0.022 -0.685,0.051 -1.156,0.086c-0.487,0.039 -1.068,0.09 -1.704,0.19c-0.628,0.108 -1.326,0.3 -1.939,0.704c-0.301,0.204 -0.556,0.469 -0.663,0.79c-0.111,0.326 -0.166,0.66 -0.205,0.979c-0.075,0.638 -0.082,1.222 -0.096,1.711c-0.011,0.489 -0.021,0.886 -0.038,1.159c-0.007,0.137 -0.016,0.243 -0.024,0.315c-0.008,0.072 -0.014,0.11 -0.019,0.109c-0.01,0 -0.007,-0.152 -0.007,-0.425c-0.001,-0.296 -0.003,-0.687 -0.004,-1.16c0.002,-0.489 0,-1.074 0.069,-1.723c0.036,-0.324 0.09,-0.665 0.204,-1.007c0.117,-0.355 0.396,-0.643 0.71,-0.855c0.641,-0.422 1.351,-0.612 1.993,-0.715c0.644,-0.095 1.227,-0.137 1.717,-0.164c0.49,-0.026 0.886,-0.037 1.159,-0.044c0.275,-0.006 0.426,-0.006 0.427,0.003" style="fill:#375a64;fill-rule:nonzero;"/><path d="M59.494,61.768c0,0 1.125,7.651 4.767,7.403l-0.219,-4.147l-3.193,-2.948l-1.355,-0.308Z" style="fill:#ff9a6c;fill-rule:nonzero;"/><path d="M75.181,72.257l-0.797,-6.286l0.822,-6.434c-0.54,-3.009 -4.759,-3.217 -4.759,-3.217l-3.311,-0.053c0,0 -2.782,-0.406 -3.797,1.465l-1.873,6.706c0,0 1.291,0.184 2.493,0.228l0.083,0.731l0.02,0.001l0.349,6.613l10.77,0.246Z" style="fill:#ff4f5b;fill-rule:nonzero;"/><path d="M70.48,56.23c0.008,0.001 0.004,0.072 -0.022,0.196c-0.029,0.123 -0.081,0.304 -0.199,0.503c-0.117,0.199 -0.309,0.409 -0.571,0.569c-0.26,0.163 -0.596,0.267 -0.951,0.266c-0.722,0.008 -1.309,-0.421 -1.526,-0.827c-0.114,-0.202 -0.16,-0.385 -0.181,-0.51c-0.021,-0.126 -0.019,-0.196 -0.012,-0.197c0.028,-0.008 0.042,0.285 0.272,0.659c0.223,0.368 0.775,0.752 1.447,0.745c0.674,0.007 1.214,-0.391 1.444,-0.754c0.237,-0.371 0.273,-0.659 0.299,-0.65" style="fill:#1a2e35;fill-rule:nonzero;"/><path d="M64.261,59.163c0.036,0 0.065,0.718 0.065,1.603c0,0.885 -0.029,1.602 -0.065,1.602c-0.036,0 -0.065,-0.717 -0.065,-1.602c0,-0.885 0.029,-1.603 0.065,-1.603" style="fill:#1a2e35;fill-rule:nonzero;"/><path d="M57.983,56.006c0.1,0.118 3.721,4.96 3.721,4.96l-0.51,0.289l-3.716,-4.781l0.505,-0.468Z" style="fill:#1a2e35;fill-rule:nonzero;"/><path d="M72.53,59.834c0,0 -3.81,5.484 -4.039,5.592c-0.452,0.212 -5.664,-4.292 -6.161,-4.723c-0.068,-0.091 -0.21,-0.284 -0.487,-0.668c0,0 -0.411,-1.882 -0.85,-1.737c-0.439,0.144 0.24,0.956 -0.045,1.671c-0.286,0.714 -1.595,-0.991 -1.647,-1.144l-0.338,-0.441c0,0 -0.354,1.004 -0.33,1.423c0.077,1.342 1.347,2.938 1.347,2.938c0,0 5.704,7.066 9.61,7.285c1.796,0.101 5.821,-8.095 5.821,-8.095l-2.881,-2.101Z" style="fill:#ffbf9d;fill-rule:nonzero;"/><path d="M59.274,60.045c-0.017,0.012 -0.166,-0.191 -0.302,-0.468c-0.137,-0.276 -0.208,-0.516 -0.189,-0.524c0.021,-0.008 0.124,0.217 0.259,0.49c0.135,0.272 0.251,0.491 0.232,0.502" style="fill:#ff9a6c;fill-rule:nonzero;"/><path d="M73.412,57.158c0,0 3.787,1.598 0.892,8.293l-4.585,-2.704l3.693,-5.589Z" style="fill:#ff4f5b;fill-rule:nonzero;"/><path d="M73.488,57.277c0,0.005 -0.044,0.012 -0.127,0.023c-0.081,0.013 -0.205,0.01 -0.353,0.066c-0.302,0.077 -0.712,0.304 -1.088,0.722c-0.77,0.831 -1.413,2.281 -2.067,3.877c-0.099,0.239 -0.197,0.475 -0.29,0.699l-0.029,-0.082c1.366,0.749 2.551,1.458 3.383,1.997c0.416,0.269 0.745,0.492 0.968,0.651c0.113,0.079 0.197,0.143 0.255,0.186c0.057,0.044 0.086,0.068 0.083,0.072c-0.004,0.007 -0.132,-0.072 -0.364,-0.219c-0.248,-0.155 -0.582,-0.363 -0.989,-0.617c-0.842,-0.518 -2.032,-1.213 -3.398,-1.956l-0.051,-0.028l0.023,-0.054c0.092,-0.223 0.19,-0.459 0.289,-0.698c0.654,-1.597 1.314,-3.056 2.12,-3.891c0.393,-0.42 0.827,-0.645 1.142,-0.708c0.154,-0.049 0.282,-0.038 0.365,-0.044c0.084,-0.001 0.128,0 0.128,0.004" style="fill:#1a2e35;fill-rule:nonzero;"/><path d="M68.74,57.666c-0.975,0 -1.761,-0.796 -1.75,-1.771c0.006,-0.609 0.016,-1.135 0.016,-1.135c0,0 -1.407,-0.13 -1.51,-1.523c-0.103,-1.392 -0.059,-4.607 -0.059,-4.607c1.57,-0.792 3.446,-0.673 4.904,0.312l0.216,0.146l-0.067,6.844c-0.009,0.96 -0.79,1.734 -1.75,1.734" style="fill:#ffbf9d;fill-rule:nonzero;"/><path d="M66.971,52.379c0,0.015 -0.121,0.026 -0.316,0.03c-0.024,0.001 -0.053,0.003 -0.086,-0.005c-0.034,-0.007 -0.075,-0.034 -0.091,-0.075c-0.031,-0.081 -0.001,-0.151 0.014,-0.21c0.039,-0.13 0.079,-0.263 0.12,-0.402c0.175,-0.568 0.34,-1.022 0.369,-1.013c0.028,0.009 -0.091,0.476 -0.266,1.045c-0.044,0.138 -0.086,0.27 -0.128,0.399c-0.022,0.062 -0.038,0.117 -0.027,0.147c0.006,0.027 0.046,0.036 0.097,0.038c0.194,0.015 0.314,0.031 0.314,0.046" style="fill:#1a2e35;fill-rule:nonzero;"/><path d="M67.608,52.553c0.192,-0.131 -0.533,0.326 -0.925,0.331c0,0 0.247,0.345 0.639,0.173c0.408,-0.179 0.286,-0.504 0.286,-0.504" style="fill:#fff;fill-rule:nonzero;"/><path d="M67.003,54.74c0,0 0.885,0.018 1.784,-0.628c0,0 -0.367,1.029 -1.765,0.989l-0.019,-0.361Z" style="fill:#ff9a6c;fill-rule:nonzero;"/><path d="M70.198,50.628c0.025,-0.01 0.881,-0.121 0.8,0.889c-0.081,1.011 -1.075,0.595 -1.074,0.566c0.001,-0.029 0.274,-1.455 0.274,-1.455" style="fill:#ffbf9d;fill-rule:nonzero;"/><path d="M70.262,51.753c0.005,-0.003 0.017,0.014 0.045,0.03c0.028,0.016 0.078,0.029 0.132,0.013c0.11,-0.03 0.213,-0.193 0.233,-0.375c0.01,-0.091 -0.003,-0.181 -0.029,-0.256c-0.025,-0.076 -0.069,-0.131 -0.122,-0.145c-0.053,-0.017 -0.093,0.012 -0.108,0.04c-0.016,0.027 -0.011,0.047 -0.016,0.049c-0.003,0.002 -0.021,-0.019 -0.009,-0.06c0.006,-0.02 0.019,-0.042 0.045,-0.06c0.025,-0.018 0.062,-0.025 0.099,-0.018c0.078,0.012 0.142,0.089 0.171,0.171c0.034,0.083 0.05,0.184 0.039,0.287c-0.023,0.203 -0.142,0.385 -0.292,0.416c-0.072,0.012 -0.13,-0.014 -0.159,-0.04c-0.029,-0.027 -0.033,-0.05 -0.029,-0.052" style="fill:#ff9a6c;fill-rule:nonzero;"/><path d="M65.547,48.714c-0.344,-0.085 -0.588,-0.443 -0.575,-0.797c0.013,-0.355 0.258,-0.68 0.58,-0.828c0.322,-0.147 0.708,-0.127 1.032,0.017c0.098,-0.515 0.602,-0.92 1.125,-0.906c0.524,0.015 1.005,0.448 1.074,0.967c0.034,-0.269 0.338,-0.419 0.608,-0.435c0.271,-0.017 0.56,0.063 0.735,0.269c0.176,0.206 0.193,0.551 -0.006,0.734c0.301,-0.034 0.619,0.029 0.865,0.207c0.245,0.179 0.407,0.48 0.384,0.782c-0.022,0.302 -0.247,0.589 -0.544,0.65c-0.102,0.022 -0.225,0.027 -0.28,0.116c-0.031,0.049 -0.03,0.111 -0.029,0.169c0.01,0.334 0.02,0.668 0.03,1.002c-0.177,-0.089 -0.401,0.039 -0.486,0.217c-0.086,0.179 -0.072,0.387 -0.055,0.583c-0.086,0.129 -0.303,0.091 -0.396,-0.032c-0.094,-0.124 -0.1,-0.29 -0.101,-0.445l-0.021,-1.613c-0.158,0.088 -0.361,0.088 -0.519,0.001c-0.158,-0.088 -0.265,-0.261 -0.274,-0.441c-0.227,0.218 -0.554,0.328 -0.867,0.289c-0.312,-0.038 -0.604,-0.223 -0.771,-0.489c-0.167,0.132 -0.335,0.265 -0.529,0.352c-0.194,0.086 -0.419,0.122 -0.62,0.053c-0.201,-0.069 -0.366,-0.26 -0.363,-0.473c0.024,-0.02 0.047,-0.04 0.071,-0.06" style="fill:#1a2e35;fill-rule:nonzero;"/><path d="M65.911,50.745c-0.002,0.101 0.077,0.183 0.175,0.185c0.098,0.002 0.179,-0.078 0.18,-0.179c0.002,-0.101 -0.076,-0.184 -0.174,-0.186c-0.098,-0.002 -0.179,0.079 -0.181,0.18" style="fill:#1a2e35;fill-rule:nonzero;"/><path d="M65.619,50.543c0.022,0.024 0.156,-0.089 0.347,-0.096c0.192,-0.01 0.334,0.09 0.354,0.064c0.01,-0.011 -0.013,-0.055 -0.075,-0.1c-0.061,-0.045 -0.164,-0.088 -0.284,-0.082c-0.119,0.005 -0.219,0.056 -0.276,0.107c-0.058,0.05 -0.077,0.096 -0.066,0.107" style="fill:#1a2e35;fill-rule:nonzero;"/><path d="M67.994,50.745c-0.002,0.101 0.076,0.183 0.174,0.185c0.098,0.002 0.18,-0.078 0.181,-0.179c0.002,-0.101 -0.076,-0.184 -0.174,-0.186c-0.098,-0.002 -0.179,0.079 -0.181,0.18" style="fill:#1a2e35;fill-rule:nonzero;"/><path d="M67.74,50.58c0.023,0.024 0.156,-0.089 0.348,-0.096c0.191,-0.01 0.333,0.09 0.353,0.064c0.01,-0.012 -0.013,-0.056 -0.075,-0.101c-0.061,-0.045 -0.164,-0.087 -0.283,-0.081c-0.12,0.005 -0.22,0.056 -0.276,0.106c-0.059,0.051 -0.078,0.097 -0.067,0.108" style="fill:#1a2e35;fill-rule:nonzero;"/></g></g></svg>