<?xml version="1.0" encoding="UTF-8" standalone="no"?><!DOCTYPE svg PUBLIC "-//W3C//DTD SVG 1.1//EN" "http://www.w3.org/Graphics/SVG/1.1/DTD/svg11.dtd"><svg width="100%" height="100%" viewBox="0 0 192 94" version="1.1" xmlns="http://www.w3.org/2000/svg" xmlns:xlink="http://www.w3.org/1999/xlink" xml:space="preserve" xmlns:serif="http://www.serif.com/" style="fill-rule:evenodd;clip-rule:evenodd;stroke-linejoin:round;stroke-miterlimit:2;"><path d="M3.665,26.481c-0.883,0 -1.597,-0.714 -1.597,-1.597l0,-9.045c0,-3.235 1.057,-5.871 3.141,-7.832c4.059,-3.817 10.599,-3.605 11.314,-3.571l19.766,0c0.881,0 1.596,0.715 1.596,1.597c0,0.882 -0.715,1.596 -1.596,1.596l-19.809,0l-0.097,-0.002c-0.054,-0.002 -5.806,-0.296 -8.996,2.714c-1.431,1.352 -2.127,3.151 -2.127,5.498l0,9.045c0,0.883 -0.715,1.597 -1.595,1.597Z" style="fill:#0e4069;fill-rule:nonzero;"/><path d="M7.329,33.586c0,2.024 -1.641,3.666 -3.664,3.666c-2.025,0 -3.665,-1.642 -3.665,-3.666l0,-17.584c0,-2.024 1.64,-3.664 3.665,-3.664c2.023,0 3.664,1.64 3.664,3.664l0,17.584Z" style="fill:#0c78be;fill-rule:nonzero;"/><path d="M4.635,28.951c0,1.434 -0.741,2.599 -1.655,2.599c-0.915,0 -1.656,-1.165 -1.656,-2.599l0,-12.474c0,-1.434 0.741,-2.6 1.656,-2.6c0.914,0 1.655,1.166 1.655,2.6l0,12.474Z" style="fill:#04a1dc;fill-rule:nonzero;"/><path d="M136.765,85.044c0,1.054 -0.856,1.911 -1.911,1.911l-76.389,0c-1.054,0 -1.909,-0.857 -1.909,-1.911l0,-3.433c0,-1.054 0.855,-1.909 1.909,-1.909l76.389,0c1.055,0 1.911,0.855 1.911,1.909l0,3.433Z" style="fill-rule:nonzero;"/><path d="M139.054,86.388c0,0.794 -0.838,1.438 -1.871,1.438l-81.178,0c-1.033,0 -1.87,-0.644 -1.87,-1.438c0,-0.793 0.837,-1.434 1.87,-1.434l81.178,0c1.033,0 1.871,0.641 1.871,1.434Z" style="fill:#383c40;fill-rule:nonzero;"/><path d="M54.743,85.329c0.002,-0.001 0.003,-0.001 0.004,-0.002c-0.001,0 -0.002,0.001 -0.004,0.002Zm0.006,-0.004c0.002,-0.001 0.004,-0.003 0.007,-0.004c-0.002,0.001 -0.005,0.003 -0.007,0.004Zm0.008,-0.005c0.311,-0.214 0.716,-0.35 1.163,-0.365c-0.446,0.015 -0.852,0.151 -1.163,0.365Zm82.516,-0.365l-0.002,0l0.002,0Zm-81.351,0c0.007,0 0.015,0 0.022,-0.001c-0.007,0.001 -0.015,0.001 -0.022,0.001Zm81.342,0l-0.004,0l0.004,0Zm-0.014,0l-0.005,0l0.005,0Zm-81.304,-0.001l0.01,0l-0.01,0Zm81.293,0l-0.006,0l0.006,0Zm-81.281,0l0.011,0l-0.011,0Zm81.271,0l-0.008,0l0.008,0Zm-81.26,0l0.011,0l-0.011,0Zm81.249,0l-0.01,0l0.01,0Zm-81.235,0l0.008,0l-0.008,0Zm81.222,0l-0.008,0l0.008,0Zm-81.21,0l0.01,0l-0.01,0Zm81.198,0l-0.01,0l0.01,0Z" style="fill:#b9bcbc;fill-rule:nonzero;"/><path d="M138.894,85.812l-84.601,0c0.105,-0.184 0.259,-0.349 0.45,-0.483c0.002,-0.001 0.003,-0.002 0.004,-0.002c0.001,-0.001 0.002,-0.001 0.002,-0.002c0.002,-0.001 0.005,-0.003 0.007,-0.004c0,0 0,-0.001 0.001,-0.001c0.311,-0.214 0.717,-0.35 1.163,-0.365l0.002,0c0.007,0 0.015,0 0.022,-0.001l81.295,0c0.002,0 0.004,0 0.006,0.001l0.028,0c0.726,0.027 1.343,0.371 1.621,0.857Z" style="fill:#939698;fill-rule:nonzero;"/><path d="M190.608,49.335l-138.639,-2.73c0,0 -23.658,3.62 -44.803,14.05c-1.689,1.451 -1.895,2.755 -2.159,4.386c-0.087,0.534 -0.155,1.076 -0.223,1.619c-0.58,2.631 -1.853,8.446 0.537,11.017c3.504,3.772 1.237,1.47 5.557,6.507c0.137,0.159 0.368,0.154 0.552,0.226l163.401,-0.436l14.291,-4.577l2.285,-6.854l0,-5.979l-0.799,-17.229Z" style="fill:#be5907;fill-rule:nonzero;"/><path d="M23.011,84.379c-0.953,-1.988 -1.483,-4.196 -1.483,-6.522c0,-1.8 0.318,-3.53 0.903,-5.141l31.314,0c0.585,1.611 0.903,3.341 0.903,5.141c0,2.295 -0.516,4.474 -1.446,6.441l-30.191,0.081Z" style="fill:#075ead;fill-rule:nonzero;"/><path d="M173.89,83.977l0.941,-0.003l14.291,-4.577l2.227,-6.681l0.001,0l-2.228,6.681l-14.291,4.577l-0.941,0.003Z" style="fill:#72b5d9;fill-rule:nonzero;"/><path d="M56.232,84.29c1.154,-2.525 1.801,-5.329 1.801,-8.286c0,-1.12 -0.093,-2.218 -0.27,-3.288l1.308,0l0,11.567l-2.515,0.006l-0.324,0.001Zm38.432,-0.102l0,-11.472l41.268,0c-0.178,1.07 -0.27,2.168 -0.27,3.288c0,2.872 0.609,5.601 1.703,8.07l-42.701,0.114Zm45.719,-0.122c-0.86,-1.906 -1.337,-4.004 -1.337,-6.209c0,-1.8 0.318,-3.53 0.903,-5.141l31.313,0c0.585,1.611 0.903,3.341 0.903,5.141c0,2.173 -0.463,4.244 -1.3,6.128l-30.482,0.081Zm33.507,-0.089c1.066,-2.444 1.66,-5.138 1.66,-7.973c0,-1.12 -0.093,-2.218 -0.27,-3.288l16.07,0l-2.228,6.681l-14.291,4.577l-0.941,0.003Zm-155.663,-9.806l-14.245,0c-0.046,-0.473 -0.063,-0.962 -0.057,-1.455l14.489,0c-0.08,0.479 -0.142,0.966 -0.187,1.455Z" style="fill:#075ead;fill-rule:nonzero;"/><path d="M187.36,8.605c-0.283,-0.685 -1.995,-6.294 -10.583,-6.968c-32.26,-2.538 -103.334,-1.83 -129.849,0.128c-23.215,1.716 -25.673,8.104 -25.719,8.16c-18.643,22.481 -15.582,53.174 -15.582,53.174l185.054,-11.149c0,0 -1.548,-39.046 -3.321,-43.345Z" style="fill:#be1107;fill-rule:nonzero;"/><path d="M21.528,77.857c0,-8.695 7.415,-15.743 16.56,-15.743c9.147,0 16.56,7.048 16.56,15.743c0,2.338 -0.536,4.557 -1.499,6.553l3.028,0c1.189,-2.557 1.856,-5.403 1.856,-8.406c0,-11.016 -8.931,-19.945 -19.945,-19.945c-11.013,0 -19.944,8.929 -19.944,19.945c0,3.003 0.665,5.849 1.855,8.406l3.027,0c-0.962,-1.996 -1.498,-4.215 -1.498,-6.553Z" style="fill:#a2a7ab;fill-rule:nonzero;"/><path d="M56.177,84.41l-0.462,0c0.991,-2.315 1.54,-4.861 1.54,-7.535c0,-10.586 -8.582,-19.166 -19.167,-19.166c-9.668,0 -17.665,7.157 -18.978,16.462l-0.883,0c0.925,-10.156 9.465,-18.112 19.861,-18.112c11.014,0 19.945,8.929 19.945,19.945c0,3.003 -0.667,5.849 -1.856,8.406Z" style="fill:#dde0e1;fill-rule:nonzero;"/><path d="M20.46,84.41l-0.189,0c0.011,-0.119 0.023,-0.242 0.036,-0.369c0.05,0.123 0.101,0.246 0.153,0.369Z" style="fill:#dde0e1;fill-rule:nonzero;"/><path d="M38.088,62.114c-9.145,0 -16.56,7.048 -16.56,15.743c0,2.338 0.536,4.557 1.498,6.553l30.123,0c0.963,-1.996 1.499,-4.215 1.499,-6.553c0,-8.695 -7.413,-15.743 -16.56,-15.743Z" style="fill-rule:nonzero;"/><path d="M52.168,79.518c0,7.777 -6.303,14.082 -14.08,14.082c-7.777,0 -14.082,-6.305 -14.082,-14.082c0,-7.775 6.305,-14.081 14.082,-14.081c7.777,0 14.08,6.306 14.08,14.081Z" style="fill:#202426;fill-rule:nonzero;"/><path d="M52.168,79.518c0,7.777 -6.303,14.082 -14.08,14.082c-7.777,0 -14.082,-6.305 -14.082,-14.082c0,-7.775 6.305,-14.081 14.082,-14.081c7.777,0 14.08,6.306 14.08,14.081Z" style="fill:#313436;fill-rule:nonzero;"/><path d="M47.643,79.518c0,5.278 -4.277,9.554 -9.555,9.554c-5.277,0 -9.554,-4.276 -9.554,-9.554c0,-5.276 4.277,-9.554 9.554,-9.554c5.278,0 9.555,4.278 9.555,9.554Z" style="fill-rule:nonzero;"/><path d="M46.811,79.518c0,4.819 -3.906,8.724 -8.723,8.724c-4.817,0 -8.722,-3.905 -8.722,-8.724c0,-4.817 3.905,-8.722 8.722,-8.722c4.817,0 8.723,3.905 8.723,8.722Z" style="fill:#bfc0b7;fill-rule:nonzero;"/><path d="M42.462,74.322c0.013,-0.104 0.004,-0.204 -0.039,-0.303c-0.926,-0.835 -2.125,-1.376 -3.446,-1.476c-0.125,0.027 -0.237,0.079 -0.335,0.158l-0.116,0.211l0,4.851l0.097,0.182l0.084,0.043l0.231,-0.049l3.48,-3.48l0.044,-0.137Z" style="fill:#323636;fill-rule:nonzero;"/><path d="M45.012,79.113c0.083,-0.065 0.148,-0.141 0.189,-0.24c-0.066,-1.247 -0.532,-2.476 -1.394,-3.482c-0.107,-0.068 -0.223,-0.112 -0.349,-0.124l-0.232,0.067l-3.43,3.428l-0.061,0.199l0.03,0.089l0.198,0.129l4.922,0l0.127,-0.066Z" style="fill:#323636;fill-rule:nonzero;"/><path d="M43.348,84.15c0.103,0.016 0.204,0.008 0.303,-0.031c0.851,-0.915 1.413,-2.104 1.537,-3.422c-0.024,-0.125 -0.074,-0.238 -0.152,-0.338l-0.209,-0.119l-4.85,-0.086l-0.185,0.094l-0.045,0.084l0.046,0.232l3.418,3.541l0.137,0.045Z" style="fill:#323636;fill-rule:nonzero;"/><path d="M38.642,86.311c0.065,0.08 0.144,0.146 0.243,0.184c1.246,-0.084 2.469,-0.567 3.462,-1.443c0.067,-0.109 0.108,-0.224 0.12,-0.351l-0.07,-0.23l-3.478,-3.38l-0.199,-0.059l-0.091,0.03l-0.126,0.2l0.071,4.922l0.068,0.127Z" style="fill:#323636;fill-rule:nonzero;"/><path d="M33.714,74.322c-0.012,-0.104 -0.004,-0.204 0.038,-0.303c0.928,-0.835 2.126,-1.376 3.447,-1.476c0.125,0.027 0.238,0.079 0.336,0.158l0.116,0.211l0,4.851l-0.097,0.182l-0.084,0.043l-0.233,-0.049l-3.481,-3.48l-0.042,-0.137Z" style="fill:#323636;fill-rule:nonzero;"/><path d="M31.163,79.113c-0.081,-0.065 -0.147,-0.141 -0.187,-0.24c0.066,-1.247 0.531,-2.476 1.394,-3.482c0.107,-0.068 0.222,-0.112 0.349,-0.124l0.231,0.067l3.43,3.428l0.061,0.199l-0.029,0.089l-0.198,0.129l-4.922,0l-0.129,-0.066Z" style="fill:#323636;fill-rule:nonzero;"/><path d="M32.828,84.15c-0.103,0.016 -0.204,0.008 -0.303,-0.031c-0.852,-0.915 -1.411,-2.104 -1.536,-3.422c0.024,-0.125 0.074,-0.238 0.151,-0.338l0.211,-0.119l4.848,-0.086l0.186,0.094l0.043,0.084l-0.044,0.232l-3.42,3.541l-0.136,0.045Z" style="fill:#323636;fill-rule:nonzero;"/><path d="M37.535,86.311c-0.066,0.08 -0.144,0.146 -0.243,0.184c-1.248,-0.084 -2.47,-0.567 -3.463,-1.443c-0.067,-0.109 -0.108,-0.224 -0.119,-0.351l0.069,-0.23l3.479,-3.38l0.199,-0.059l0.088,0.03l0.126,0.2l-0.069,4.922l-0.067,0.127Z" style="fill:#323636;fill-rule:nonzero;"/><path d="M38.099,79.597" style="fill:#323636;fill-rule:nonzero;"/><path d="M38.099,79.597" style="fill:#323636;fill-rule:nonzero;"/><path d="M40.65,79.518c0,1.415 -1.148,2.563 -2.562,2.563c-1.415,0 -2.562,-1.148 -2.562,-2.563c0,-1.413 1.147,-2.561 2.562,-2.561c1.414,0 2.562,1.148 2.562,2.561Z" style="fill:#bfc0b7;fill-rule:nonzero;"/><path d="M39.747,78.258c0,0.177 -0.143,0.319 -0.319,0.319c-0.176,0 -0.318,-0.142 -0.318,-0.319c0,-0.175 0.142,-0.319 0.318,-0.319c0.176,0 0.319,0.144 0.319,0.319Z" style="fill:#323636;fill-rule:nonzero;"/><path d="M38.418,77.804c0,0.176 -0.141,0.318 -0.319,0.318c-0.175,0 -0.318,-0.142 -0.318,-0.318c0,-0.177 0.143,-0.32 0.318,-0.32c0.178,0 0.319,0.143 0.319,0.32Z" style="fill:#323636;fill-rule:nonzero;"/><path d="M37.067,78.306c0,0.178 -0.144,0.321 -0.319,0.321c-0.175,0 -0.32,-0.143 -0.32,-0.321c0,-0.174 0.145,-0.318 0.32,-0.318c0.175,0 0.319,0.144 0.319,0.318Z" style="fill:#323636;fill-rule:nonzero;"/><path d="M39.747,81.046c0,-0.175 -0.143,-0.317 -0.319,-0.317c-0.176,0 -0.318,0.142 -0.318,0.317c0,0.177 0.142,0.321 0.318,0.321c0.176,0 0.319,-0.144 0.319,-0.321Z" style="fill:#323636;fill-rule:nonzero;"/><path d="M40.373,79.715c0,-0.175 -0.144,-0.318 -0.32,-0.318c-0.176,0 -0.318,0.143 -0.318,0.318c0,0.177 0.142,0.32 0.318,0.32c0.176,0 0.32,-0.143 0.32,-0.32Z" style="fill:#323636;fill-rule:nonzero;"/><path d="M36.441,79.715c0,-0.175 -0.142,-0.318 -0.318,-0.318c-0.176,0 -0.319,0.143 -0.319,0.318c0,0.177 0.143,0.32 0.319,0.32c0.176,0 0.318,-0.143 0.318,-0.32Z" style="fill:#323636;fill-rule:nonzero;"/><path d="M38.418,81.504c0,-0.178 -0.141,-0.32 -0.319,-0.32c-0.175,0 -0.318,0.142 -0.318,0.32c0,0.175 0.143,0.318 0.318,0.318c0.178,0 0.319,-0.143 0.319,-0.318Z" style="fill:#323636;fill-rule:nonzero;"/><path d="M37.067,80.999c0,-0.177 -0.144,-0.32 -0.319,-0.32c-0.175,0 -0.32,0.143 -0.32,0.32c0,0.174 0.145,0.319 0.32,0.319c0.175,0 0.319,-0.145 0.319,-0.319Z" style="fill:#323636;fill-rule:nonzero;"/><path d="M20.987,77.113c0.076,-0.98 0.161,-1.961 0.222,-2.942l-18.03,0c-0.206,0.024 -0.402,0.061 -0.561,0.145c-0.301,0.155 -0.442,0.383 -0.553,0.622l0.075,3.927c0,0 3.727,5.592 6.29,6.414c2.565,0.822 4.268,0.588 4.268,0.588l7.438,0.031c0.013,-0.452 0.749,-7.48 0.851,-8.785Z" style="fill:#080b10;fill-rule:nonzero;"/><path d="M2.132,78.41l-0.067,-3.472c0.111,-0.239 0.252,-0.467 0.553,-0.622c0.159,-0.084 0.355,-0.121 0.561,-0.145l13.752,0c-0.063,0.981 -14.799,4.239 -14.799,4.239Z" style="fill:#1c1e21;fill-rule:nonzero;"/><path d="M17.235,58.31c-1.996,-0.107 -3.77,-0.155 -5.615,0.709c-1.746,0.817 -4.32,1.817 -5.209,2.745c-0.311,0.402 -0.571,0.855 -0.784,1.335c-0.418,1.428 -0.654,2.925 -0.705,4.418c0.057,0.459 0.16,0.858 0.308,1.16c0.539,1.103 6.429,0.231 10.383,-2.996c1.259,-0.737 3.632,-7.242 1.622,-7.371Z" style="fill:#bfc0b7;fill-rule:nonzero;"/><path d="M12.926,66.58c-0.069,0 -0.138,-0.005 -0.207,-0.015c-1.257,-0.178 -2.047,-1.944 -1.763,-3.945c0.069,-0.49 0.196,-0.949 0.367,-1.36c0.889,-0.689 1.831,-1.302 2.826,-1.824c1.016,0.46 1.61,2.052 1.358,3.827c-0.267,1.892 -1.397,3.317 -2.581,3.317Z" style="fill:#ccd5d1;fill-rule:nonzero;"/><path d="M9.475,65.728c-0.041,1.223 -0.697,2.192 -1.464,2.163c-0.766,-0.025 -1.353,-1.037 -1.312,-2.259c0.042,-1.218 0.698,-2.188 1.464,-2.162c0.767,0.028 1.355,1.039 1.312,2.258Z" style="fill:#d2c6ad;fill-rule:nonzero;"/><path d="M5.128,68.435c-0.001,-0.004 -0.003,-0.009 -0.004,-0.014c0.001,0.005 0.003,0.01 0.004,0.014Z" style="fill:#5ca8d4;fill-rule:nonzero;"/><path d="M16.87,58.291c-0.411,-0.02 -0.813,-0.035 -1.209,-0.038c0.396,0.002 0.799,0.018 1.211,0.038l-0.002,0Z" style="fill:#5ca8d4;fill-rule:nonzero;"/><path d="M5.128,68.435c-0.001,-0.004 -0.003,-0.009 -0.004,-0.014c-0.092,-0.259 -0.159,-0.565 -0.202,-0.904c0.051,-1.493 0.287,-2.99 0.705,-4.418c0.213,-0.48 0.473,-0.933 0.784,-1.335c0.889,-0.928 3.463,-1.928 5.209,-2.745c1.31,-0.612 2.583,-0.766 3.925,-0.766l0.116,0c0.396,0.003 0.798,0.018 1.209,0.038c-0.947,0.305 -1.854,0.691 -2.721,1.145c-0.128,-0.058 -0.263,-0.098 -0.404,-0.118c-0.069,-0.01 -0.138,-0.015 -0.206,-0.015c-0.879,0 -1.727,0.782 -2.216,1.957c-0.935,0.724 -1.81,1.531 -2.627,2.402c-0.162,-0.117 -0.342,-0.185 -0.533,-0.192l-0.031,0c-0.752,0 -1.392,0.96 -1.433,2.162c-0.005,0.145 -0.001,0.287 0.011,0.425c-0.565,0.766 -1.092,1.562 -1.582,2.378Z" style="fill:#d7d7d1;fill-rule:nonzero;"/><path d="M11.323,61.26c0.489,-1.175 1.337,-1.957 2.216,-1.957c0.068,0 0.137,0.005 0.206,0.015c0.141,0.02 0.276,0.06 0.404,0.118c-0.995,0.522 -1.937,1.135 -2.826,1.824Z" style="fill:#dee3e1;fill-rule:nonzero;"/><path d="M6.71,66.057c-0.012,-0.138 -0.016,-0.28 -0.011,-0.425c0.041,-1.202 0.681,-2.162 1.433,-2.162l0.031,0c0.191,0.007 0.371,0.075 0.533,0.192c-0.706,0.755 -1.369,1.557 -1.986,2.395Z" style="fill:#e1dbca;fill-rule:nonzero;"/><path d="M12.878,84.649c-1.95,0 -5.588,-1.041 -5.466,-2.669c0.129,-1.73 4.468,-3.469 6.29,-3.612c0.093,-0.008 0.186,-0.011 0.277,-0.011c1.68,0 2.908,1.241 2.786,2.883c-0.13,1.732 -1.712,3.254 -3.533,3.396c-0.11,0.009 -0.229,0.013 -0.354,0.013Z" style="fill:#282b2d;fill-rule:nonzero;"/><path d="M13.331,78.75c1.718,-0.135 3.011,1.078 2.889,2.711c-0.122,1.634 -1.614,3.068 -3.332,3.203c-1.718,0.134 -5.612,-0.874 -5.488,-2.506c0.121,-1.633 4.213,-3.273 5.931,-3.408Z" style="fill-rule:nonzero;"/><path d="M139.046,77.857c0,-8.695 7.414,-15.743 16.56,-15.743c9.146,0 16.559,7.048 16.559,15.743c0,2.338 -0.536,4.557 -1.497,6.553l3.027,0c1.189,-2.557 1.855,-5.403 1.855,-8.406c0,-11.016 -8.93,-19.945 -19.944,-19.945c-11.014,0 -19.944,8.929 -19.944,19.945c0,3.003 0.665,5.849 1.856,8.406l3.026,0c-0.962,-1.996 -1.498,-4.215 -1.498,-6.553Z" style="fill:#a2a7ab;fill-rule:nonzero;"/><path d="M155.606,62.114c-9.146,0 -16.56,7.048 -16.56,15.743c0,2.338 0.536,4.557 1.498,6.553l30.124,0c0.961,-1.996 1.497,-4.215 1.497,-6.553c0,-8.695 -7.413,-15.743 -16.559,-15.743Z" style="fill-rule:nonzero;"/><path d="M169.687,79.518c0,7.777 -6.305,14.082 -14.081,14.082c-7.776,0 -14.081,-6.305 -14.081,-14.082c0,-7.775 6.305,-14.081 14.081,-14.081c7.776,0 14.081,6.306 14.081,14.081Z" style="fill:#202426;fill-rule:nonzero;"/><path d="M169.687,79.518c0,7.777 -6.305,14.082 -14.081,14.082c-7.776,0 -14.081,-6.305 -14.081,-14.082c0,-7.775 6.305,-14.081 14.081,-14.081c7.776,0 14.081,6.306 14.081,14.081Z" style="fill:#313436;fill-rule:nonzero;"/><path d="M165.16,79.518c0,5.278 -4.277,9.554 -9.554,9.554c-5.276,0 -9.554,-4.276 -9.554,-9.554c0,-5.276 4.278,-9.554 9.554,-9.554c5.277,0 9.554,4.278 9.554,9.554Z" style="fill-rule:nonzero;"/><path d="M164.329,79.518c0,4.819 -3.905,8.724 -8.723,8.724c-4.817,0 -8.722,-3.905 -8.722,-8.724c0,-4.817 3.905,-8.722 8.722,-8.722c4.818,0 8.723,3.905 8.723,8.722Z" style="fill:#bfc0b7;fill-rule:nonzero;"/><path d="M159.98,74.322c0.013,-0.104 0.005,-0.204 -0.038,-0.303c-0.929,-0.835 -2.126,-1.376 -3.446,-1.476c-0.125,0.027 -0.237,0.079 -0.336,0.158l-0.116,0.211l0,4.851l0.096,0.182l0.085,0.043l0.231,-0.049l3.481,-3.48l0.043,-0.137Z" style="fill:#323636;fill-rule:nonzero;"/><path d="M162.531,79.113c0.081,-0.065 0.147,-0.141 0.188,-0.24c-0.067,-1.247 -0.532,-2.476 -1.395,-3.482c-0.106,-0.068 -0.223,-0.112 -0.347,-0.124l-0.232,0.067l-3.431,3.428l-0.061,0.199l0.029,0.089l0.198,0.129l4.923,0l0.128,-0.066Z" style="fill:#323636;fill-rule:nonzero;"/><path d="M160.865,84.15c0.103,0.016 0.205,0.008 0.305,-0.031c0.851,-0.915 1.411,-2.104 1.535,-3.422c-0.024,-0.125 -0.074,-0.238 -0.152,-0.338l-0.209,-0.119l-4.85,-0.086l-0.185,0.094l-0.043,0.084l0.045,0.232l3.419,3.541l0.135,0.045Z" style="fill:#323636;fill-rule:nonzero;"/><path d="M156.16,86.311c0.066,0.08 0.144,0.146 0.243,0.184c1.247,-0.084 2.468,-0.567 3.461,-1.443c0.069,-0.109 0.11,-0.224 0.121,-0.351l-0.071,-0.23l-3.477,-3.38l-0.2,-0.059l-0.089,0.03l-0.127,0.2l0.071,4.922l0.068,0.127Z" style="fill:#323636;fill-rule:nonzero;"/><path d="M151.232,74.322c-0.012,-0.104 -0.003,-0.204 0.038,-0.303c0.928,-0.835 2.126,-1.376 3.448,-1.476c0.123,0.027 0.236,0.079 0.335,0.158l0.116,0.211l0,4.851l-0.096,0.182l-0.086,0.043l-0.231,-0.049l-3.48,-3.48l-0.044,-0.137Z" style="fill:#323636;fill-rule:nonzero;"/><path d="M148.681,79.113c-0.081,-0.065 -0.147,-0.141 -0.187,-0.24c0.066,-1.247 0.53,-2.476 1.394,-3.482c0.107,-0.068 0.223,-0.112 0.348,-0.124l0.232,0.067l3.429,3.428l0.063,0.199l-0.03,0.089l-0.199,0.129l-4.922,0l-0.128,-0.066Z" style="fill:#323636;fill-rule:nonzero;"/><path d="M150.347,84.15c-0.103,0.016 -0.205,0.008 -0.304,-0.031c-0.852,-0.915 -1.412,-2.104 -1.536,-3.422c0.024,-0.125 0.074,-0.238 0.152,-0.338l0.209,-0.119l4.849,-0.086l0.185,0.094l0.046,0.084l-0.046,0.232l-3.42,3.541l-0.135,0.045Z" style="fill:#323636;fill-rule:nonzero;"/><path d="M155.053,86.311c-0.066,0.08 -0.145,0.146 -0.244,0.184c-1.246,-0.084 -2.469,-0.567 -3.462,-1.443c-0.067,-0.109 -0.109,-0.224 -0.12,-0.351l0.071,-0.23l3.477,-3.38l0.2,-0.059l0.088,0.03l0.127,0.2l-0.069,4.922l-0.068,0.127Z" style="fill:#323636;fill-rule:nonzero;"/><path d="M155.617,79.597" style="fill:#323636;fill-rule:nonzero;"/><path d="M155.617,79.597" style="fill:#323636;fill-rule:nonzero;"/><path d="M158.167,79.518c0,1.415 -1.146,2.563 -2.561,2.563c-1.415,0 -2.562,-1.148 -2.562,-2.563c0,-1.413 1.147,-2.561 2.562,-2.561c1.415,0 2.561,1.148 2.561,2.561Z" style="fill:#bfc0b7;fill-rule:nonzero;"/><path d="M157.266,78.258c0,0.177 -0.144,0.319 -0.32,0.319c-0.176,0 -0.318,-0.142 -0.318,-0.319c0,-0.175 0.142,-0.319 0.318,-0.319c0.176,0 0.32,0.144 0.32,0.319Z" style="fill:#323636;fill-rule:nonzero;"/><path d="M155.938,77.804c0,0.176 -0.144,0.318 -0.321,0.318c-0.176,0 -0.319,-0.142 -0.319,-0.318c0,-0.177 0.143,-0.32 0.319,-0.32c0.177,0 0.321,0.143 0.321,0.32Z" style="fill:#323636;fill-rule:nonzero;"/><path d="M154.585,78.306c0,0.178 -0.143,0.321 -0.318,0.321c-0.177,0 -0.319,-0.143 -0.319,-0.321c0,-0.174 0.142,-0.318 0.319,-0.318c0.175,0 0.318,0.144 0.318,0.318Z" style="fill:#323636;fill-rule:nonzero;"/><path d="M157.266,81.046c0,-0.175 -0.144,-0.317 -0.32,-0.317c-0.176,0 -0.318,0.142 -0.318,0.317c0,0.177 0.142,0.321 0.318,0.321c0.176,0 0.32,-0.144 0.32,-0.321Z" style="fill:#323636;fill-rule:nonzero;"/><path d="M157.891,79.715c0,-0.175 -0.143,-0.318 -0.32,-0.318c-0.175,0 -0.318,0.143 -0.318,0.318c0,0.177 0.143,0.32 0.318,0.32c0.177,0 0.32,-0.143 0.32,-0.32Z" style="fill:#323636;fill-rule:nonzero;"/><path d="M153.96,79.715c0,-0.175 -0.144,-0.318 -0.318,-0.318c-0.176,0 -0.32,0.143 -0.32,0.318c0,0.177 0.144,0.32 0.32,0.32c0.174,0 0.318,-0.143 0.318,-0.32Z" style="fill:#323636;fill-rule:nonzero;"/><path d="M155.938,81.504c0,-0.178 -0.144,-0.32 -0.321,-0.32c-0.176,0 -0.319,0.142 -0.319,0.32c0,0.175 0.143,0.318 0.319,0.318c0.177,0 0.321,-0.143 0.321,-0.318Z" style="fill:#323636;fill-rule:nonzero;"/><path d="M154.585,80.999c0,-0.177 -0.143,-0.32 -0.318,-0.32c-0.177,0 -0.319,0.143 -0.319,0.32c0,0.174 0.142,0.319 0.319,0.319c0.175,0 0.318,-0.145 0.318,-0.319Z" style="fill:#323636;fill-rule:nonzero;"/><path d="M173.695,84.41l-0.462,0c0.99,-2.315 1.54,-4.861 1.54,-7.535c0,-10.586 -8.582,-19.166 -19.167,-19.166c-10.585,0 -19.168,8.58 -19.168,19.166c0,2.674 0.551,5.22 1.54,7.535l-0.46,0c-0.052,-0.112 -0.103,-0.223 -0.153,-0.336c-1.094,-2.469 -1.703,-5.198 -1.703,-8.07c0,-11.016 8.93,-19.945 19.944,-19.945c11.014,0 19.944,8.929 19.944,19.945c0,3.003 -0.666,5.849 -1.855,8.406Z" style="fill:#dde0e1;fill-rule:nonzero;"/><path d="M189.375,65.385l1.709,0.201c0,0 0.471,0.043 0.492,0.671l0.013,2.394c0,0 -0.036,0.374 -0.313,0.307c-0.277,-0.066 -1.644,-0.393 -1.644,-0.393c0,0 -0.269,-0.03 -0.394,-0.371c-0.124,-0.342 -0.2,-2.474 -0.2,-2.474c0,0 0.006,-0.433 0.337,-0.335Z" style="fill:#3b020b;fill-rule:nonzero;"/><path d="M190.05,66.011l1.163,0.135c0,0 0.321,0.029 0.335,0.459l0.009,1.629c0,0 -0.025,0.254 -0.214,0.209c-0.188,-0.045 -1.119,-0.268 -1.119,-0.268c0,0 -0.183,-0.018 -0.266,-0.253c-0.087,-0.232 -0.139,-1.682 -0.139,-1.682c0,0 0.038,-0.344 0.231,-0.229Z" style="fill:#d82428;fill-rule:nonzero;"/><path d="M19.743,58.773l5.797,-0.264c0,0 -0.086,0.63 -0.683,1.17c-0.597,0.538 -3.434,0.403 -3.434,0.403c0,0 -1.278,0.068 -1.68,-0.336c-0.403,-0.405 -0.471,-0.952 0,-0.973Z" style="fill:#de5826;fill-rule:nonzero;"/><path d="M21.48,59.898c-0.294,0 -0.503,-0.01 -0.503,-0.01c0,0 -0.051,0.003 -0.133,0.003c-0.25,0 -0.782,-0.025 -0.984,-0.227c-0.268,-0.269 -0.313,-0.633 0,-0.647l3.853,-0.175c0,0 -0.056,0.418 -0.453,0.777c-0.265,0.239 -1.191,0.279 -1.78,0.279Z" style="fill:#f06f21;fill-rule:nonzero;"/><path d="M188.172,48.499c-0.465,0.464 -0.919,1.177 -1.176,2.05c-0.264,0.902 -0.311,1.919 -0.278,2.914c0.027,0.839 0.093,1.679 0.149,2.512c0.056,0.848 0.116,1.695 0.193,2.537c0.071,0.765 0.145,1.536 0.274,2.274c0.085,0.483 0.187,0.973 0.401,1.306c0.272,0.417 0.618,0.667 0.939,0.928c0.413,0.336 0.833,0.649 1.257,0.941c0.387,0.267 1.347,1.183 1.355,0.767l-0.934,-17.745l-0.267,-0.438l-0.09,0.076c-0.213,0.175 -0.417,0.381 -0.621,0.592c-0.402,0.417 -0.795,0.879 -1.202,1.286Z" style="fill:#3b020b;fill-rule:nonzero;"/><path d="M188.523,48.504c-0.418,0.467 -0.829,1.181 -1.059,2.056c-0.24,0.901 -0.286,1.918 -0.259,2.912c0.023,0.842 0.081,1.68 0.131,2.512c0.048,0.849 0.1,1.696 0.168,2.538c0.062,0.764 0.126,1.536 0.241,2.273c0.074,0.482 0.164,0.972 0.357,1.305c0.243,0.417 0.553,0.665 0.84,0.926c0.371,0.336 0.748,0.646 1.128,0.936c0.348,0.266 1.208,1.182 1.216,0.766l-0.803,-17.74l-0.237,-0.442l-0.081,0.079c-0.191,0.176 -0.376,0.38 -0.559,0.593c-0.363,0.418 -0.716,0.88 -1.083,1.286Z" style="fill:#ce4327;fill-rule:nonzero;"/><path d="M191.286,64.728l-0.433,-9.575l0.001,0l0.432,9.575Z" style="fill:#000d08;fill-rule:nonzero;"/><path d="M191.202,64.835c-0.225,-0.009 -0.849,-0.656 -1.132,-0.873c-0.38,-0.29 -0.757,-0.6 -1.128,-0.936c-0.287,-0.261 -0.597,-0.509 -0.84,-0.926c-0.193,-0.333 -0.283,-0.823 -0.357,-1.305c-0.115,-0.737 -0.179,-1.509 -0.241,-2.273c-0.068,-0.842 -0.12,-1.689 -0.168,-2.538c-0.013,-0.207 -0.026,-0.414 -0.038,-0.621c0.013,0.207 0.026,0.414 0.038,0.621c0.048,0.849 0.1,1.696 0.168,2.538c0.062,0.764 0.126,1.536 0.241,2.273c0.074,0.482 0.164,0.972 0.357,1.305c0.243,0.417 0.553,0.665 0.84,0.926c0.371,0.336 0.748,0.646 1.128,0.936c0.283,0.217 0.907,0.864 1.132,0.873Z" style="fill:#2b0106;fill-rule:nonzero;"/><path d="M191.207,64.835l-0.005,0c-0.225,-0.009 -0.849,-0.656 -1.132,-0.873c-0.38,-0.29 -0.757,-0.6 -1.128,-0.936c-0.287,-0.261 -0.597,-0.509 -0.84,-0.926c-0.193,-0.333 -0.283,-0.823 -0.357,-1.305c-0.115,-0.737 -0.179,-1.509 -0.241,-2.273c-0.068,-0.842 -0.12,-1.689 -0.168,-2.538c-0.012,-0.207 -0.025,-0.414 -0.038,-0.621c-0.006,-0.094 -0.011,-0.189 -0.017,-0.283l0.364,0.007c0.173,2.803 0.483,5.995 0.483,5.995c0,0 0.039,0.673 0.471,1.043l-0.53,-7.029l2.784,0.057l0.433,9.575c-0.001,0.075 -0.03,0.107 -0.079,0.107Z" style="fill:#a21d20;fill-rule:nonzero;"/><path d="M188.069,55.096l-0.424,-0.009c-0.085,-1.368 -0.138,-2.644 -0.106,-3.41c0.097,-2.336 2.651,-4.634 2.651,-4.634c0,0 -0.726,1.437 -1.612,2.766c-0.884,1.331 -0.588,4.246 -0.588,4.246l0.079,1.041Z" style="fill:#fff;fill-rule:nonzero;"/><path d="M188.599,62.125c-0.432,-0.37 -0.471,-1.043 -0.471,-1.043c0,0 -0.31,-3.192 -0.483,-5.995l0.424,0.009l0.53,7.029Z" style="fill:#fff;fill-rule:nonzero;"/><rect x="59.071" y="11.129" width="35.593" height="73.521" style="fill:#0e4069;fill-rule:nonzero;"/><rect x="60.827" y="13.109" width="31.601" height="71.541" style="fill:#71605b;fill-rule:nonzero;"/><path d="M88.048,45.574c0,3.774 -2.959,6.836 -6.608,6.836l-8.813,0c-3.649,0 -6.607,-3.062 -6.607,-6.836l0,-23.495c0,-3.775 2.958,-6.837 6.607,-6.837l8.813,0c3.649,0 6.608,3.062 6.608,6.837l0,23.495Z" style="fill:#0c78be;fill-rule:nonzero;"/><path d="M86.641,44.195c0,3.293 -2.582,5.963 -5.765,5.963l-7.685,0c-3.185,0 -5.765,-2.67 -5.765,-5.963l0,-20.494c0,-3.294 2.58,-5.963 5.765,-5.963l7.685,0c3.183,0 5.765,2.669 5.765,5.963l0,20.494Z" style="fill:#a2dbe1;fill-rule:nonzero;"/><path d="M86.641,33.698l0,-9.997c0,-3.294 -2.582,-5.963 -5.765,-5.963l-7.685,0c-3.185,0 -5.765,2.669 -5.765,5.963l0,9.997l19.215,0Z" style="fill:#8cc1d6;fill-rule:nonzero;"/><rect x="67.426" y="33.218" width="19.215" height="2.077" style="fill:#0c78be;fill-rule:nonzero;"/><path d="M22.247,43.914l0,-26.327c0,-2.277 -0.999,-4.316 -2.577,-5.719c-10.189,13.401 -13.201,29.227 -13.982,39.706l8.897,0c4.232,0 7.662,-3.43 7.662,-7.66Z" style="fill:#0e4069;fill-rule:nonzero;"/><path d="M21.423,43.007l0,-24.734c0,-2.141 -0.949,-4.056 -2.449,-5.375c-9.682,12.592 -12.425,27.387 -13.167,37.232l8.336,0.077c4.022,0 7.28,-3.224 7.28,-7.2Z" style="fill:#9ddcf6;fill-rule:nonzero;"/><path d="M6.48,44.035c1.275,-8.701 4.242,-19.472 11.059,-29.184c-0.001,0.001 0,0.001 -0.001,0.002c-6.817,9.712 -9.783,20.48 -11.058,29.182Z" style="fill:#caebf9;fill-rule:nonzero;"/><path d="M17.538,14.853c0.001,-0.001 0,-0.001 0.001,-0.002c0.03,-0.043 0.06,-0.085 0.09,-0.127c-0.001,0.001 -0.001,0.001 -0.002,0.002c-0.03,0.042 -0.06,0.085 -0.089,0.127Z" style="fill:#4ab0db;fill-rule:nonzero;"/><path d="M17.627,14.726c0.001,-0.001 0.001,-0.001 0.002,-0.002c0.415,-0.588 0.844,-1.173 1.288,-1.752c-0.445,0.581 -0.874,1.165 -1.29,1.754Zm1.291,-1.754c0.008,-0.012 0.017,-0.023 0.026,-0.034c-0.009,0.011 -0.018,0.022 -0.026,0.034Zm0.029,-0.038c0.009,-0.012 0.018,-0.024 0.027,-0.036c-0.009,0.012 -0.018,0.024 -0.027,0.036Z" style="fill:#5490ae;fill-rule:nonzero;"/><path d="M6.48,44.035c1.275,-8.702 4.241,-19.47 11.058,-29.182c0.029,-0.042 0.059,-0.085 0.089,-0.127c0.416,-0.589 0.845,-1.173 1.29,-1.754c0.001,-0.001 0,0 0.001,0c0.008,-0.012 0.017,-0.023 0.026,-0.034l0.03,-0.04c1.5,1.319 2.449,3.234 2.449,5.375l0,17.792c-2.507,1.07 -4.979,2.224 -7.399,3.481c-2.546,1.326 -5.129,2.794 -7.544,4.489Z" style="fill:#bde6f6;fill-rule:nonzero;"/><path d="M121.938,35.613l0,-16.908c0,-3.777 -2.959,-6.837 -6.61,-6.837l-8.811,0c-3.65,0 -6.608,3.06 -6.608,6.837l0,16.908l22.029,0Z" style="fill:#114e67;fill-rule:nonzero;"/><path d="M123.598,43.914c0,4.23 -3.431,7.66 -7.66,7.66l-10.216,0c-4.231,0 -7.661,-3.43 -7.661,-7.66l0,-26.327c0,-4.231 3.43,-7.662 7.661,-7.662l10.216,0c4.229,0 7.66,3.431 7.66,7.662l0,26.327Z" style="fill:#0e4069;fill-rule:nonzero;"/><path d="M121.844,42.199c0,3.775 -2.958,6.837 -6.609,6.837l-8.812,0c-3.649,0 -6.608,-3.062 -6.608,-6.837l0,-23.494c0,-3.777 2.959,-6.837 6.608,-6.837l8.812,0c3.651,0 6.609,3.06 6.609,6.837l0,23.494Z" style="fill:#9ddcf6;fill-rule:nonzero;"/><path d="M121.844,19.565c-4.137,-0.232 -8.279,-0.349 -12.423,-0.349c-3.202,0 -6.406,0.07 -9.606,0.211l0,-0.722c0,-3.777 2.959,-6.837 6.608,-6.837l8.812,0c3.651,0 6.609,3.06 6.609,6.837l0,0.86Z" style="fill:#bde6f6;fill-rule:nonzero;"/><path d="M115.361,34.407c-2.704,0 -4.896,2.191 -4.896,4.896l-0.983,9.733l5.753,0c2.013,0 3.811,-0.935 5.023,-2.403l0,-7.33c0,-2.705 -2.192,-4.896 -4.897,-4.896Z" style="fill:#601609;fill-rule:nonzero;"/><path d="M115.241,37.127c-2.041,0 -3.695,1.654 -3.695,3.697l-0.742,7.346l4.342,0c1.519,0 2.877,-0.706 3.792,-1.814l0,-5.532c0,-2.043 -1.655,-3.697 -3.697,-3.697Z" style="fill:#7b231e;fill-rule:nonzero;"/><rect x="99.815" y="31.55" width="22.029" height="2.467" style="fill:#0e4069;fill-rule:nonzero;"/><path d="M151.366,35.613l0,-16.908c0,-3.777 -2.959,-6.837 -6.608,-6.837l-8.812,0c-3.65,0 -6.608,3.06 -6.608,6.837l0,16.908l22.028,0Z" style="fill:#114e67;fill-rule:nonzero;"/><path d="M153.027,43.914c0,4.23 -3.429,7.66 -7.661,7.66l-10.216,0c-4.23,0 -7.66,-3.43 -7.66,-7.66l0,-26.327c0,-4.231 3.43,-7.662 7.66,-7.662l10.216,0c4.232,0 7.661,3.431 7.661,7.662l0,26.327Z" style="fill:#0e4069;fill-rule:nonzero;"/><path d="M151.272,42.199c0,3.775 -2.959,6.837 -6.608,6.837l-8.811,0c-3.651,0 -6.609,-3.062 -6.609,-6.837l0,-23.494c0,-3.777 2.958,-6.837 6.609,-6.837l8.811,0c3.649,0 6.608,3.06 6.608,6.837l0,23.494Z" style="fill:#9ddcf6;fill-rule:nonzero;"/><path d="M151.272,23.076c-6.082,-1.133 -12.226,-1.974 -18.375,-2.622c-1.216,-0.129 -2.434,-0.245 -3.653,-0.353l0,-1.396c0,-3.777 2.958,-6.837 6.609,-6.837l8.811,0c3.649,0 6.608,3.06 6.608,6.837l0,4.371Z" style="fill:#bde6f6;fill-rule:nonzero;"/><path d="M144.792,34.407c-2.706,0 -4.898,2.191 -4.898,4.896l-0.983,9.733l5.753,0c2.013,0 3.812,-0.935 5.024,-2.403l0,-7.33c0,-2.705 -2.193,-4.896 -4.896,-4.896Z" style="fill:#601609;fill-rule:nonzero;"/><path d="M144.671,37.127c-2.042,0 -3.697,1.654 -3.697,3.697l-0.742,7.346l4.342,0c1.52,0 2.877,-0.706 3.792,-1.814l0,-5.532c0,-2.043 -1.654,-3.697 -3.695,-3.697Z" style="fill:#7b231e;fill-rule:nonzero;"/><rect x="129.244" y="32.421" width="22.028" height="3.192" style="fill:#0e4069;fill-rule:nonzero;"/><path d="M180.795,35.613l0,-16.908c0,-3.777 -2.958,-6.837 -6.608,-6.837l-8.812,0c-3.65,0 -6.608,3.06 -6.608,6.837l0,16.908l22.028,0Z" style="fill:#114e67;fill-rule:nonzero;"/><path d="M182.456,43.914c0,4.23 -3.431,7.66 -7.662,7.66l-10.215,0c-4.23,0 -7.66,-3.43 -7.66,-7.66l0,-26.327c0,-4.231 3.43,-7.662 7.66,-7.662l10.215,0c4.231,0 7.662,3.431 7.662,7.662l0,26.327Z" style="fill:#0e4069;fill-rule:nonzero;"/><path d="M180.701,42.199c0,3.775 -2.959,6.837 -6.608,6.837l-8.812,0c-3.65,0 -6.608,-3.062 -6.608,-6.837l0,-23.494c0,-3.777 2.958,-6.837 6.608,-6.837l8.812,0c3.649,0 6.608,3.06 6.608,6.837l0,23.494Z" style="fill:#9ddcf6;fill-rule:nonzero;"/><path d="M180.701,31.595c-0.097,-0.042 -0.195,-0.084 -0.294,-0.125c-7.047,-2.925 -14.328,-5.138 -21.734,-6.849l0,-5.916c0,-3.777 2.958,-6.837 6.608,-6.837l8.812,0c3.649,0 6.608,3.06 6.608,6.837l0,12.89Z" style="fill:#bde6f6;fill-rule:nonzero;"/><path d="M174.22,34.407c-2.705,0 -4.897,2.191 -4.897,4.896l-0.982,9.733l5.752,0c2.011,0 3.81,-0.935 5.023,-2.403l0,-7.33c0,-2.705 -2.192,-4.896 -4.896,-4.896Z" style="fill:#601609;fill-rule:nonzero;"/><path d="M174.1,37.127c-2.042,0 -3.697,1.654 -3.697,3.697l-0.742,7.346l4.343,0c1.519,0 2.876,-0.706 3.792,-1.814l0,-5.532c0,-2.043 -1.656,-3.697 -3.696,-3.697Z" style="fill:#7b231e;fill-rule:nonzero;"/><rect x="158.673" y="32.421" width="22.028" height="3.192" style="fill:#0e4069;fill-rule:nonzero;"/><path d="M51.758,35.613l0,-16.908c0,-3.777 -2.959,-6.837 -6.608,-6.837l-8.813,0c-3.649,0 -6.607,3.06 -6.607,6.837l0,16.908l22.028,0Z" style="fill:#114e67;fill-rule:nonzero;"/><path d="M53.418,43.914c0,4.23 -3.429,7.66 -7.66,7.66l-10.216,0c-4.231,0 -7.661,-3.43 -7.661,-7.66l0,-26.327c0,-4.231 3.43,-7.662 7.661,-7.662l10.216,0c4.231,0 7.66,3.431 7.66,7.662l0,26.327Z" style="fill:#0e4069;fill-rule:nonzero;"/><path d="M51.665,42.199c0,3.775 -2.959,6.837 -6.609,6.837l-8.812,0c-3.65,0 -6.609,-3.062 -6.609,-6.837l0,-23.494c0,-3.777 2.959,-6.837 6.609,-6.837l8.812,0c3.65,0 6.609,3.06 6.609,6.837l0,23.494Z" style="fill:#9ddcf6;fill-rule:nonzero;"/><path d="M29.635,32.878l0,-14.173c0,-3.777 2.959,-6.837 6.609,-6.837l8.812,0c3.65,0 6.609,3.06 6.609,6.837l0,7.719c-6.011,1.432 -11.963,3.089 -17.827,5.015c-1.406,0.462 -2.806,0.943 -4.203,1.439Z" style="fill:#bde6f6;fill-rule:nonzero;"/><path d="M45.182,34.407c-2.704,0 -4.896,2.191 -4.896,4.896l-0.983,9.733l5.753,0c2.012,0 3.811,-0.935 5.024,-2.403l0,-7.33c0,-2.705 -2.193,-4.896 -4.898,-4.896Z" style="fill:#601609;fill-rule:nonzero;"/><path d="M45.062,37.127c-2.042,0 -3.696,1.654 -3.696,3.697l-0.742,7.346l4.343,0c1.518,0 2.876,-0.706 3.791,-1.814l0,-5.532c0,-2.043 -1.654,-3.697 -3.696,-3.697Z" style="fill:#7b231e;fill-rule:nonzero;"/><rect x="29.635" y="32.421" width="22.03" height="3.192" style="fill:#0e4069;fill-rule:nonzero;"/><rect x="60.827" y="13.109" width="31.601" height="12.457" style="fill:#0c78be;fill-rule:nonzero;"/><rect x="60.827" y="25.566" width="31.601" height="1.27" style="fill:#0b0b11;fill-rule:nonzero;"/><path d="M91.524,19.467c0,2.777 -2.251,5.028 -5.027,5.028l-20.164,0c-2.776,0 -5.029,-2.251 -5.029,-5.028c0,-2.778 2.253,-5.028 5.029,-5.028l20.164,0c2.776,0 5.027,2.25 5.027,5.028Z" style="fill:#0e4069;fill-rule:nonzero;"/><path d="M85.65,23.8l-18.214,0c-2.507,0 -4.541,-1.914 -4.541,-4.278c0,-2.363 2.034,-4.28 4.541,-4.28l18.214,0c2.508,0 4.541,1.917 4.541,4.28c0,2.364 -2.033,4.278 -4.541,4.278Z" style="fill:#a1dcf1;fill-rule:nonzero;"/><rect x="60.827" y="71.286" width="31.601" height="13.364" style="fill:#494d50;fill-rule:nonzero;"/><rect x="60.827" y="71.286" width="31.601" height="0.926" style="fill:#383c40;fill-rule:nonzero;"/><rect x="60.827" y="78.258" width="31.601" height="6.392" style="fill:#6d7276;fill-rule:nonzero;"/><rect x="60.827" y="78.258" width="31.601" height="0.921" style="fill:#b2b7ba;fill-rule:nonzero;"/><path d="M92.428,69.596l-1.395,0c-0.259,0 -0.47,-0.091 -0.664,-0.286c-0.769,-0.771 -0.93,-2.75 -0.928,-3.451l-0.002,-32.072c-0.149,-2.42 1.578,-2.678 1.714,-2.698l1.275,0l0,-1.275l-1.334,0.001c-1.093,0.101 -3.112,1.074 -2.929,4.012l0,32.029c-0.002,0.311 0.02,3.069 1.297,4.354c0.433,0.434 0.975,0.663 1.571,0.663l1.395,0l0,-1.277Z" style="fill:#fff;fill-rule:nonzero;"/><path d="M92.428,70.873l-1.395,0l1.395,0Zm-2.059,-1.563c-0.062,-0.062 -0.121,-0.133 -0.175,-0.209l0,-0.019l0.175,0.228Z" style="fill:#524745;fill-rule:nonzero;"/><path d="M92.428,70.873l-1.395,0c-0.295,0 -0.577,-0.057 -0.839,-0.167l0,-1.605c0.054,0.076 0.113,0.147 0.175,0.209c0.194,0.195 0.405,0.286 0.664,0.286l1.395,0l0,1.277Z" style="fill:#b1b5b9;fill-rule:nonzero;"/><path d="M90.194,31.534c0.355,-0.303 0.732,-0.402 0.891,-0.433c-0.159,0.031 -0.536,0.131 -0.891,0.433Z" style="fill:#524745;fill-rule:nonzero;"/><path d="M92.428,31.089l-1.275,0l1.275,0Zm-1.452,-1.26c0.04,-0.006 0.08,-0.011 0.118,-0.014c-0.038,0.004 -0.078,0.008 -0.118,0.014Z" style="fill:#524745;fill-rule:nonzero;"/><path d="M90.194,31.534l0,-1.481c0.276,-0.117 0.546,-0.19 0.782,-0.224c0.04,-0.006 0.08,-0.01 0.118,-0.014l1.334,-0.001l0,1.275l-1.275,0c-0.012,0.002 -0.035,0.006 -0.068,0.012c-0.159,0.031 -0.536,0.13 -0.891,0.433Z" style="fill:#b1b5b9;fill-rule:nonzero;"/><path d="M189.98,37.122c-0.001,-0.001 -0.001,-0.002 -0.001,-0.003c-0.486,-9.076 -1.185,-19.96 -1.967,-25.417c0.782,5.458 1.481,16.344 1.968,25.42Zm-1.968,-25.42c-0.002,-0.012 -0.003,-0.023 -0.005,-0.035c0.002,0.012 0.003,0.023 0.005,0.035Zm-0.005,-0.035c-0.003,-0.021 -0.006,-0.041 -0.009,-0.062c0.003,0.021 0.006,0.041 0.009,0.062Zm-0.01,-0.071c-0.001,-0.003 -0.001,-0.005 -0.002,-0.008c0.001,0.002 0.001,0.005 0.002,0.008Zm-0.003,-0.017c0,-0.004 -0.001,-0.007 -0.001,-0.011c0,0.004 0.001,0.007 0.001,0.011Zm-0.003,-0.019c0,-0.004 -0.001,-0.007 -0.001,-0.011c0,0.004 0.001,0.007 0.001,0.011Zm-0.002,-0.018c-0.001,-0.003 -0.001,-0.007 -0.002,-0.01c0.001,0.003 0.001,0.006 0.002,0.01Zm-0.003,-0.017c-0.001,-0.007 -0.002,-0.016 -0.003,-0.023c0.001,0.007 0.002,0.015 0.003,0.023Zm-0.004,-0.029c0,-0.003 -0.001,-0.006 -0.001,-0.009c0,0.003 0.001,0.006 0.001,0.009Zm-0.003,-0.019c0,-0.002 0,-0.004 -0.001,-0.006c0.001,0.002 0.001,0.004 0.001,0.006Zm-0.003,-0.02l0,-0.004l0,0.004Zm-0.603,-2.822l-0.001,0l0.001,0Zm-0.003,-0.007l-0.001,-0.001l0.001,0.001Zm-0.003,-0.007c0,-0.001 -0.001,-0.001 -0.001,-0.002c0,0.001 0.001,0.002 0.001,0.002Zm-0.003,-0.007c0,-0.001 -0.001,-0.002 -0.001,-0.002c0,0.001 0.001,0.001 0.001,0.002Zm-140.658,-6.833l0.001,0l-0.001,0Zm0.13,-0.009c0.003,-0.001 0.006,-0.001 0.008,-0.001c-0.003,0 -0.005,0 -0.008,0.001Zm0.041,-0.003c0.004,-0.001 0.007,-0.001 0.011,-0.001c-0.003,0 -0.008,0 -0.011,0.001Z" style="fill:#2552a4;fill-rule:nonzero;"/><path d="M189.979,37.119c-1.427,-11.366 -3.066,-23.338 -4.089,-27.264c-2.129,-8.158 -29.62,-8.158 -29.62,-8.158l-119.131,1.235c2.71,-0.472 5.871,-0.871 9.567,-1.151l0.001,0c0.043,-0.003 0.086,-0.006 0.129,-0.009c0.003,-0.001 0.005,-0.001 0.008,-0.001c0.011,-0.001 0.022,-0.002 0.033,-0.002c0.003,-0.001 0.008,-0.001 0.011,-0.001c0.013,-0.001 0.027,-0.002 0.04,-0.003c14.466,-1.069 42.191,-1.765 69.646,-1.765c22.865,0 45.544,0.483 60.203,1.637c8.588,0.674 10.3,6.283 10.583,6.968l0.006,0.014c0,0.001 0.001,0.001 0.001,0.002c0.001,0.002 0.001,0.004 0.002,0.006l0.001,0.001c0.001,0.002 0.001,0.004 0.002,0.007l0.001,0c0.204,0.516 0.406,1.492 0.603,2.818l0,0.004c0.001,0.004 0.002,0.009 0.002,0.014c0.001,0.002 0.001,0.004 0.001,0.006c0.001,0.003 0.001,0.007 0.002,0.01c0,0.003 0.001,0.006 0.001,0.009c0,0.002 0.001,0.004 0.001,0.006c0.001,0.007 0.002,0.016 0.003,0.023c0.001,0.002 0.001,0.004 0.001,0.007c0.001,0.003 0.001,0.007 0.002,0.01c0,0.002 0.001,0.005 0.001,0.007c0,0.004 0.001,0.007 0.001,0.011c0.001,0.002 0.001,0.006 0.002,0.008c0,0.004 0.001,0.007 0.001,0.011c0.001,0.003 0.001,0.006 0.001,0.009c0.001,0.003 0.001,0.005 0.002,0.008c0,0.003 0,0.006 0.001,0.009c0.003,0.021 0.006,0.041 0.009,0.062c0.002,0.012 0.003,0.023 0.005,0.035c0.782,5.457 1.481,16.341 1.967,25.417Z" style="fill:#3395d2;fill-rule:nonzero;"/></svg>